<svg width="120" height="120" viewBox="0 0 120 120" fill="none" xmlns="http://www.w3.org/2000/svg">
<g clip-path="url(#clip0_374_340)">
<mask id="mask0_374_340" style="mask-type:luminance" maskUnits="userSpaceOnUse" x="0" y="0" width="120" height="120">
<path d="M0 0H119.778V119.778H0V0Z" fill="white"/>
</mask>
<g mask="url(#mask0_374_340)">
<mask id="mask1_374_340" style="mask-type:luminance" maskUnits="userSpaceOnUse" x="0" y="0" width="120" height="120">
<path d="M59.8889 0C26.8134 0 0 26.8134 0 59.8889C0 92.9653 26.8134 119.778 59.8889 119.778C92.9644 119.778 119.778 92.9653 119.778 59.8889C119.778 26.8134 92.9644 0 59.8889 0Z" fill="white"/>
</mask>
<g mask="url(#mask1_374_340)">
<mask id="mask2_374_340" style="mask-type:luminance" maskUnits="userSpaceOnUse" x="-1" y="0" width="121" height="120">
<path d="M119.889 0H-0.111084V119.778H119.889V0Z" fill="white"/>
</mask>
<g mask="url(#mask2_374_340)">
<mask id="mask3_374_340" style="mask-type:luminance" maskUnits="userSpaceOnUse" x="0" y="0" width="120" height="120">
<path d="M0 0H119.778V119.778H0V0Z" fill="white"/>
</mask>
<g mask="url(#mask3_374_340)">
<mask id="mask4_374_340" style="mask-type:luminance" maskUnits="userSpaceOnUse" x="0" y="0" width="120" height="120">
<path d="M59.8889 0C26.8134 0 0 26.8134 0 59.8889C0 92.9653 26.8134 119.778 59.8889 119.778C92.9644 119.778 119.778 92.9653 119.778 59.8889C119.778 26.8134 92.9644 0 59.8889 0Z" fill="white"/>
</mask>
<g mask="url(#mask4_374_340)">
<path d="M0 0H119.778V119.778H0V0Z" fill="#86AD36"/>
</g>
</g>
</g>
</g>
</g>
<mask id="mask5_374_340" style="mask-type:luminance" maskUnits="userSpaceOnUse" x="18" y="25" width="84" height="70">
<path d="M18.7656 25.4756H101.28V94.2221H18.7656V25.4756Z" fill="white"/>
</mask>
<g mask="url(#mask5_374_340)">
<path fill-rule="evenodd" clip-rule="evenodd" d="M52.5885 73.9182C52.4175 72.4043 52.546 66.3044 52.5668 64.0232C52.5668 60.419 52.0339 59.6517 54.8915 59.6517L88.2448 59.6734C90.9957 59.6517 90.4627 60.505 90.4627 64.0241L90.4418 74.0041C90.25 75.1352 89.3325 75.0709 88.138 75.0709H58.1328C57.4505 75.0709 53.7613 75.1777 53.2708 74.9216C53.0365 74.794 52.6311 74.3669 52.5885 73.919V73.9182ZM48.9844 60.9095C49.1979 61.0371 49.1554 61.2723 49.1337 61.5918L49.112 64.3218C49.112 72.5536 49.197 80.913 49.112 89.0814L95.8793 89.0597C95.6875 82.6829 95.8576 75.0701 95.8576 68.4798C95.8576 68.0961 95.73 62.0822 95.9644 61.6985V57.3912C93.1276 57.9885 91.3793 57.9242 88.9696 56.7298C87.967 56.2176 87.263 55.5996 86.6241 54.939C85.7708 54.064 85.579 53.5735 84.875 52.4442C84.0434 53.5527 84.0434 54.4702 81.8255 56.0909C77.5608 59.1621 71.5043 58.031 68.6042 53.1473L68.2205 52.5718L68.0929 52.7636C67.1753 54.1282 66.8767 54.939 65.0859 56.1326C62.0148 58.2228 57.9418 58.3505 54.8281 56.1968C54.1024 55.6847 53.6128 55.2159 53.0799 54.6187C52.4184 53.9147 52.2266 53.3817 51.6502 52.5926L51.3307 53.0831C51.2023 53.3175 51.1597 53.3817 51.0104 53.5952C47.1927 59.2888 39.1962 59.0544 35.6554 53.5527C35.4427 53.2324 35.2292 52.7211 34.974 52.5076C33.4809 55.4077 31.0069 57.2845 27.7439 57.7116C25.697 57.9668 25.1215 57.498 23.9913 57.4338L23.9696 89.1456L27.9783 89.1673C28.1276 88.0371 28 65.3678 28 63.6187C28 60.2498 27.6163 60.0362 30.73 60.0362L46.7031 60.0145C47.8976 59.9928 48.6441 59.9294 48.9852 60.9103L48.9844 60.9095ZM44.2075 75.1343C44.2075 76.1577 44.2292 77.0319 43.3325 77.2029C42.3307 77.3947 42.0104 76.6482 41.9896 75.7524C41.9896 74.7289 41.9896 73.8973 42.8212 73.6838C43.8021 73.4494 44.2066 74.2385 44.2066 75.1343H44.2075ZM30.9002 89.1022H46.1059L46.0842 62.9572H30.921L30.9002 89.1022ZM18.9792 92.834C18.9792 94.2845 18.9792 94.0709 21.645 94.0709H99.1641C99.7187 94.0709 100.358 94.1135 100.785 93.9433C101.019 92.5996 100.934 93.0258 100.912 91.6187C100.891 90.1682 100.337 90.5518 97.4366 90.5518H20.4297C18.8299 90.531 18.9792 90.4242 18.9792 92.834ZM83.7882 40.8635H98.8446C98.6736 40.3513 91.4661 28.9642 90.5911 27.5136C90.25 26.959 89.7595 26.1057 89.3542 25.6152L78.3082 25.5727L83.7891 40.8635H83.7882ZM21.1328 40.8635L36.1467 40.8418L41.6701 25.5944H30.5165C30.3455 26.064 29.6849 27.0657 29.3863 27.5136L25.8247 33.2506C25.4835 33.8053 21.2821 40.4164 21.1328 40.8635ZM99.6753 42.2072H84.3003C84.5773 43.7853 85.5799 45.044 85.5582 46.8348C85.5156 48.9242 85.3871 50.2897 86.1979 52.0171C89.0556 58.1586 98.0547 57.6682 100.529 51.761C101.19 50.2046 101.233 48.4347 101.126 46.5362C101.041 44.8305 100.379 43.4017 99.6753 42.2072ZM18.7656 48.1569C18.7656 50.9503 19.5122 52.5076 20.941 53.9998C22.0286 55.1517 23.9479 56.3461 26.2726 56.452C30.4523 56.623 34.3767 53.4459 34.3767 48.8609C34.3767 46.8557 34.2274 46.4511 34.8455 44.6803C35.0799 43.998 35.5278 42.8895 35.6562 42.2281L20.3229 42.2064C19.1285 44.0623 18.7656 45.4485 18.7656 48.1569ZM82.7856 42.2072H68.5191C68.3915 43.5718 68.8819 45.8756 68.8819 47.5605C68.8602 49.544 68.8394 50.7801 69.6927 52.3583C72.8698 58.1803 81.1875 57.6048 83.7248 51.7194C84.3429 50.2689 84.3429 48.2853 84.2361 46.5371C84.2153 46.0249 83.0208 42.6768 82.7865 42.2081L82.7856 42.2072ZM51.4583 42.2072H37.1276C36.829 43.2307 35.7622 45.6621 35.6771 46.4294C35.5495 48.136 35.592 50.3114 36.2101 51.6968C38.8759 57.8175 47.0868 58.0093 50.1997 52.3583C51.0529 50.8227 51.0104 49.5215 51.0104 47.5597C51.0104 45.5978 51.4583 43.913 51.4583 42.2064V42.2072ZM52.8446 42.2923C52.6102 43.2098 52.3325 46.3018 52.3325 47.347C52.3108 49.4581 52.1832 50.4815 53.0582 52.209C56.0009 58.0735 64.2326 57.5831 66.8767 52.1447C68.1988 49.4364 67.5165 45.3209 67.0903 42.2281C65.7465 42.1213 53.25 42.1005 52.8446 42.2923ZM53.0148 40.8209L66.8767 40.8635L65.1918 25.5944C64.0833 25.5301 55.2969 25.4876 54.7422 25.6586L53.0148 40.8209ZM68.2847 40.8209L82.3168 40.8635L76.8568 25.5944L66.5781 25.5727L68.2839 40.8209H68.2847ZM37.6389 40.8426L51.6293 40.8635L53.3993 25.5944L43.1623 25.5727C42.9488 25.8713 42.9279 26.1057 42.7995 26.4477L37.6389 40.8426ZM95.9653 61.6985C95.7309 62.0822 95.8585 68.0961 95.8585 68.4798C95.8585 75.0701 95.6875 82.6829 95.8802 89.0597L49.1128 89.0814C49.1979 80.913 49.1128 72.5536 49.1128 64.3218L49.1345 61.5918C49.1562 61.2723 49.1988 61.0371 48.9852 60.9095L49.0069 89.1881H95.9444L95.9661 61.6985H95.9653ZM30.921 62.9572H46.0842L46.1059 89.1022H30.9002L30.9219 62.9572H30.921ZM30.8359 89.1881L46.191 89.209L46.2127 62.8505L30.8576 62.8287C30.6658 63.6603 30.7934 74.1959 30.7934 75.9442V85.8609C30.7934 86.8418 30.7083 88.2498 30.8359 89.1881Z" fill="white"/>
</g>
</g>
<defs>
<clipPath id="clip0_374_340">
<rect width="120" height="120" fill="white"/>
</clipPath>
</defs>
</svg>
