<svg width="120" height="120" viewBox="0 0 120 120" fill="none" xmlns="http://www.w3.org/2000/svg">
<g clip-path="url(#clip0_375_411)">
<mask id="mask0_375_411" style="mask-type:luminance" maskUnits="userSpaceOnUse" x="0" y="0" width="120" height="120">
<path d="M0.111084 0H119.889V119.778H0.111084V0Z" fill="white"/>
</mask>
<g mask="url(#mask0_375_411)">
<mask id="mask1_375_411" style="mask-type:luminance" maskUnits="userSpaceOnUse" x="0" y="0" width="120" height="120">
<path d="M60 0C26.9245 0 0.111084 26.8134 0.111084 59.8889C0.111084 92.9653 26.9245 119.778 60 119.778C93.0755 119.778 119.889 92.9653 119.889 59.8889C119.889 26.8134 93.0755 0 60 0Z" fill="white"/>
</mask>
<g mask="url(#mask1_375_411)">
<mask id="mask2_375_411" style="mask-type:luminance" maskUnits="userSpaceOnUse" x="0" y="0" width="120" height="120">
<path d="M120 0H0V119.778H120V0Z" fill="white"/>
</mask>
<g mask="url(#mask2_375_411)">
<mask id="mask3_375_411" style="mask-type:luminance" maskUnits="userSpaceOnUse" x="0" y="0" width="120" height="120">
<path d="M0.111084 0H119.889V119.778H0.111084V0Z" fill="white"/>
</mask>
<g mask="url(#mask3_375_411)">
<mask id="mask4_375_411" style="mask-type:luminance" maskUnits="userSpaceOnUse" x="0" y="0" width="120" height="120">
<path d="M60 0C26.9245 0 0.111084 26.8134 0.111084 59.8889C0.111084 92.9653 26.9245 119.778 60 119.778C93.0755 119.778 119.889 92.9653 119.889 59.8889C119.889 26.8134 93.0755 0 60 0Z" fill="white"/>
</mask>
<g mask="url(#mask4_375_411)">
<path d="M0.111084 0H119.889V119.778H0.111084V0Z" fill="#86AD36"/>
</g>
</g>
</g>
</g>
</g>
<mask id="mask5_375_411" style="mask-type:luminance" maskUnits="userSpaceOnUse" x="25" y="36" width="70" height="59">
<path d="M25.9097 36.4443H94.0946V94.3011H25.9097V36.4443Z" fill="white"/>
</mask>
<g mask="url(#mask5_375_411)">
<path d="M47.1727 70.9355C43.7821 70.9355 40.4756 70.9355 37.0772 70.9355C37.0772 74.0683 37.0772 77.1508 37.0772 80.3235C40.4296 80.3235 43.7725 80.3235 47.1727 80.3235C47.1727 77.1759 47.1727 74.0935 47.1727 70.9355ZM72.8029 80.3409C76.1753 80.3409 79.4826 80.3409 82.8932 80.3409C82.8932 77.274 82.8932 74.235 82.8932 71.0258C79.5859 71.0258 76.2309 71.0258 72.8029 71.0258C72.8029 74.1013 72.8029 77.1829 72.8029 80.3409ZM55.006 80.3409C58.4288 80.3409 61.7786 80.3409 65.2022 80.3409C65.2022 77.1855 65.2022 74.1013 65.2022 70.9381C61.8116 70.9381 58.4947 70.9381 55.006 70.9381C55.006 74.1013 55.006 77.1855 55.006 80.3409ZM27.7039 94.2228C27.1362 94.2228 26.5659 94.2228 25.9097 94.2228V78.0015C26.7421 77.9555 27.5277 77.9129 28.4392 77.8652V68.4919H33.5026C34.2274 57.7853 34.9392 47.2463 35.6588 36.6108H43.151C43.9713 47.1829 44.7899 57.7506 45.6128 68.3956H50.0451V50.3765C54.5286 53.5145 58.7421 56.4624 63.1874 59.5752V50.4042L76.2465 59.5397V50.4746C76.9201 50.886 86.6493 57.6742 89.5147 59.6134C89.4565 65.1846 89.4817 70.7584 89.4817 76.3322C89.4817 76.8096 89.4817 77.2888 89.4817 78.0266H94.1189C94.1189 83.4511 94.1189 88.8765 94.1189 94.3009C93.5434 94.2758 49.2682 94.2228 27.7039 94.2228Z" fill="white"/>
</g>
<path d="M64.7752 29.3201C64.046 28.0683 62.4506 27.472 60.9028 27.8765C60.724 27.9216 60.5348 27.9624 60.375 28.0501C59.0851 28.7645 57.9775 28.5631 56.816 27.6265C55.6424 26.6795 54.2735 26.8539 52.974 27.5024C50.9315 28.5249 50.1363 28.4338 48.4983 26.9477C46.9809 25.5692 44.8473 25.4529 43.0929 26.485C42.3785 26.9043 41.7804 27.5553 41.5252 28.3461C41.336 28.9312 41.3438 29.5649 41.1849 30.1612C40.9575 31.0093 39.2613 33.7177 41.1137 33.7706C41.7752 33.7888 42.3785 33.7706 43.0052 33.9833C43.6407 34.1977 44.2544 34.4755 44.9054 34.6369C46.4384 35.0024 47.6676 34.1222 48.829 33.2706C50.086 32.347 51.2396 32.6196 52.3351 33.6569C53.6953 34.9468 55.5408 35.0987 57.0478 33.9295C58.1164 33.0996 59.0955 33.0189 60.2691 33.7124C61.7414 34.584 63.2023 34.3314 64.3056 33.1777C65.29 32.1473 65.487 30.5397 64.7752 29.3201Z" fill="white"/>
</g>
<defs>
<clipPath id="clip0_375_411">
<rect width="120" height="120" fill="white"/>
</clipPath>
</defs>
</svg>
