<svg width="240" height="240" viewBox="0 0 240 240" fill="none" xmlns="http://www.w3.org/2000/svg">
<path d="M30.3093 15.8269C49.1298 -4.2381 89.5523 26.9349 115.934 26.9348C142.316 26.9347 177.639 -16.7862 207.575 25.2687C229.075 55.4712 238.908 85.5532 229.329 123.575C222.055 152.444 210.312 169.344 187.673 182.447C163.416 196.487 142.827 168.06 118.711 182.447C96.5163 195.688 109.702 233.752 84.924 232.989C67.427 232.449 59.1491 218.424 48.36 201.886C35.9925 182.929 31.2329 174.868 25.2181 151.9C16.8441 119.923 3.00909 107.103 8.09317 74.1442C11.685 50.8592 15.5568 31.5551 30.3093 15.8269Z" fill="#F0ECE0"/>
<path d="M66.5459 142.347C24.0459 142.347 27.0459 152.847 27.0459 152.847L59.5459 199.847V229.847L75.0459 214.347V199.847L107.046 152.847C107.046 152.847 109.046 142.347 66.5459 142.347Z" fill="#549A5D"/>
<path d="M201.487 31.256C200.042 31.1685 198.946 29.9711 199.037 28.5813C199.127 27.1916 200.372 26.1361 201.816 26.2236C203.26 26.3111 204.357 27.5085 204.266 28.8983C204.175 30.2881 202.931 31.3436 201.487 31.256ZM208.488 22.6918C201.946 16.3029 196.181 20.4478 196.181 20.4478L184.17 30.4708C184.17 30.4708 179.875 34.5286 177.557 41.9667C175.148 48.4593 168.45 51.9307 168.45 51.9307C168.45 51.9307 165.37 54.6815 149.027 56.0409C132.684 57.4003 170.174 77.8259 170.174 77.8259C170.174 77.8259 167.431 67.9661 175.44 57.5243C180.556 52.1064 188.35 50.5519 188.35 50.5519C188.35 50.5519 192.056 49.8953 197.976 44.7905L208.741 35.6025C208.741 35.6025 215.029 29.0806 208.488 22.6918Z" fill="#C4D4E0"/>
<path d="M169.279 73.9062C179.462 93.6503 166.51 119.786 140.349 132.281C114.188 144.776 84.7264 138.899 74.5434 119.155C64.3604 99.4107 77.3127 73.2756 103.473 60.7806C129.634 48.2853 159.096 54.1621 169.279 73.9062Z" fill="#E44B4D"/>
<path d="M166.752 69.0298C175.287 86.4477 160.37 110.477 133.434 122.702C106.498 134.926 77.7426 130.716 69.2073 113.298C60.6721 95.8798 75.5888 71.8502 102.525 59.6259C129.461 47.4016 158.217 51.6119 166.752 69.0298Z" fill="#395166"/>
<path d="M162.644 70.452C162.558 71.7609 161.386 72.7551 160.026 72.6727C158.666 72.5903 157.633 71.4623 157.718 70.1535C157.804 68.8447 158.976 67.8504 160.336 67.9328C161.696 68.0153 162.729 69.1432 162.644 70.452Z" fill="#A6B2BC"/>
<path d="M153.377 65.1312C153.291 66.4401 152.119 67.4343 150.759 67.3519C149.399 67.2695 148.366 66.1415 148.451 64.8327C148.537 63.5239 149.709 62.5296 151.069 62.612C152.429 62.6945 153.462 63.8224 153.377 65.1312Z" fill="#A6B2BC"/>
<path d="M73.5 114.439C73.5 109.939 75.5 108.439 82 104.939C82 104.939 95 97.439 121 98.439C143 100.439 144 106.939 144 109.439C144 111.439 137.5 116.439 126 121.439C126 121.439 106.5 127.439 87.5 126.439C87.5 126.439 80.7452 127.439 76.5 146.439C71 161.939 82 177.439 82 177.439H55C55 177.439 64 168.939 65 151.439C66.5 140.939 68 132.939 70.5 127.439C73 121.939 75 120.439 73.5 114.439Z" fill="#F7C05C"/>
<path d="M59.5459 199.847L27.0459 152.847C27.0459 152.847 35.5459 161.847 69.0459 161.347C99.8313 160.888 106.126 154.094 106.944 152.997L107.046 152.847C107.046 152.847 107.016 152.9 106.944 152.997L75.0459 199.847H59.5459Z" fill="#5EB36E"/>
</svg>
