<svg width="240" height="240" viewBox="0 0 240 240" fill="none" xmlns="http://www.w3.org/2000/svg">
<g clip-path="url(#clip0_354_381)">
<path d="M111.889 145.324L109.72 154.288C108.034 151.777 106.756 150.364 106.756 150.364C108.7 148.603 110.404 146.923 111.889 145.324Z" fill="#FBB082"/>
<path d="M153.086 178.981C147.056 182.77 138.5 179.089 131.056 178.012C122.092 176.716 117.88 178.876 117.88 178.876C117.859 175.825 117.457 172.921 116.818 170.209L153.086 178.981Z" fill="#FBB082"/>
<path d="M179.081 169.409L166.589 183.845C166.589 183.845 166.271 182.6 165.695 180.959C167.645 180.26 169.223 178.625 169.745 176.471L174.392 157.255L174.419 160.084L179.081 169.409Z" fill="#FBB082"/>
<path d="M166.589 183.844L164.645 186.436C164.645 186.436 152.63 203.395 130.894 208.658L90.262 181.549L92.3531 179.2L90.0161 139.78L106.723 127.462L117.556 119.476C117.556 119.476 117.748 119.608 118.042 119.875C118.213 120.031 118.42 120.232 118.645 120.484C119.317 121.231 120.148 122.401 120.679 124.03C121.375 126.166 121.556 129.091 120.178 132.883C119.533 134.665 118.543 136.639 117.103 138.814C115.774 140.812 114.064 142.981 111.889 145.324C110.404 146.923 108.7 148.603 106.756 150.364C106.756 150.364 108.034 151.777 109.72 154.288C112.066 157.771 115.201 163.363 116.818 170.209C117.457 172.921 117.859 175.825 117.88 178.876C117.88 178.876 122.092 176.716 131.056 178.012C138.499 179.089 147.056 182.77 153.086 178.981L162.074 181.156C163.319 181.456 164.57 181.363 165.695 180.958C166.271 182.599 166.589 183.844 166.589 183.844Z" fill="#FED19E"/>
<path d="M130.894 208.658C128.8 209.168 126.613 209.567 124.339 209.831C122.092 210.092 119.758 210.224 117.34 210.197C87.1002 209.873 85.912 186.437 85.912 186.437L87.1661 185.027L90.2622 181.549L130.894 208.658Z" fill="#FED19E"/>
<path d="M134.965 211.375L132.406 215.212L123.178 229.04L76.7289 198.046L85.954 184.219L88.5161 180.382L90.262 181.549L130.895 208.657L134.965 211.375Z" fill="#FBFFFF"/>
<path d="M192.869 119.177L179.526 126.181C177.111 127.448 174.097 126.509 172.829 124.094L171.553 121.662C170.285 119.247 171.224 116.233 173.64 114.966L186.983 107.962C189.398 106.694 192.412 107.633 193.68 110.049L194.956 112.48C196.224 114.896 195.285 117.91 192.869 119.177Z" fill="#FED19E"/>
<path d="M135.351 217.179L120.033 240.135H44.3333L82.9708 182.228L85.9529 184.217V184.22L87.1648 185.027L109.161 199.703L124.338 209.832H124.341L132.405 215.214L135.351 217.179Z" fill="#505D74"/>
<path d="M135.351 217.179L120.033 240.135H82.1818L99.9329 213.531L103.608 208.026L109.161 199.703L124.338 209.832H124.341L132.405 215.214L135.351 217.179Z" fill="#313B4E"/>
<path d="M195.464 70.1374L174.392 157.255L169.745 176.47C169.223 178.624 167.645 180.259 165.695 180.958C164.57 181.363 163.319 181.456 162.074 181.157L153.086 178.982L116.818 170.209C115.201 163.363 112.066 157.771 109.72 154.288L111.889 145.324C114.064 142.981 115.774 140.812 117.103 138.814L114.04 151.474L168.938 164.752L171.803 152.902L189.212 80.9254L134.314 67.6504L120.679 124.03C120.148 122.401 119.317 121.231 118.645 120.484C118.42 120.232 118.213 120.031 118.042 119.875L118.237 119.068L133.687 55.1943C134.509 51.7983 137.963 49.6893 141.358 50.5113L190.778 62.4635C194.177 63.2852 196.286 66.7384 195.464 70.1374Z" fill="#404A5D"/>
<path d="M189.212 80.9256L171.803 152.902L168.938 164.752L114.04 151.474L117.103 138.814C118.544 136.639 119.533 134.665 120.178 132.883C121.555 129.091 121.376 126.166 120.679 124.03L134.314 67.6505L189.212 80.9256Z" fill="#F8FAED"/>
<path d="M118.645 120.484C118.603 122.182 117.175 124.477 114.841 126.313C111.736 128.758 108.214 129.46 106.972 127.885C106.87 127.756 106.786 127.612 106.723 127.462L117.556 119.476C117.556 119.476 117.748 119.608 118.042 119.875C118.213 120.031 118.42 120.232 118.645 120.484Z" fill="#FFEECE"/>
<path d="M145.889 166.105C145.889 169.525 143.021 172.297 139.484 172.297C135.947 172.297 133.08 169.525 133.08 166.105C133.08 162.685 135.947 159.913 139.484 159.913C143.021 159.913 145.889 162.685 145.889 166.105Z" fill="#496FAF"/>
<path d="M157.642 63.8929C157.642 64.8134 156.87 65.5596 155.918 65.5596C154.966 65.5596 154.194 64.8134 154.194 63.8929C154.194 62.9723 154.966 62.2262 155.918 62.2262C156.87 62.2262 157.642 62.9723 157.642 63.8929Z" fill="#496FAF"/>
<path d="M171.739 69.6701L161.45 67.2263C160.573 67.018 160.026 66.13 160.234 65.2528L160.3 64.9746C160.509 64.0974 161.397 63.5505 162.274 63.7588L172.562 66.2023C173.439 66.4107 173.987 67.2989 173.778 68.1761L173.712 68.454C173.504 69.3312 172.616 69.8784 171.739 69.6701Z" fill="#496FAF"/>
<path d="M177.21 170.077H168.424C166.603 170.077 165.113 168.587 165.113 166.766V162.738C165.113 160.917 166.603 159.427 168.424 159.427H177.21C179.031 159.427 180.521 160.917 180.521 162.738V166.766C180.521 168.587 179.031 170.077 177.21 170.077Z" fill="#FED19E"/>
<path d="M179.598 156.808L170.162 156.552C167.85 156.489 166.01 154.546 166.072 152.234L166.188 147.98C166.25 145.668 168.194 143.828 170.506 143.89L179.941 144.146C182.254 144.209 184.094 146.152 184.031 148.464L183.916 152.718C183.853 155.03 181.91 156.87 179.598 156.808Z" fill="#FED19E"/>
<path d="M183.516 142.186H175.801C173.488 142.186 171.596 140.294 171.596 137.981V133.725C171.596 131.412 173.488 129.52 175.801 129.52H183.516C185.829 129.52 187.721 131.412 187.721 133.725V137.981C187.721 140.294 185.829 142.186 183.516 142.186Z" fill="#FED19E"/>
<path d="M180.521 135.144V137.208C180.521 139.037 179.039 140.518 177.211 140.518H176.734C175.535 140.518 174.564 139.547 174.564 138.349V134.004C174.564 132.806 175.535 131.835 176.734 131.835H177.211C179.039 131.835 180.521 133.317 180.521 135.144Z" fill="#FFEECE"/>
<path d="M175.387 149.536L175.343 151.18C175.29 153.123 173.672 154.655 171.729 154.603L171.109 154.586C169.796 154.55 168.76 153.456 168.795 152.143L168.902 148.22C168.937 146.906 170.031 145.87 171.345 145.906L171.964 145.922C173.907 145.975 175.44 147.593 175.387 149.536Z" fill="#FFEECE"/>
<path d="M173.444 164.234V165.271C173.444 167.067 171.988 168.523 170.192 168.523H169.731C168.609 168.523 167.699 167.613 167.699 166.491V163.014C167.699 161.892 168.609 160.981 169.731 160.981H170.192C171.988 160.981 173.444 162.438 173.444 164.234Z" fill="#FFEECE"/>
</g>
<defs>
<clipPath id="clip0_354_381">
<rect width="240" height="240" fill="white"/>
</clipPath>
</defs>
</svg>
