<svg width="240" height="240" viewBox="0 0 240 240" fill="none" xmlns="http://www.w3.org/2000/svg">
<path d="M93.3512 27.8882C115.437 27.8882 118.996 19.8204 134.616 12.939C165.504 -0.668361 185.188 9.79327 203.197 37.3009C219.616 62.3793 203.728 80.8338 203.197 110.386C202.706 137.72 240.078 133.359 232.257 159.663C224.993 184.096 209.59 201.742 168.907 217.245C137.138 229.35 114.339 238.735 81.7273 228.872C58.5072 221.85 48.4653 219.601 32.9069 201.742C14.3804 180.476 7.24807 162.937 7.33427 135.301C7.45043 98.0598 13.6772 36.677 49.7616 22.3512C66.1888 15.8295 75.5546 27.8882 93.3512 27.8882Z" fill="#F0ECE0"/>
<path d="M208.471 58.394C206.773 58.394 205.397 57.018 205.397 55.3204C205.397 53.6228 206.773 52.2468 208.471 52.2468C210.168 52.2468 211.544 53.6228 211.544 55.3204C211.544 57.018 210.168 58.394 208.471 58.394ZM216.012 47.4578C207.863 40.167 201.43 45.6351 201.43 45.6351L188.135 58.7157C188.135 58.7157 183.418 63.9693 181.273 73.19C178.95 81.2671 171.373 85.9847 171.373 85.9847C171.373 85.9847 167.978 89.5586 148.947 92.4178C129.916 95.2769 175.376 117.364 175.376 117.364C175.376 117.364 171.409 105.57 179.987 92.2748C185.562 85.3057 194.568 82.8396 194.568 82.8396C194.568 82.8396 198.857 81.7675 205.397 75.12L217.298 63.1473C217.298 63.1473 224.16 54.7486 216.012 47.4578Z" fill="#C4D4E0"/>
<path d="M174.028 112.661C187.464 135.932 174.302 168.686 144.628 185.817C114.956 202.949 80.0092 197.972 66.5733 174.7C53.1375 151.429 66.3002 118.676 95.9733 101.544C125.646 84.4121 160.593 89.3896 174.028 112.661Z" fill="#E44B4D"/>
<path d="M170.696 106.915C182.024 127.477 166.4 157.814 135.798 174.673C105.196 191.532 71.2051 188.53 59.8767 167.968C48.5485 147.405 64.1725 117.069 94.7746 100.209C125.376 83.3499 159.368 86.352 170.696 106.915Z" fill="#395166"/>
<path d="M161.84 126.468C169.743 140.813 158.055 162.411 135.733 174.708C113.412 187.006 88.9106 185.346 81.0074 171.001C73.1046 156.656 84.7928 135.058 107.114 122.761C129.436 110.464 153.937 112.124 161.84 126.468Z" fill="#F7C35F"/>
<path d="M165.995 108.947C165.995 110.546 164.699 111.842 163.1 111.842C161.501 111.842 160.205 110.546 160.205 108.947C160.205 107.349 161.501 106.053 163.1 106.053C164.699 106.053 165.995 107.349 165.995 108.947Z" fill="#A6B2BC"/>
<path d="M154.737 103.158C154.737 104.757 153.441 106.053 151.842 106.053C150.243 106.053 148.947 104.757 148.947 103.158C148.947 101.559 150.243 100.263 151.842 100.263C153.441 100.263 154.737 101.559 154.737 103.158Z" fill="#A6B2BC"/>
<path d="M27.3333 88.3545L22.1681 83.4244C21.5763 82.8595 21.5542 81.913 22.1194 81.3212L24.7642 78.5501C25.3291 77.9583 26.2756 77.9365 26.8674 78.5011L32.0325 83.4314C32.6244 83.9961 32.6465 84.9428 32.0815 85.5347L29.4365 88.3055C28.8716 88.8973 27.9251 88.9194 27.3333 88.3545Z" fill="#365E7D"/>
<path d="M41.1016 77.6672L38.3149 68.1586C38.085 67.3734 38.5389 66.5427 39.3241 66.3124L43.0002 65.2351C43.7854 65.0051 44.6161 65.4591 44.8463 66.2446L47.6327 75.7533C47.8629 76.5385 47.4086 77.3692 46.6235 77.5991L42.9477 78.6764C42.1625 78.9067 41.3315 78.4524 41.1016 77.6672Z" fill="#365E7D"/>
<path d="M33.0546 63.3073L46.5153 59.3625C47.3005 59.1325 48.1312 59.5865 48.3614 60.3717L49.4385 64.0478C49.6687 64.833 49.2145 65.6636 48.4293 65.8939L34.9685 69.8387C34.1833 70.0686 33.3527 69.6146 33.1227 68.8294L32.0454 65.1534C31.8151 64.3682 32.2694 63.5375 33.0546 63.3073Z" fill="#365E7D"/>
<path d="M85.2126 98.3961C90.1015 115.078 81.3233 132.52 65.4324 138.731C64.5239 139.087 63.5928 139.405 62.6393 139.684C45.006 144.852 26.5196 134.747 21.3513 117.111C16.1837 99.4778 26.2913 80.9904 43.9246 75.8228C44.8781 75.5436 45.8332 75.3085 46.7904 75.1179C63.5201 71.7695 80.3246 81.7163 85.2126 98.3961Z" fill="#75CEF9"/>
<path d="M85.2124 98.396C90.1012 115.078 81.3231 132.52 65.4322 138.731C48.6998 142.08 31.8964 132.136 27.0076 115.453C22.1195 98.7735 30.8969 81.3298 46.7902 75.1178C63.5198 71.7694 80.3243 81.7162 85.2124 98.396Z" fill="#90D8F9"/>
<path d="M79.2995 100.129C83.4831 114.405 75.3017 129.37 61.0256 133.553C46.7495 137.737 31.7849 129.556 27.6013 115.279C23.4174 101.003 31.5991 86.0387 45.8752 81.8551C60.1513 77.6715 75.1159 85.853 79.2995 100.129Z" fill="#F4FBFF"/>
<path d="M53.4504 107.704L79.2996 100.129C77.2917 93.2775 72.6401 87.4979 66.3766 84.072C60.1129 80.6458 52.7371 79.8469 45.885 81.8522L53.4504 107.704Z" fill="#DD636E"/>
<path d="M79.2995 100.129C83.4831 114.405 75.3017 129.37 61.0256 133.553C46.7495 137.737 31.7849 129.556 27.6013 115.279C23.4174 101.003 31.5991 86.0387 45.8752 81.8551C60.1513 77.6715 75.1159 85.853 79.2995 100.129Z" stroke="#365E7D" stroke-width="10.6667" stroke-miterlimit="10"/>
<path d="M27.6012 115.279L30.0026 114.575" stroke="#365E7D" stroke-width="10.6667" stroke-miterlimit="10" stroke-linecap="round"/>
<path d="M76.8981 100.833L79.2996 100.129" stroke="#365E7D" stroke-width="10.6667" stroke-miterlimit="10" stroke-linecap="round"/>
<path d="M46.4104 84.3057L45.7065 81.9042" stroke="#365E7D" stroke-width="10.6667" stroke-miterlimit="10" stroke-linecap="round"/>
<path d="M40.1925 131.165L41.393 128.969" stroke="#365E7D" stroke-width="10.6667" stroke-miterlimit="10" stroke-linecap="round"/>
<path d="M32.2569 95.5752L30.0612 94.3747" stroke="#365E7D" stroke-width="10.6667" stroke-miterlimit="10" stroke-linecap="round"/>
<path d="M66.6566 84.0763L65.4562 86.272" stroke="#365E7D" stroke-width="10.6667" stroke-miterlimit="10" stroke-linecap="round"/>
<path d="M74.8939 119.413L77.0896 120.614" stroke="#365E7D" stroke-width="10.6667" stroke-miterlimit="10" stroke-linecap="round"/>
<path d="M61.0256 133.553L60.3217 131.152" stroke="#365E7D" stroke-width="10.6667" stroke-miterlimit="10" stroke-linecap="round"/>
<path d="M72.417 104.829L44.9128 112.889C43.6764 113.252 42.3682 112.536 42.0058 111.3L41.8968 110.928C41.5346 109.691 42.2498 108.383 43.486 108.021L70.9904 99.9605C72.2269 99.5983 73.535 100.313 73.8972 101.55L74.0062 101.922C74.3687 103.158 73.6535 104.466 72.417 104.829Z" fill="#FF9838"/>
<path d="M58.7062 106.164C59.5568 109.067 57.8933 112.11 54.9906 112.96C52.0879 113.811 49.0451 112.147 48.1945 109.245C47.3439 106.342 49.0074 103.299 51.9101 102.448C54.8128 101.598 57.8556 103.261 58.7062 106.164Z" fill="#FFAA5B"/>
</svg>
