<svg width="120" height="120" viewBox="0 0 120 120" fill="none" xmlns="http://www.w3.org/2000/svg">
<path d="M58.4948 2.44622C57.3308 2.52174 56.1711 2.63893 55.0148 2.79778C53.8594 2.95664 52.7101 3.15716 51.5686 3.39848C50.4271 3.63979 49.2961 3.92104 48.1745 4.24309C47.053 4.56514 45.9445 4.92712 44.849 5.32903C43.7544 5.73094 42.6745 6.17104 41.6103 6.64934C40.5469 7.12851 39.5009 7.645 38.474 8.19882C37.4471 8.75264 36.4419 9.34205 35.4575 9.96792C34.4723 10.5938 33.5113 11.2535 32.5738 11.948C31.6372 12.6433 30.7258 13.3698 29.8403 14.1302C28.9549 14.8898 28.0981 15.6806 27.27 16.5018C26.441 17.323 25.6433 18.1719 24.8759 19.0504C24.1077 19.9289 23.3725 20.8334 22.6693 21.7648C21.9671 22.6954 21.2987 23.6502 20.6641 24.6294C20.0296 25.6085 19.4306 26.6085 18.8681 27.6302C18.3056 28.6519 17.7796 29.6927 17.2917 30.7518C16.8039 31.8117 16.3542 32.8863 15.9428 33.9783C15.5313 35.0695 15.1598 36.1745 14.8282 37.2926C14.4966 38.4106 14.2049 39.54 13.9532 40.6789C13.7023 41.8177 13.4922 42.9645 13.3238 44.1181C13.1546 45.2726 13.027 46.4306 12.941 47.5938C12.8551 48.757 12.8108 49.9219 12.8091 51.0886C12.8065 52.2552 12.8455 53.4202 12.9263 54.5834C13.0079 55.7466 13.1303 56.9063 13.2943 58.0608C13.4584 59.2153 13.6641 60.3629 13.9098 61.5026C14.1563 62.6433 14.4428 63.7726 14.77 64.8924C15.0973 66.0122 15.4645 67.1181 15.8707 68.2119C16.2778 69.3047 16.7231 70.382 17.2067 71.4436C17.6902 72.5053 18.211 73.5478 18.77 74.5721C19.3282 75.5955 19.9228 76.599 20.553 77.5799C21.1832 78.5617 21.8481 79.5191 22.5469 80.4532C23.2457 81.3872 23.9775 82.2952 24.7414 83.1763C25.5053 84.0582 26.2995 84.9115 27.1251 85.7362C34.448 93.8099 48.7822 108.739 57.408 117.886C57.6823 118.175 57.9818 118.434 58.3091 118.662C58.6355 118.891 58.981 119.083 59.3473 119.241C59.7127 119.398 60.0903 119.518 60.4801 119.599C60.8707 119.681 61.2648 119.721 61.6633 119.722C62.0617 119.723 62.4558 119.684 62.8464 119.604C63.237 119.524 63.6155 119.405 63.981 119.247C64.3473 119.089 64.6928 118.895 65.0192 118.666C65.3447 118.437 65.6442 118.176 65.9167 117.885C75.7657 107.471 94.3204 88.0408 94.1294 87.704C95.415 86.5608 96.6372 85.3542 97.7952 84.0825C98.9541 82.8108 100.042 81.4818 101.06 80.0947C102.078 78.7084 103.02 77.2726 103.886 75.7865C104.754 74.3004 105.539 72.7735 106.244 71.2049C106.95 69.6363 107.57 68.0348 108.107 66.4002C108.642 64.7657 109.091 63.1086 109.452 61.4263C109.814 59.7448 110.086 58.0495 110.268 56.3395C110.451 54.6285 110.543 52.9141 110.543 51.1936C111.056 23.7813 85.9289 0.0243432 58.4948 2.44622Z" fill="#86AD36"/>
<path d="M100.77 51.1937C100.77 51.8335 100.754 52.4733 100.723 53.1113C100.692 53.7502 100.645 54.3882 100.582 55.0245C100.519 55.6608 100.441 56.2953 100.347 56.9281C100.253 57.5609 100.144 58.1911 100.019 58.8179C99.8941 59.4455 99.7543 60.0696 99.599 60.6894C99.4436 61.3101 99.2726 61.9264 99.0868 62.5384C98.901 63.1503 98.7005 63.7571 98.4852 64.3595C98.27 64.962 98.0391 65.5583 97.7943 66.1495C97.5495 66.7397 97.2908 67.3248 97.0174 67.9029C96.7439 68.4811 96.4557 69.0522 96.1545 69.6156C95.8524 70.1798 95.5373 70.7363 95.2083 71.2849C94.8793 71.8335 94.5373 72.3734 94.1823 72.9055C93.8264 73.4368 93.4583 73.9602 93.0773 74.4732C92.6962 74.9871 92.303 75.4915 91.8967 75.9854C91.4913 76.4802 91.0729 76.9646 90.6432 77.4385C90.2135 77.9125 89.7726 78.3752 89.3203 78.8274C88.8681 79.2797 88.4045 79.7206 87.9306 80.1503C87.4566 80.5792 86.9722 80.9967 86.4783 81.4029C85.9835 81.8083 85.4792 82.2015 84.9653 82.5826C84.4514 82.9637 83.9288 83.3318 83.3967 83.6877C82.8646 84.0427 82.3247 84.3847 81.7752 84.7137C81.2266 85.0427 80.6701 85.3578 80.1059 85.659C79.5417 85.9602 78.9705 86.2476 78.3924 86.521C77.8134 86.7944 77.2292 87.054 76.638 87.2988C76.0469 87.5436 75.4505 87.7736 74.8481 87.9889C74.2457 88.2042 73.638 88.4047 73.026 88.5904C72.4141 88.7762 71.7969 88.9472 71.1771 89.1026C70.5564 89.258 69.9323 89.3977 69.3047 89.5227C68.6771 89.6477 68.0469 89.7562 67.4141 89.8509C66.7813 89.9446 66.1467 90.0227 65.5095 90.0852C64.8733 90.1477 64.2352 90.1946 63.5964 90.2267C62.9575 90.258 62.3177 90.2736 61.678 90.2736C61.0382 90.2736 60.3993 90.258 59.7595 90.2267C59.1207 90.1946 58.4826 90.1477 57.8464 90.0852C57.2101 90.0227 56.5747 89.9446 55.9418 89.8509C55.309 89.7562 54.6788 89.6477 54.0512 89.5227C53.4245 89.3977 52.8003 89.258 52.1797 89.1026C51.559 88.9472 50.9427 88.7762 50.3299 88.5904C49.7179 88.4047 49.1102 88.2042 48.5087 87.9889C47.9063 87.7736 47.309 87.5436 46.7179 87.2988C46.1267 87.054 45.5425 86.7944 44.9635 86.521C44.3854 86.2476 43.8142 85.9602 43.25 85.659C42.6858 85.3578 42.1293 85.0427 41.5807 84.7137C41.0321 84.3847 40.4913 84.0427 39.9592 83.6877C39.428 83.3318 38.9045 82.9637 38.3906 82.5826C37.8767 82.2015 37.3724 81.8083 36.8785 81.4029C36.3837 80.9967 35.8993 80.5792 35.4253 80.1503C34.9514 79.7206 34.4878 79.2797 34.0356 78.8274C33.5833 78.3752 33.1424 77.9125 32.7127 77.4385C32.283 76.9646 31.8655 76.4802 31.4592 75.9854C31.0538 75.4915 30.6597 74.9871 30.2786 74.4732C29.8976 73.9602 29.5295 73.4368 29.1736 72.9055C28.8186 72.3734 28.4766 71.8335 28.1476 71.2849C27.8186 70.7363 27.5035 70.1798 27.2014 69.6156C26.9002 69.0522 26.6128 68.4811 26.3394 67.9029C26.0651 67.3248 25.8064 66.7397 25.5616 66.1495C25.3168 65.5583 25.0868 64.962 24.8707 64.3595C24.6554 63.7571 24.4549 63.1503 24.2691 62.5384C24.0833 61.9264 23.9132 61.3101 23.7569 60.6894C23.6016 60.0696 23.4618 59.4455 23.3368 58.8179C23.2118 58.1911 23.1024 57.5609 23.0087 56.9281C22.9149 56.2953 22.8368 55.6608 22.7743 55.0245C22.7109 54.3882 22.6641 53.7502 22.6328 53.1113C22.6016 52.4733 22.5859 51.8335 22.5859 51.1937C22.5859 50.5548 22.6016 49.9151 22.6328 49.2762C22.6641 48.6382 22.7109 48.0002 22.7743 47.3639C22.8368 46.7276 22.9149 46.0922 23.0087 45.4602C23.1024 44.8274 23.2118 44.1972 23.3368 43.5705C23.4618 42.9429 23.6016 42.3187 23.7569 41.6989C23.9132 41.0783 24.0833 40.462 24.2691 39.85C24.4549 39.238 24.6554 38.6312 24.8707 38.0288C25.0868 37.4264 25.3168 36.83 25.5616 36.2389C25.8064 35.6486 26.0651 35.0635 26.3394 34.4854C26.6128 33.9073 26.9002 33.3361 27.2014 32.7719C27.5035 32.2085 27.8186 31.6521 28.1476 31.1035C28.4766 30.5548 28.8186 30.0149 29.1736 29.4828C29.5295 28.9507 29.8976 28.4281 30.2786 27.9142C30.6597 27.4012 31.0538 26.8969 31.4592 26.4021C31.8655 25.9081 32.283 25.4238 32.7127 24.9498C33.1424 24.4759 33.5833 24.0132 34.0356 23.5609C34.4878 23.1087 34.9514 22.6677 35.4253 22.238C35.8993 21.8083 36.3837 21.3908 36.8785 20.9854C37.3724 20.58 37.8767 20.1859 38.3906 19.8048C38.9045 19.4246 39.428 19.0557 39.9592 18.7007C40.4913 18.3456 41.0321 18.0036 41.5807 17.6746C42.1293 17.3456 42.6858 17.0305 43.25 16.7293C43.8142 16.4281 44.3854 16.1399 44.9635 15.8665C45.5425 15.593 46.1267 15.3344 46.7179 15.0896C47.309 14.8448 47.9063 14.6147 48.5087 14.3995C49.1102 14.1833 49.7179 13.9828 50.3299 13.7979C50.9427 13.6121 51.559 13.4411 52.1797 13.2858C52.8003 13.1304 53.4245 12.9906 54.0512 12.8656C54.6788 12.7406 55.309 12.6312 55.9418 12.5375C56.5747 12.4437 57.2101 12.3656 57.8464 12.3031C58.4826 12.2406 59.1207 12.1929 59.7595 12.1616C60.3993 12.1304 61.0382 12.1147 61.678 12.1147C62.3177 12.1147 62.9575 12.1304 63.5964 12.1616C64.2352 12.1929 64.8733 12.2406 65.5095 12.3031C66.1467 12.3656 66.7813 12.4437 67.4141 12.5375C68.0469 12.6312 68.6771 12.7406 69.3047 12.8656C69.9323 12.9906 70.5564 13.1304 71.1771 13.2858C71.7969 13.4411 72.4141 13.6121 73.026 13.7979C73.638 13.9828 74.2457 14.1833 74.8481 14.3995C75.4505 14.6147 76.0469 14.8448 76.638 15.0896C77.2292 15.3344 77.8134 15.593 78.3924 15.8665C78.9705 16.1399 79.5417 16.4281 80.1059 16.7293C80.6701 17.0305 81.2266 17.3456 81.7752 17.6746C82.3247 18.0036 82.8646 18.3456 83.3967 18.7007C83.9288 19.0557 84.4514 19.4246 84.9653 19.8048C85.4792 20.1859 85.9835 20.58 86.4783 20.9854C86.9722 21.3908 87.4566 21.8083 87.9306 22.238C88.4045 22.6677 88.8681 23.1087 89.3203 23.5609C89.7726 24.0132 90.2135 24.4759 90.6432 24.9498C91.0729 25.4238 91.4913 25.9081 91.8967 26.4021C92.303 26.8969 92.6962 27.4012 93.0773 27.9142C93.4583 28.4281 93.8264 28.9507 94.1823 29.4828C94.5373 30.0149 94.8793 30.5548 95.2083 31.1035C95.5373 31.6521 95.8524 32.2085 96.1545 32.7719C96.4557 33.3361 96.7439 33.9073 97.0174 34.4854C97.2908 35.0635 97.5495 35.6486 97.7943 36.2389C98.0391 36.83 98.27 37.4264 98.4852 38.0288C98.7005 38.6312 98.901 39.238 99.0868 39.85C99.2726 40.462 99.4436 41.0783 99.599 41.6989C99.7543 42.3187 99.8941 42.9429 100.019 43.5705C100.144 44.1972 100.253 44.8274 100.347 45.4602C100.441 46.0922 100.519 46.7276 100.582 47.3639C100.645 48.0002 100.692 48.6382 100.723 49.2762C100.754 49.9151 100.77 50.5548 100.77 51.1937Z" fill="#EEEEEE"/>
<path d="M54.8394 66.3056L46.77 44.2891C46.3993 43.276 50.0686 41.9306 50.441 42.9436L58.5104 64.9601C58.882 65.974 55.1302 67.0964 54.8394 66.3056Z" fill="#424242"/>
<path d="M95.9427 69.9716C95.5182 70.7467 95.0686 71.5054 94.5929 72.2502C94.1172 72.9941 93.6172 73.7207 93.092 74.4316C92.5677 75.1417 92.0191 75.8327 91.4471 76.5063C90.875 77.179 90.2813 77.8318 89.6649 78.4646C89.0486 79.0974 88.4123 79.7086 87.7544 80.298C87.0964 80.8874 86.4202 81.4542 85.724 81.9976C85.0278 82.541 84.3143 83.0601 83.5825 83.5558C82.8516 84.0506 82.1042 84.5202 81.3412 84.9655C80.5773 85.4099 79.8004 85.8275 79.0087 86.2198C78.217 86.6113 77.4132 86.9759 76.5964 87.3127C75.7804 87.6504 74.9531 87.9594 74.1163 88.2407C73.2787 88.5219 72.4332 88.7745 71.5781 88.9985C70.724 89.2224 69.8629 89.4169 68.9957 89.5818C68.1276 89.7476 67.2552 89.883 66.3785 89.9898C65.5018 90.0957 64.6224 90.1721 63.7405 90.219C62.8577 90.2658 61.9757 90.2823 61.092 90.2693C60.2092 90.2554 59.3273 90.2129 58.4471 90.14C57.5669 90.0671 56.6901 89.9638 55.8169 89.8309C54.9436 89.699 54.0755 89.5367 53.2136 89.3457C52.3507 89.1539 51.4957 88.9342 50.6485 88.6842C49.8012 88.4351 48.9636 88.1573 48.1346 87.8509C47.3064 87.5454 46.4887 87.2112 45.6832 86.85C44.8776 86.4881 44.0851 86.1 43.3056 85.6842C42.5261 85.2693 41.7613 84.8275 41.0113 84.3605C40.2622 83.8934 39.5295 83.4013 38.8134 82.8848C38.0972 82.3674 37.3993 81.8266 36.7196 81.2624C36.0399 80.6981 35.3811 80.1122 34.7413 79.5028C34.1016 78.8943 33.4835 78.2641 32.8863 77.6131C32.2891 76.962 31.7153 76.2919 31.1641 75.6018C30.612 74.9125 30.0851 74.2051 29.5816 73.4794C29.0781 72.7537 28.5998 72.0115 28.1467 71.2537C27.6936 70.4959 27.2674 69.7233 26.8663 68.936C30.1693 65.1651 37.7144 59.0098 51.6511 59.0098C63.1632 59.0098 69.0078 61.14 77.0998 64.0705C83.2743 66.3761 89.5556 68.3431 95.9427 69.9716Z" fill="#FFB300"/>
<path d="M83.1788 41.4245C83.1788 41.6163 83.1693 41.8073 83.1502 41.9983C83.132 42.1901 83.1033 42.3793 83.066 42.5677C83.0287 42.7561 82.9818 42.9418 82.9262 43.1259C82.8707 43.309 82.8056 43.4896 82.7327 43.6675C82.6589 43.8446 82.5773 44.0182 82.4861 44.1875C82.3959 44.3568 82.2969 44.5208 82.191 44.6806C82.0842 44.8403 81.9696 44.9948 81.8481 45.1432C81.7257 45.2917 81.5973 45.4332 81.461 45.5694C81.3255 45.7049 81.1832 45.8333 81.0348 45.9557C80.8863 46.0773 80.7327 46.1918 80.5729 46.2977C80.4132 46.4045 80.2483 46.5035 80.079 46.5938C79.9097 46.684 79.7361 46.7665 79.5591 46.8394C79.382 46.9132 79.2005 46.9774 79.0174 47.0339C78.8334 47.0894 78.6476 47.1363 78.4592 47.1736C78.2709 47.2109 78.0808 47.2387 77.8898 47.2578C77.6988 47.2769 77.507 47.2856 77.3151 47.2856C77.1233 47.2856 76.9315 47.2769 76.7405 47.2578C76.5495 47.2387 76.3594 47.2109 76.171 47.1736C75.9827 47.1363 75.7969 47.0894 75.6129 47.0339C75.4288 46.9774 75.2483 46.9132 75.0712 46.8394C74.8933 46.7665 74.7205 46.684 74.5504 46.5938C74.3811 46.5035 74.217 46.4045 74.0573 46.2977C73.8976 46.1918 73.7431 46.0773 73.5946 45.9557C73.4462 45.8333 73.3047 45.7049 73.1684 45.5694C73.033 45.4332 72.9037 45.2917 72.7821 45.1432C72.6606 44.9948 72.546 44.8403 72.4393 44.6806C72.3325 44.5208 72.2344 44.3568 72.1433 44.1875C72.053 44.0182 71.9714 43.8446 71.8976 43.6675C71.8238 43.4896 71.7596 43.309 71.704 43.1259C71.6476 42.9418 71.6016 42.7561 71.5634 42.5677C71.5261 42.3793 71.4983 42.1901 71.4792 41.9983C71.461 41.8073 71.4514 41.6163 71.4514 41.4245C71.4514 41.2318 71.461 41.0408 71.4792 40.8498C71.4983 40.6589 71.5261 40.4688 71.5634 40.2804C71.6016 40.092 71.6476 39.9063 71.704 39.7222C71.7596 39.5391 71.8238 39.3585 71.8976 39.1806C71.9714 39.0035 72.053 38.8299 72.1433 38.6606C72.2344 38.4913 72.3325 38.3273 72.4393 38.1675C72.546 38.0078 72.6606 37.8542 72.7821 37.7057C72.9037 37.5573 73.033 37.4149 73.1684 37.2795C73.3047 37.1432 73.4462 37.0148 73.5946 36.8924C73.7431 36.7708 73.8976 36.6571 74.0573 36.5503C74.217 36.4436 74.3811 36.3446 74.5504 36.2543C74.7205 36.1641 74.8933 36.0816 75.0712 36.0087C75.2483 35.9349 75.4288 35.8707 75.6129 35.8142C75.7969 35.7587 75.9827 35.7127 76.171 35.6745C76.3594 35.6372 76.5495 35.6094 76.7405 35.5903C76.9315 35.572 77.1233 35.5625 77.3151 35.5625C77.507 35.5625 77.6988 35.572 77.8898 35.5903C78.0808 35.6094 78.2709 35.6372 78.4592 35.6745C78.6476 35.7127 78.8334 35.7587 79.0174 35.8142C79.2005 35.8707 79.382 35.9349 79.5591 36.0087C79.7361 36.0816 79.9097 36.1641 80.079 36.2543C80.2483 36.3446 80.4132 36.4436 80.5729 36.5503C80.7327 36.6571 80.8863 36.7708 81.0348 36.8924C81.1832 37.0148 81.3255 37.1432 81.461 37.2795C81.5973 37.4149 81.7257 37.5573 81.8481 37.7057C81.9696 37.8542 82.0842 38.0078 82.191 38.1675C82.2969 38.3273 82.3959 38.4913 82.4861 38.6606C82.5773 38.8299 82.6589 39.0035 82.7327 39.1806C82.8056 39.3585 82.8707 39.5391 82.9262 39.7222C82.9818 39.9063 83.0287 40.092 83.066 40.2804C83.1033 40.4688 83.132 40.6589 83.1502 40.8498C83.1693 41.0408 83.1788 41.2318 83.1788 41.4245Z" fill="#FFB300"/>
<path d="M77.3151 33.6086C77.4436 33.6086 77.5703 33.5955 77.6962 33.5712C77.822 33.5461 77.9444 33.5087 78.0634 33.4601C78.1814 33.4106 78.2943 33.3507 78.401 33.2796C78.5078 33.2075 78.6068 33.1268 78.697 33.0365C78.7882 32.9454 78.8689 32.8464 78.9401 32.7396C79.0113 32.6337 79.072 32.5209 79.1206 32.402C79.1701 32.2839 79.2075 32.1615 79.2318 32.0356C79.2569 31.9098 79.27 31.783 79.27 31.6546V29.7006C79.27 29.5721 79.2569 29.4454 79.2318 29.3195C79.2066 29.1936 79.1701 29.0712 79.1206 28.9523C79.072 28.8343 79.0113 28.7214 78.9401 28.6146C78.8689 28.5079 78.7882 28.4098 78.697 28.3186C78.6059 28.2284 78.5078 28.1468 78.401 28.0756C78.2943 28.0044 78.1814 27.9445 78.0634 27.895C77.9444 27.8464 77.822 27.8091 77.6962 27.7839C77.5703 27.7587 77.4436 27.7466 77.3151 27.7466C77.1866 27.7466 77.0599 27.7587 76.934 27.7839C76.8081 27.8091 76.6858 27.8464 76.5668 27.895C76.4488 27.9445 76.3359 28.0044 76.2292 28.0756C76.1224 28.1468 76.0234 28.2284 75.9331 28.3186C75.842 28.4098 75.7613 28.5079 75.6901 28.6146C75.618 28.7214 75.5581 28.8343 75.5095 28.9523C75.4601 29.0712 75.4227 29.1936 75.3976 29.3195C75.3733 29.4454 75.3602 29.5721 75.3602 29.7006V31.6546C75.3602 31.783 75.3724 31.9098 75.3976 32.0356C75.4227 32.1615 75.4601 32.2839 75.5087 32.402C75.5581 32.5209 75.618 32.6337 75.6892 32.7396C75.7613 32.8464 75.842 32.9454 75.9323 33.0365C76.0234 33.1268 76.1224 33.2075 76.2292 33.2796C76.3359 33.3507 76.4479 33.4106 76.5668 33.4601C76.6858 33.5087 76.8073 33.5461 76.934 33.5712C77.0599 33.5955 77.1866 33.6086 77.3151 33.6086Z" fill="#FF9800"/>
<path d="M77.3151 49.2397C77.1866 49.2397 77.0599 49.2528 76.934 49.2779C76.8073 49.3022 76.6858 49.3396 76.5668 49.3891C76.4479 49.4377 76.3359 49.4984 76.2292 49.5696C76.1224 49.6408 76.0234 49.7215 75.9323 49.8127C75.842 49.9029 75.7613 50.0019 75.6892 50.1087C75.618 50.2154 75.5581 50.3274 75.5087 50.4463C75.4601 50.5644 75.4227 50.6868 75.3976 50.8127C75.3724 50.9385 75.3602 51.0661 75.3602 51.1937V53.1477C75.3602 53.2762 75.3733 53.4038 75.3976 53.5297C75.4227 53.6547 75.4601 53.7771 75.5095 53.896C75.5581 54.0141 75.618 54.1269 75.6901 54.2337C75.7613 54.3404 75.842 54.4394 75.9331 54.5297C76.0234 54.6208 76.1224 54.7016 76.2292 54.7727C76.3359 54.8439 76.4488 54.9038 76.5668 54.9533C76.6858 55.0028 76.8081 55.0392 76.934 55.0644C77.0599 55.0896 77.1866 55.1017 77.3151 55.1017C77.4436 55.1017 77.5703 55.0896 77.6962 55.0644C77.822 55.0392 77.9444 55.0028 78.0634 54.9533C78.1814 54.9038 78.2943 54.8439 78.401 54.7727C78.5078 54.7016 78.6059 54.6208 78.697 54.5297C78.7882 54.4394 78.8689 54.3404 78.9401 54.2337C79.0113 54.1269 79.072 54.0141 79.1206 53.896C79.1701 53.7771 79.2066 53.6547 79.2318 53.5297C79.2569 53.4038 79.27 53.2762 79.27 53.1477V51.1937C79.27 51.0661 79.2569 50.9385 79.2318 50.8127C79.2075 50.6868 79.1701 50.5644 79.1206 50.4463C79.072 50.3274 79.0113 50.2154 78.9401 50.1087C78.8689 50.0019 78.7882 49.9029 78.697 49.8127C78.6068 49.7215 78.5078 49.6408 78.401 49.5696C78.2943 49.4984 78.1814 49.4377 78.0634 49.3891C77.9444 49.3396 77.822 49.3022 77.6962 49.2779C77.5703 49.2528 77.4436 49.2397 77.3151 49.2397Z" fill="#FF9800"/>
<path d="M89.0425 39.4707H87.0877C86.9601 39.4707 86.8325 39.4829 86.7066 39.508C86.5807 39.5332 86.4583 39.5697 86.3403 39.6191C86.2213 39.6686 86.1085 39.7285 86.0017 39.7997C85.895 39.8709 85.7969 39.9516 85.7057 40.0428C85.6154 40.133 85.5338 40.232 85.4627 40.3388C85.3915 40.4455 85.3316 40.5584 85.2821 40.6764C85.2335 40.7954 85.1962 40.9169 85.171 41.0428C85.1458 41.1686 85.1337 41.2962 85.1337 41.4247C85.1337 41.5523 85.1458 41.6799 85.171 41.8058C85.1962 41.9316 85.2335 42.0532 85.2821 42.1721C85.3316 42.291 85.3915 42.403 85.4627 42.5098C85.5338 42.6165 85.6154 42.7155 85.7057 42.8058C85.7969 42.8969 85.895 42.9776 86.0017 43.0488C86.1085 43.12 86.2213 43.1808 86.3403 43.2294C86.4583 43.2789 86.5807 43.3153 86.7066 43.3405C86.8325 43.3657 86.9601 43.3787 87.0877 43.3787H89.0425C89.171 43.3787 89.2977 43.3657 89.4236 43.3405C89.5495 43.3153 89.6719 43.2789 89.7908 43.2294C89.9088 43.1808 90.0217 43.12 90.1285 43.0488C90.2352 42.9776 90.3342 42.8969 90.4245 42.8058C90.5156 42.7155 90.5963 42.6165 90.6675 42.5098C90.7387 42.403 90.7995 42.291 90.8481 42.1721C90.8976 42.0532 90.9349 41.9316 90.9601 41.8058C90.9844 41.6799 90.9974 41.5523 90.9974 41.4247C90.9974 41.2962 90.9844 41.1686 90.9601 41.0428C90.9349 40.9169 90.8976 40.7954 90.8481 40.6764C90.7995 40.5584 90.7387 40.4455 90.6675 40.3388C90.5963 40.232 90.5156 40.133 90.4245 40.0428C90.3342 39.9516 90.2352 39.8709 90.1285 39.7997C90.0217 39.7285 89.9088 39.6686 89.7908 39.6191C89.6719 39.5697 89.5495 39.5332 89.4236 39.508C89.2977 39.4829 89.171 39.4707 89.0425 39.4707Z" fill="#FF9800"/>
<path d="M69.4965 41.4247C69.4965 41.2962 69.4844 41.1686 69.4592 41.0428C69.434 40.9169 69.3967 40.7954 69.3481 40.6764C69.2986 40.5584 69.2387 40.4455 69.1675 40.3388C69.0964 40.232 69.0148 40.133 68.9245 40.0428C68.8333 39.9516 68.7344 39.8709 68.6276 39.7997C68.5208 39.7285 68.4089 39.6678 68.2899 39.6191C68.171 39.5697 68.0495 39.5332 67.9236 39.508C67.7977 39.4829 67.6701 39.4707 67.5417 39.4707H65.5877C65.4592 39.4707 65.3316 39.4829 65.2057 39.508C65.0799 39.5332 64.9575 39.5697 64.8394 39.6191C64.7205 39.6686 64.6076 39.7285 64.5017 39.7997C64.395 39.8709 64.296 39.9516 64.2049 40.0428C64.1146 40.133 64.033 40.232 63.9618 40.3388C63.8906 40.4455 63.8307 40.5584 63.7813 40.6764C63.7326 40.7954 63.6953 40.9169 63.6701 41.0428C63.645 41.1686 63.6328 41.2962 63.6328 41.4247C63.6328 41.5523 63.645 41.6799 63.6701 41.8058C63.6953 41.9316 63.7326 42.0532 63.7813 42.1721C63.8307 42.291 63.8906 42.403 63.9618 42.5098C64.033 42.6165 64.1146 42.7155 64.2049 42.8058C64.296 42.8969 64.395 42.9776 64.5017 43.0488C64.6076 43.12 64.7205 43.1808 64.8394 43.2294C64.9575 43.2789 65.0799 43.3153 65.2057 43.3405C65.3316 43.3657 65.4592 43.3787 65.5877 43.3787H67.5417C67.6701 43.3787 67.7977 43.3657 67.9236 43.3405C68.0495 43.3162 68.171 43.2789 68.2899 43.2294C68.4089 43.1808 68.5208 43.12 68.6276 43.0488C68.7344 42.9776 68.8333 42.8969 68.9245 42.8058C69.0148 42.7155 69.0964 42.6165 69.1675 42.5098C69.2387 42.403 69.2986 42.291 69.3481 42.1721C69.3967 42.054 69.434 41.9316 69.4592 41.8058C69.4844 41.6799 69.4965 41.5523 69.4965 41.4247Z" fill="#FF9800"/>
<path d="M69.0226 35.8985C69.1128 35.9888 69.2118 36.0696 69.3186 36.1407C69.4253 36.211 69.5373 36.2709 69.6562 36.3204C69.7743 36.369 69.8967 36.4064 70.0226 36.4307C70.1484 36.4558 70.2752 36.468 70.4036 36.468C70.5312 36.468 70.6588 36.455 70.7838 36.4298C70.9097 36.4046 71.0321 36.3682 71.1502 36.3187C71.2691 36.2701 71.3811 36.2093 71.4878 36.1381C71.5946 36.0669 71.6927 35.9862 71.7838 35.8959C71.8741 35.8048 71.9549 35.7067 72.026 35.5999C72.0981 35.4932 72.158 35.3812 72.2066 35.2623C72.2561 35.1442 72.2934 35.0227 72.3186 34.8968C72.3437 34.7709 72.3559 34.6442 72.3559 34.5157C72.3559 34.3881 72.3437 34.2605 72.3186 34.1355C72.2943 34.0097 72.2569 33.8873 72.2083 33.7692C72.1597 33.6503 72.0998 33.5383 72.0286 33.4315C71.9575 33.3248 71.8767 33.2258 71.7865 33.1355L70.4045 31.7536C70.3134 31.6624 70.2144 31.5817 70.1085 31.5105C70.0017 31.4393 69.8889 31.3786 69.77 31.3291C69.6519 31.2805 69.5295 31.2432 69.4036 31.218C69.2778 31.1928 69.1502 31.1807 69.0217 31.1807C68.8932 31.1807 68.7665 31.1928 68.6406 31.218C68.5148 31.2432 68.3924 31.2796 68.2734 31.3291C68.1554 31.3777 68.0425 31.4385 67.9358 31.5097C67.829 31.5808 67.73 31.6616 67.6389 31.7527C67.5486 31.843 67.467 31.9419 67.3958 32.0487C67.3246 32.1555 67.2648 32.2683 67.2153 32.3864C67.1667 32.5053 67.1293 32.6277 67.1042 32.7536C67.079 32.8794 67.0668 33.0062 67.0668 33.1347C67.0668 33.2631 67.079 33.3907 67.1042 33.5166C67.1293 33.6425 67.1667 33.764 67.2161 33.8829C67.2648 34.001 67.3255 34.1138 67.3967 34.2206C67.4679 34.3274 67.5495 34.4263 67.6406 34.5166L69.0226 35.8985Z" fill="#FF9800"/>
<path d="M85.6076 46.9507C85.5174 46.8595 85.4184 46.7788 85.3116 46.7085C85.2049 46.6373 85.092 46.5774 84.974 46.5279C84.855 46.4793 84.7335 46.4429 84.6076 46.4177C84.4818 46.3925 84.355 46.3804 84.2266 46.3804C84.0981 46.3804 83.9714 46.3934 83.8455 46.4186C83.7196 46.4437 83.5981 46.4802 83.4792 46.5297C83.3611 46.5783 83.2483 46.6391 83.1424 46.7102C83.0356 46.7814 82.9366 46.8621 82.8464 46.9524C82.7561 47.0436 82.6745 47.1417 82.6033 47.2484C82.5321 47.3552 82.4722 47.4672 82.4227 47.5861C82.3741 47.7042 82.3368 47.8266 82.3116 47.9516C82.2865 48.0774 82.2743 48.2042 82.2734 48.3326C82.2734 48.4611 82.2865 48.5878 82.3108 48.7137C82.3359 48.8387 82.3724 48.9611 82.4219 49.0792C82.4705 49.1981 82.5304 49.3109 82.6016 49.4168C82.6727 49.5236 82.7535 49.6226 82.8438 49.7137L84.2257 51.0948C84.3168 51.1859 84.4149 51.2667 84.5217 51.3378C84.6285 51.409 84.7413 51.4689 84.8594 51.5184C84.9783 51.5679 85.1007 51.6043 85.2266 51.6295C85.3524 51.6547 85.4792 51.6668 85.6076 51.6668C85.7361 51.6668 85.8628 51.6547 85.9887 51.6295C86.1146 51.6043 86.237 51.5679 86.3559 51.5184C86.474 51.4689 86.5868 51.409 86.6936 51.3378C86.8003 51.2667 86.8993 51.1859 86.9896 51.0948C87.0807 51.0045 87.1615 50.9055 87.2326 50.7988C87.3038 50.692 87.3646 50.5792 87.4132 50.4611C87.4627 50.3422 87.4991 50.2206 87.5243 50.0948C87.5495 49.9689 87.5625 49.8413 87.5625 49.7137C87.5625 49.5852 87.5495 49.4576 87.5243 49.3318C87.4991 49.2068 87.4627 49.0844 87.4132 48.9654C87.3646 48.8474 87.3038 48.7345 87.2326 48.6278C87.1615 48.521 87.0807 48.4229 86.9896 48.3318L85.6076 46.9507Z" fill="#FF9800"/>
<path d="M86.9896 31.7537C86.8993 31.6625 86.8004 31.5818 86.6936 31.5106C86.5868 31.4395 86.474 31.3796 86.3559 31.3301C86.237 31.2806 86.1146 31.2441 85.9887 31.219C85.8629 31.1938 85.7361 31.1816 85.6077 31.1816C85.4792 31.1816 85.3525 31.1938 85.2266 31.219C85.1007 31.2441 84.9783 31.2806 84.8594 31.3301C84.7413 31.3796 84.6285 31.4395 84.5217 31.5106C84.415 31.5818 84.3169 31.6625 84.2257 31.7537L82.8438 33.1348C82.7535 33.2259 82.6728 33.3249 82.6016 33.4316C82.5304 33.5375 82.4705 33.6504 82.4219 33.7693C82.3724 33.8874 82.336 34.0098 82.3108 34.1356C82.2865 34.2606 82.2735 34.3882 82.2743 34.5158C82.2743 34.6443 82.2865 34.7711 82.3117 34.8969C82.3368 35.0219 82.3742 35.1443 82.4228 35.2624C82.4722 35.3813 82.5321 35.4933 82.6033 35.6C82.6745 35.7068 82.7561 35.8049 82.8464 35.8961C82.9367 35.9863 83.0356 36.0671 83.1424 36.1382C83.2492 36.2094 83.3611 36.2702 83.4792 36.3188C83.5981 36.3683 83.7196 36.4047 83.8455 36.4299C83.9714 36.4551 84.0981 36.4681 84.2266 36.4681C84.3551 36.4681 84.4818 36.4559 84.6077 36.4308C84.7335 36.4056 84.8551 36.3691 84.974 36.3205C85.092 36.2711 85.2049 36.2112 85.3117 36.1408C85.4184 36.0697 85.5174 35.9889 85.6077 35.8978L86.9896 34.5167C87.0808 34.4264 87.1615 34.3275 87.2327 34.2207C87.3038 34.1139 87.3646 34.0011 87.4132 33.883C87.4627 33.7641 87.5 33.6426 87.5252 33.5167C87.5495 33.3908 87.5625 33.2632 87.5625 33.1356C87.5625 33.0072 87.5495 32.8796 87.5252 32.7537C87.5 32.6278 87.4627 32.5063 87.4132 32.3874C87.3646 32.2693 87.3038 32.1565 87.2327 32.0497C87.1615 31.9429 87.0808 31.8448 86.9896 31.7537Z" fill="#FF9800"/>
<path d="M69.0225 46.9507L67.6406 48.3318C67.5495 48.4229 67.4687 48.521 67.3975 48.6278C67.3255 48.7345 67.2656 48.8474 67.217 48.9654C67.1675 49.0844 67.1302 49.2059 67.105 49.3318C67.0807 49.4576 67.0677 49.5852 67.0677 49.7137C67.0677 49.8413 67.0807 49.9689 67.105 50.0948C67.1302 50.2206 67.1675 50.3422 67.217 50.4611C67.2656 50.5792 67.3255 50.692 67.3975 50.7988C67.4687 50.9055 67.5495 51.0045 67.6406 51.0948C67.7309 51.1859 67.8298 51.2667 67.9366 51.3378C68.0434 51.409 68.1554 51.4689 68.2743 51.5184C68.3932 51.567 68.5147 51.6043 68.6406 51.6295C68.7665 51.6547 68.8941 51.6668 69.0225 51.6668C69.1502 51.6668 69.2778 51.6547 69.4036 51.6295C69.5295 51.6043 69.6519 51.567 69.7699 51.5184C69.8889 51.4689 70.0017 51.409 70.1076 51.3378C70.2144 51.2667 70.3133 51.1859 70.4045 51.0948L71.7864 49.7137C71.8767 49.6226 71.9574 49.5236 72.0286 49.4168C72.0998 49.3109 72.1597 49.1981 72.2083 49.0792C72.2569 48.9611 72.2943 48.8387 72.3186 48.7137C72.3437 48.5878 72.3559 48.4611 72.3559 48.3326C72.3559 48.2042 72.3437 48.0774 72.3186 47.9516C72.2934 47.8266 72.2561 47.7042 72.2066 47.5861C72.158 47.4672 72.0981 47.3552 72.026 47.2484C71.9548 47.1417 71.8741 47.0436 71.7838 46.9524C71.6927 46.8621 71.5946 46.7814 71.4878 46.7102C71.3811 46.6391 71.2691 46.5783 71.1502 46.5297C71.0321 46.4802 70.9097 46.4437 70.7838 46.4186C70.6588 46.3934 70.5312 46.3804 70.4036 46.3804C70.2752 46.3804 70.1484 46.3925 70.0225 46.4177C69.8967 46.4429 69.7743 46.4793 69.6562 46.5279C69.5373 46.5774 69.4253 46.6373 69.3186 46.7085C69.2118 46.7788 69.1128 46.8595 69.0225 46.9507Z" fill="#FF9800"/>
<path d="M89.6875 76.5956C88.2578 76.6129 86.8507 76.4419 85.4662 76.0834C84.0816 75.7249 82.7682 75.1911 81.5269 74.481C81.382 74.395 81.2274 74.3299 81.0651 74.2848C80.9019 74.2397 80.7361 74.2162 80.5677 74.2154C80.3985 74.2145 80.2327 74.2353 80.0695 74.2787C79.9063 74.3221 79.7518 74.3855 79.6059 74.4697C78.3689 75.1746 77.0625 75.7067 75.6858 76.0678C74.309 76.428 72.9097 76.6042 71.4861 76.5956H71.4262C69.9983 76.6129 68.5929 76.4419 67.2101 76.0834C65.8281 75.7258 64.5165 75.1919 63.2769 74.4836C63.1294 74.3959 62.9722 74.3291 62.8073 74.2839C62.6415 74.2388 62.4731 74.2162 62.3012 74.2171C62.1302 74.218 61.9618 74.2414 61.796 74.2874C61.6311 74.3334 61.4748 74.4003 61.3281 74.4888C60.7066 74.8334 60.066 75.1372 59.4063 75.4003C58.7465 75.6633 58.0729 75.8838 57.3854 76.0617C56.6971 76.2388 56.0009 76.3725 55.2969 76.4619C54.592 76.5513 53.8846 76.5964 53.1745 76.5956C52.4636 76.5956 51.7561 76.5504 51.0521 76.461C50.3472 76.3707 49.6511 76.2362 48.9636 76.0582C48.2761 75.8803 47.6024 75.6589 46.9427 75.3959C46.283 75.132 45.6432 74.8282 45.0217 74.4836C44.875 74.3959 44.7188 74.3299 44.5538 74.2848C44.3898 74.2397 44.2214 74.2171 44.0504 74.2171C43.8802 74.2171 43.7118 74.2397 43.5469 74.2848C43.3828 74.3299 43.2266 74.3959 43.0799 74.4836C41.8386 75.1919 40.5261 75.7249 39.1424 76.0834C37.7587 76.4419 36.3524 76.6129 34.9236 76.5956C33.9306 76.5956 32.9375 76.5721 31.9601 76.5174C32.4158 77.0539 32.8854 77.5782 33.3698 78.0904C33.8542 78.6016 34.3516 79.0999 34.8629 79.5843C35.3741 80.0687 35.8976 80.5391 36.434 80.9949C36.9714 81.4515 37.52 81.8924 38.0807 82.3195C38.6415 82.7457 39.2127 83.1563 39.796 83.5522C40.3785 83.9471 40.9722 84.3265 41.5755 84.6902C42.1788 85.053 42.7917 85.4003 43.4141 85.7301C44.0365 86.06 44.6675 86.3733 45.3064 86.6694C45.9462 86.9645 46.5929 87.2431 47.2474 87.5036C47.9019 87.7648 48.5625 88.0079 49.23 88.2327C49.8976 88.4575 50.5712 88.6641 51.25 88.8525C51.9288 89.0409 52.612 89.211 53.2995 89.3621C53.9879 89.514 54.6797 89.6468 55.375 89.7605C56.0703 89.8742 56.7674 89.9697 57.4679 90.0452C58.1684 90.1216 58.8707 90.1789 59.5738 90.2162C60.2769 90.2544 60.9809 90.2735 61.6858 90.2735C62.3898 90.2735 63.0938 90.2544 63.7978 90.2154C64.5009 90.1772 65.2031 90.1199 65.9028 90.0435C66.6033 89.9671 67.3012 89.8725 67.9965 89.7579C68.6919 89.6442 69.3828 89.5105 70.0712 89.3595C70.7587 89.2075 71.4419 89.0374 72.1207 88.849C72.7995 88.6598 73.4731 88.4532 74.1406 88.2275C74.8082 88.0027 75.4688 87.7596 76.1233 87.4983C76.7769 87.2371 77.4236 86.9593 78.0634 86.6624C78.7023 86.3664 79.3333 86.0539 79.9549 85.7232C80.5773 85.3933 81.1901 85.0461 81.7934 84.6824C82.3967 84.3187 82.9905 83.9393 83.5729 83.5435C84.1554 83.1485 84.7274 82.7371 85.2882 82.31C85.8481 81.8838 86.3967 81.4419 86.9332 80.9862C87.4696 80.5296 87.9939 80.0591 88.5044 79.5739C89.0156 79.0895 89.513 78.5912 89.9974 78.0791C90.4809 77.5678 90.9505 77.0435 91.4063 76.5062C90.8403 76.5608 90.2682 76.5956 89.6875 76.5956Z" fill="#2196F3"/>
<path d="M93.3038 74.1339C92.1684 75.7042 90.9175 77.1755 89.5512 78.5497C88.1423 78.5566 86.7569 78.3813 85.3949 78.0236C84.033 77.666 82.7404 77.1373 81.5173 76.4394C81.3724 76.3535 81.2196 76.2884 81.0573 76.2433C80.8949 76.1981 80.73 76.1747 80.5625 76.1729C80.3941 76.1712 80.2283 76.1912 80.0659 76.2337C79.9028 76.2754 79.7482 76.337 79.6015 76.4195C78.3672 77.1243 77.0616 77.6573 75.6866 78.0184C74.3107 78.3795 72.9123 78.5566 71.4904 78.5497H71.4314C70.0034 78.5688 68.5972 78.3995 67.2144 78.041C65.8316 77.6834 64.5208 77.1495 63.2812 76.4394C63.1328 76.3526 62.9757 76.2875 62.8099 76.2424C62.6441 76.1981 62.4748 76.1755 62.3038 76.1755C62.1319 76.1755 61.9635 76.1981 61.7977 76.2424C61.6319 76.2875 61.4748 76.3526 61.3264 76.4394C60.7057 76.7841 60.0651 77.0879 59.4054 77.3518C58.7465 77.6148 58.0729 77.8361 57.3854 78.0141C56.6979 78.192 56.0017 78.3257 55.2977 78.4151C54.5929 78.5054 53.8854 78.5497 53.1753 78.5497C52.4653 78.5497 51.7578 78.5054 51.0538 78.4151C50.3489 78.3257 49.6528 78.192 48.9653 78.0141C48.2778 77.8361 47.605 77.6148 46.9453 77.3518C46.2856 77.0879 45.6458 76.7841 45.0251 76.4394C44.8767 76.3526 44.7196 76.2875 44.5538 76.2424C44.388 76.1981 44.2187 76.1755 44.0477 76.1755C43.8758 76.1755 43.7066 76.1981 43.5416 76.2424C43.3758 76.2875 43.2187 76.3526 43.0703 76.4394C41.8307 77.1495 40.5191 77.6834 39.1363 78.041C37.7534 78.3995 36.3481 78.5688 34.9192 78.5497C34.5286 78.5497 34.1371 78.5497 33.7665 78.5297C32.4913 77.2242 31.3125 75.837 30.2283 74.3683C31.7847 74.5818 33.3489 74.6729 34.9192 74.6417C35.9991 74.6521 37.0625 74.5254 38.1093 74.2606C39.1562 73.9959 40.151 73.6018 41.0963 73.0783C41.3185 72.9472 41.5486 72.8309 41.7864 72.7302C42.0243 72.6304 42.2682 72.5453 42.5173 72.4776C42.7665 72.4099 43.0199 72.3587 43.276 72.324C43.5321 72.2893 43.789 72.2728 44.0477 72.2728C44.3055 72.2728 44.5633 72.2893 44.8194 72.324C45.0755 72.3587 45.3281 72.4099 45.5772 72.4776C45.8264 72.5453 46.0703 72.6304 46.3081 72.7302C46.546 72.8309 46.776 72.9472 46.9991 73.0783C47.9435 73.6009 48.9392 73.9941 49.9861 74.2589C51.033 74.5236 52.0955 74.6512 53.1753 74.6417C54.256 74.6564 55.3194 74.5314 56.3663 74.2658C57.414 74.0011 58.4088 73.6052 59.3524 73.0783C59.5746 72.9472 59.8047 72.8309 60.0425 72.7311C60.2804 72.6304 60.5243 72.5453 60.7734 72.4776C61.0225 72.4099 61.276 72.3587 61.5321 72.324C61.7882 72.2893 62.0451 72.2728 62.3038 72.2728C62.5616 72.2728 62.8194 72.2893 63.0755 72.324C63.3316 72.3587 63.5842 72.4099 63.8333 72.4776C64.0824 72.5453 64.3264 72.6304 64.5642 72.7311C64.8021 72.8309 65.0321 72.9472 65.2552 73.0783C66.1996 73.6018 67.1953 73.9959 68.2422 74.2606C69.2882 74.5254 70.3515 74.6521 71.4314 74.6417C72.5147 74.6452 73.5807 74.5132 74.6302 74.245C75.6797 73.9768 76.6788 73.5818 77.6276 73.0592C77.8489 72.9273 78.079 72.811 78.3159 72.7103C78.5538 72.6096 78.7968 72.5254 79.0451 72.4577C79.2942 72.39 79.546 72.3387 79.8021 72.3049C80.0573 72.271 80.3142 72.2545 80.572 72.2554C80.8298 72.2563 81.0868 72.2745 81.342 72.3101C81.5972 72.3457 81.8489 72.3978 82.0972 72.4672C82.3455 72.5375 82.5885 72.6235 82.8246 72.725C83.0616 72.8275 83.2899 72.9455 83.5113 73.0783C84.4557 73.6018 85.4514 73.9959 86.4982 74.2606C87.5451 74.5254 88.6076 74.653 89.6875 74.6417C90.9175 74.6443 92.1224 74.475 93.3038 74.1339Z" fill="#1976D2"/>
<path d="M42.7352 33.2811L41.3906 29.6119C41.3463 29.4912 41.3142 29.3671 41.2951 29.2412C41.2751 29.1145 41.2682 28.9869 41.2734 28.8584C41.2795 28.7308 41.2968 28.604 41.3272 28.4799C41.3576 28.3549 41.4001 28.2351 41.4539 28.1188C41.5078 28.0025 41.5729 27.8922 41.6484 27.7889C41.7239 27.6856 41.809 27.5902 41.9036 27.5033C41.9974 27.4165 42.0998 27.3402 42.2092 27.2733C42.3185 27.2065 42.4331 27.1509 42.5538 27.1066C42.6744 27.0632 42.7977 27.0311 42.9244 27.0112C43.0512 26.9912 43.1788 26.9843 43.3064 26.9895C43.4349 26.9947 43.5607 27.012 43.6857 27.0424C43.8107 27.0719 43.9305 27.1145 44.0468 27.1683C44.164 27.2221 44.2734 27.2863 44.3776 27.3619C44.4809 27.4374 44.5763 27.5224 44.6632 27.6162C44.75 27.7108 44.8272 27.8124 44.8941 27.9218C44.9609 28.0311 45.0164 28.1457 45.0607 28.2664L46.4053 31.9356C46.7769 32.9495 43.0251 34.0719 42.7352 33.2811Z" fill="#424242"/>
<path d="M61.4531 38.9099C61.2986 38.4906 61.125 38.08 60.9305 37.6781C60.7361 37.2753 60.5234 36.8838 60.2908 36.5019C60.0581 36.1208 59.8073 35.751 59.5382 35.3942C59.2699 35.0375 58.9843 34.6946 58.6823 34.3656C58.3793 34.0366 58.0616 33.7232 57.7291 33.4255C57.3958 33.1277 57.0486 32.8465 56.6883 32.5826C56.3281 32.3187 55.9548 32.073 55.5703 31.8456C55.1857 31.6182 54.7908 31.4107 54.3863 31.2215C53.9809 31.0331 53.5677 30.8647 53.1467 30.7163C52.7248 30.5678 52.2968 30.4402 51.8628 30.3343C51.4288 30.2276 50.9904 30.1425 50.5486 30.0791C50.1059 30.0158 49.6614 29.9741 49.2152 29.9541C48.7691 29.9342 48.3229 29.9359 47.8767 29.9602C47.4305 29.9836 46.9861 30.0288 46.5442 30.0965C46.1024 30.1633 45.6649 30.2519 45.2317 30.3621C44.7986 30.4724 44.3724 30.6026 43.9522 30.7545C43.8663 30.784 43.7838 30.8178 43.7031 30.8578C43.6284 30.8942 43.5573 30.935 43.4878 30.9802C43.4192 31.0253 43.3533 31.0748 43.2908 31.1286C43.2274 31.1824 43.1684 31.2397 43.1128 31.3013C43.0581 31.3621 43.006 31.4272 42.9592 31.4949C42.9123 31.5626 42.8689 31.6329 42.8307 31.7059C42.7925 31.7788 42.7587 31.8543 42.73 31.9316C42.7014 32.0097 42.6779 32.0878 42.6588 32.1685C42.6406 32.2493 42.6267 32.33 42.618 32.4125C42.6093 32.4949 42.6067 32.5765 42.6085 32.6599C42.6102 32.7423 42.618 32.8239 42.6302 32.9055C42.6423 32.9871 42.6597 33.0678 42.6831 33.1477C42.7057 33.2267 42.7326 33.3039 42.7656 33.3803C42.7977 33.4559 42.835 33.5296 42.8767 33.6008C42.9184 33.672 42.9652 33.7406 43.0156 33.8057C43.0659 33.8708 43.1206 33.9333 43.1788 33.9914C43.237 34.0496 43.2986 34.1043 43.3637 34.1546C46.651 36.6112 49.4852 39.5105 51.8672 42.8517C51.9262 42.9454 51.9922 43.0349 52.0668 43.1173C52.1406 43.2006 52.2213 43.2762 52.3081 43.3456C52.3958 43.4151 52.4878 43.4758 52.5859 43.5296C52.6831 43.5826 52.7847 43.6277 52.8897 43.6642C52.9956 43.6998 53.1024 43.7267 53.2126 43.7441C53.3229 43.7623 53.4331 43.7701 53.5442 43.7692C53.6554 43.7684 53.7665 43.7579 53.8758 43.7371C53.9852 43.7171 54.092 43.6885 54.1962 43.6503L60.2899 41.4177C60.4106 41.3734 60.526 41.3178 60.6354 41.251C60.7448 41.1842 60.8472 41.1078 60.9409 41.0201C61.0356 40.9333 61.1206 40.8387 61.1962 40.7345C61.2725 40.6312 61.3368 40.521 61.3906 40.4046C61.4453 40.2883 61.487 40.1677 61.5173 40.0427C61.5477 39.9185 61.5651 39.7918 61.5703 39.6633C61.5755 39.5357 61.5685 39.4081 61.5486 39.2814C61.5286 39.1546 61.4974 39.0305 61.4531 38.9099Z" fill="#FFB300"/>
<path d="M45.7465 31.1721C45.6137 31.0567 45.4679 30.962 45.309 30.8865C45.1502 30.811 44.9844 30.7581 44.8116 30.7268C44.6389 30.6964 44.4644 30.6895 44.2899 30.706C44.1146 30.7225 43.9453 30.7615 43.7812 30.8232C43.3654 30.9811 42.9574 31.1591 42.559 31.357C42.1606 31.5549 41.7726 31.7711 41.3949 32.0072C41.0173 32.2424 40.6519 32.4959 40.2986 32.7667C39.9462 33.0376 39.6068 33.3249 39.2821 33.6287C38.9574 33.9325 38.6476 34.252 38.3533 34.5862C38.0599 34.9195 37.783 35.2676 37.5226 35.6287C37.263 35.9898 37.0208 36.3622 36.7969 36.7468C36.5729 37.1313 36.368 37.5254 36.1831 37.9299C35.9974 38.3344 35.8324 38.7468 35.6866 39.1678C35.5416 39.5879 35.4175 40.015 35.3134 40.4473C35.2101 40.8796 35.1276 41.3162 35.066 41.7572C35.0052 42.1982 34.9653 42.6409 34.947 43.0853C34.9288 43.5298 34.9323 43.9742 34.9574 44.4178C34.9826 44.8622 35.0286 45.3041 35.0972 45.7433C35.1649 46.1834 35.2543 46.6183 35.3646 47.0497C35.4757 47.4803 35.6068 47.9048 35.7587 48.3232C35.8029 48.4438 35.8585 48.5584 35.9253 48.6686C35.9922 48.778 36.0686 48.8796 36.1554 48.9742C36.243 49.0688 36.3377 49.1539 36.4418 49.2294C36.5451 49.3049 36.6554 49.3692 36.7717 49.4239C36.888 49.4777 37.0087 49.5193 37.1337 49.5497C37.2587 49.5801 37.3845 49.5975 37.513 49.6027C37.6415 49.6079 37.7691 49.6009 37.8958 49.581C38.0226 49.5619 38.1458 49.5298 38.2665 49.4855L44.3594 47.2528C44.4635 47.2147 44.5642 47.1678 44.6606 47.1122C44.7569 47.0567 44.8481 46.9942 44.934 46.923C45.0199 46.8518 45.0989 46.7745 45.171 46.6895C45.243 46.6053 45.3081 46.515 45.3654 46.4195C45.4219 46.324 45.4705 46.2251 45.5104 46.1209C45.5503 46.0167 45.5816 45.9108 45.6033 45.8015C45.625 45.6929 45.6371 45.5827 45.6406 45.4716C45.6432 45.3605 45.6371 45.2494 45.6215 45.1391C45.2448 41.0749 45.4974 37.0497 46.3811 33.0636C46.4175 32.8917 46.4314 32.719 46.4219 32.5436C46.4123 32.3683 46.3793 32.1973 46.3238 32.0306C46.2673 31.864 46.191 31.7077 46.0929 31.5619C45.9948 31.4169 45.8793 31.2867 45.7465 31.1721Z" fill="#FFB300"/>
<path d="M55.1805 40.7795C52.5486 37.0503 49.4088 33.8133 45.7613 31.0694C45.6172 30.9679 45.4626 30.8845 45.2977 30.822C45.1328 30.7587 44.9626 30.717 44.7873 30.6962C44.612 30.6753 44.4366 30.6771 44.2621 30.7005C44.0868 30.7231 43.9175 30.7682 43.7534 30.8333C43.6041 30.8923 43.4635 30.9687 43.3324 31.0625C43.2014 31.1562 43.0842 31.2639 42.98 31.3871C42.8758 31.5095 42.7882 31.6423 42.717 31.7873C42.6458 31.9314 42.5937 32.0816 42.5599 32.2387C42.0703 34.4462 41.7578 36.6788 41.6224 38.9357C41.487 41.1927 41.5304 43.4462 41.7517 45.6962C41.7743 45.8402 41.8107 45.9791 41.8637 46.1146C41.9166 46.2491 41.9835 46.3767 42.0642 46.4974C42.1449 46.618 42.2378 46.7283 42.3437 46.8272C42.4488 46.9271 42.5633 47.0147 42.6883 47.0885C42.8125 47.1632 42.9444 47.2231 43.0816 47.2682C43.2196 47.3133 43.3611 47.3437 43.5052 47.3576C43.6493 47.3715 43.7934 47.3698 43.9375 47.3524C44.0816 47.3342 44.2222 47.3012 44.3585 47.2526L54.1962 43.6501C54.3324 43.5989 54.4609 43.5338 54.5824 43.454C54.704 43.375 54.8151 43.283 54.9158 43.1788C55.0165 43.0746 55.105 42.9609 55.1814 42.8376C55.2569 42.7144 55.3185 42.5833 55.3654 42.4462C55.4123 42.309 55.4444 42.1684 55.46 42.0243C55.4757 41.8802 55.4757 41.7361 55.46 41.592C55.4435 41.4479 55.4123 41.3073 55.3654 41.1701C55.3177 41.033 55.256 40.9027 55.1805 40.7795Z" fill="#F44336"/>
</svg>
