<svg width="120" height="120" viewBox="0 0 120 120" fill="none" xmlns="http://www.w3.org/2000/svg">
<path d="M58.4949 2.44622C57.3308 2.52174 56.1711 2.63893 55.0148 2.79778C53.8594 2.95664 52.7101 3.15716 51.5686 3.39848C50.4271 3.63979 49.2961 3.92104 48.1745 4.24309C47.053 4.56514 45.9445 4.92712 44.849 5.32903C43.7544 5.73094 42.6745 6.17104 41.6103 6.64934C40.5469 7.12851 39.5009 7.645 38.474 8.19882C37.4471 8.75264 36.4419 9.34205 35.4575 9.96792C34.4723 10.5938 33.5113 11.2535 32.5738 11.948C31.6372 12.6433 30.7257 13.3698 29.8403 14.1302C28.9549 14.8898 28.0981 15.6806 27.27 16.5018C26.441 17.323 25.6433 18.1719 24.8759 19.0504C24.1077 19.9289 23.3725 20.8334 22.6693 21.7648C21.9671 22.6954 21.2987 23.6502 20.6641 24.6294C20.0296 25.6085 19.4306 26.6085 18.8681 27.6302C18.3056 28.6519 17.7796 29.6927 17.2917 30.7518C16.8039 31.8117 16.3542 32.8863 15.9428 33.9783C15.5313 35.0695 15.1598 36.1745 14.8282 37.2926C14.4966 38.4106 14.2049 39.54 13.9532 40.6789C13.7023 41.8177 13.4922 42.9645 13.3238 44.1181C13.1546 45.2726 13.027 46.4306 12.941 47.5938C12.8551 48.757 12.8108 49.9219 12.8091 51.0886C12.8065 52.2552 12.8455 53.4202 12.9263 54.5834C13.0079 55.7466 13.1303 56.9063 13.2943 58.0608C13.4584 59.2153 13.6641 60.3629 13.9098 61.5026C14.1563 62.6433 14.4428 63.7726 14.77 64.8924C15.0973 66.0122 15.4645 67.1181 15.8707 68.2119C16.2778 69.3047 16.7231 70.382 17.2067 71.4436C17.6902 72.5053 18.211 73.5478 18.77 74.5721C19.3282 75.5955 19.9228 76.599 20.553 77.5799C21.1832 78.5617 21.8481 79.5191 22.5469 80.4532C23.2457 81.3872 23.9775 82.2952 24.7414 83.1763C25.5053 84.0582 26.2995 84.9115 27.1251 85.7362C34.448 93.8099 48.7822 108.739 57.408 117.886C57.6824 118.175 57.9818 118.434 58.3091 118.662C58.6355 118.891 58.981 119.083 59.3473 119.241C59.7127 119.398 60.0903 119.518 60.4801 119.599C60.8707 119.681 61.2648 119.721 61.6633 119.722C62.0617 119.723 62.4558 119.684 62.8464 119.604C63.237 119.524 63.6155 119.405 63.981 119.247C64.3473 119.089 64.6928 118.895 65.0192 118.666C65.3447 118.437 65.6442 118.176 65.9167 117.885C75.7657 107.471 94.3204 88.0408 94.1294 87.704C95.415 86.5608 96.6372 85.3542 97.7952 84.0825C98.9541 82.8108 100.042 81.4818 101.06 80.0947C102.078 78.7084 103.02 77.2726 103.886 75.7865C104.754 74.3004 105.539 72.7735 106.244 71.2049C106.95 69.6363 107.57 68.0348 108.107 66.4002C108.642 64.7657 109.091 63.1086 109.452 61.4263C109.814 59.7448 110.086 58.0495 110.268 56.3395C110.451 54.6285 110.543 52.9141 110.543 51.1936C111.056 23.7813 85.9289 0.0243433 58.4949 2.44622Z" fill="#86AD36"/>
<path d="M100.77 51.1937C100.77 51.8335 100.754 52.4733 100.723 53.1113C100.692 53.7502 100.645 54.3882 100.582 55.0245C100.519 55.6608 100.441 56.2953 100.347 56.9281C100.253 57.5609 100.144 58.1911 100.019 58.8179C99.8941 59.4455 99.7543 60.0696 99.599 60.6894C99.4436 61.3101 99.2726 61.9264 99.0868 62.5384C98.901 63.1503 98.7005 63.7571 98.4852 64.3595C98.27 64.962 98.0391 65.5583 97.7943 66.1495C97.5495 66.7397 97.2908 67.3248 97.0174 67.9029C96.7439 68.4811 96.4557 69.0522 96.1545 69.6156C95.8524 70.1798 95.5373 70.7363 95.2083 71.2849C94.8793 71.8335 94.5373 72.3734 94.1823 72.9055C93.8264 73.4368 93.4583 73.9602 93.0773 74.4732C92.6962 74.9871 92.303 75.4915 91.8967 75.9854C91.4913 76.4802 91.0729 76.9646 90.6432 77.4385C90.2135 77.9125 89.7726 78.3752 89.3203 78.8274C88.8681 79.2797 88.4045 79.7206 87.9306 80.1503C87.4566 80.5792 86.9722 80.9967 86.4783 81.4029C85.9835 81.8083 85.4792 82.2015 84.9653 82.5826C84.4514 82.9637 83.9288 83.3318 83.3967 83.6877C82.8646 84.0427 82.3247 84.3847 81.7752 84.7137C81.2266 85.0427 80.6701 85.3578 80.1059 85.659C79.5417 85.9602 78.9705 86.2476 78.3924 86.521C77.8134 86.7944 77.2292 87.054 76.638 87.2988C76.0469 87.5436 75.4505 87.7736 74.8481 87.9889C74.2457 88.2042 73.638 88.4047 73.026 88.5904C72.4141 88.7762 71.7969 88.9472 71.1771 89.1026C70.5564 89.258 69.9323 89.3977 69.3047 89.5227C68.6771 89.6477 68.0469 89.7562 67.4141 89.8509C66.7812 89.9446 66.1467 90.0227 65.5095 90.0852C64.8733 90.1477 64.2352 90.1946 63.5964 90.2267C62.9575 90.258 62.3177 90.2736 61.678 90.2736C61.0382 90.2736 60.3993 90.258 59.7595 90.2267C59.1207 90.1946 58.4826 90.1477 57.8464 90.0852C57.2101 90.0227 56.5747 89.9446 55.9418 89.8509C55.309 89.7562 54.6788 89.6477 54.0512 89.5227C53.4245 89.3977 52.8003 89.258 52.1797 89.1026C51.559 88.9472 50.9427 88.7762 50.3299 88.5904C49.7179 88.4047 49.1102 88.2042 48.5087 87.9889C47.9062 87.7736 47.309 87.5436 46.7179 87.2988C46.1267 87.054 45.5425 86.7944 44.9635 86.521C44.3854 86.2476 43.8142 85.9602 43.25 85.659C42.6858 85.3578 42.1293 85.0427 41.5807 84.7137C41.0321 84.3847 40.4913 84.0427 39.9592 83.6877C39.428 83.3318 38.9045 82.9637 38.3906 82.5826C37.8767 82.2015 37.3724 81.8083 36.8785 81.4029C36.3837 80.9967 35.8993 80.5792 35.4253 80.1503C34.9514 79.7206 34.4878 79.2797 34.0356 78.8274C33.5833 78.3752 33.1424 77.9125 32.7127 77.4385C32.283 76.9646 31.8655 76.4802 31.4592 75.9854C31.0538 75.4915 30.6597 74.9871 30.2786 74.4732C29.8976 73.9602 29.5295 73.4368 29.1736 72.9055C28.8186 72.3734 28.4766 71.8335 28.1476 71.2849C27.8186 70.7363 27.5035 70.1798 27.2014 69.6156C26.9002 69.0522 26.6128 68.4811 26.3394 67.9029C26.0651 67.3248 25.8064 66.7397 25.5616 66.1495C25.3168 65.5583 25.0868 64.962 24.8707 64.3595C24.6554 63.7571 24.4549 63.1503 24.2691 62.5384C24.0833 61.9264 23.9132 61.3101 23.7569 60.6894C23.6016 60.0696 23.4618 59.4455 23.3368 58.8179C23.2118 58.1911 23.1024 57.5609 23.0087 56.9281C22.9149 56.2953 22.8368 55.6608 22.7743 55.0245C22.7109 54.3882 22.6641 53.7502 22.6328 53.1113C22.6016 52.4733 22.5859 51.8335 22.5859 51.1937C22.5859 50.5548 22.6016 49.9151 22.6328 49.2762C22.6641 48.6382 22.7109 48.0002 22.7743 47.3639C22.8368 46.7276 22.9149 46.0922 23.0087 45.4602C23.1024 44.8274 23.2118 44.1972 23.3368 43.5705C23.4618 42.9429 23.6016 42.3187 23.7569 41.6989C23.9132 41.0783 24.0833 40.462 24.2691 39.85C24.4549 39.238 24.6554 38.6312 24.8707 38.0288C25.0868 37.4264 25.3168 36.83 25.5616 36.2389C25.8064 35.6486 26.0651 35.0635 26.3394 34.4854C26.6128 33.9073 26.9002 33.3361 27.2014 32.7719C27.5035 32.2085 27.8186 31.6521 28.1476 31.1035C28.4766 30.5548 28.8186 30.0149 29.1736 29.4828C29.5295 28.9507 29.8976 28.4281 30.2786 27.9142C30.6597 27.4012 31.0538 26.8969 31.4592 26.4021C31.8655 25.9081 32.283 25.4238 32.7127 24.9498C33.1424 24.4759 33.5833 24.0132 34.0356 23.5609C34.4878 23.1087 34.9514 22.6677 35.4253 22.238C35.8993 21.8083 36.3837 21.3908 36.8785 20.9854C37.3724 20.58 37.8767 20.1859 38.3906 19.8048C38.9045 19.4246 39.428 19.0557 39.9592 18.7007C40.4913 18.3456 41.0321 18.0036 41.5807 17.6746C42.1293 17.3456 42.6858 17.0305 43.25 16.7293C43.8142 16.4281 44.3854 16.1399 44.9635 15.8665C45.5425 15.593 46.1267 15.3344 46.7179 15.0896C47.309 14.8448 47.9062 14.6147 48.5087 14.3995C49.1102 14.1833 49.7179 13.9828 50.3299 13.7979C50.9427 13.6121 51.559 13.4411 52.1797 13.2858C52.8003 13.1304 53.4245 12.9906 54.0512 12.8656C54.6788 12.7406 55.309 12.6312 55.9418 12.5375C56.5747 12.4437 57.2101 12.3656 57.8464 12.3031C58.4826 12.2406 59.1207 12.1929 59.7595 12.1616C60.3993 12.1304 61.0382 12.1147 61.678 12.1147C62.3177 12.1147 62.9575 12.1304 63.5964 12.1616C64.2352 12.1929 64.8733 12.2406 65.5095 12.3031C66.1467 12.3656 66.7812 12.4437 67.4141 12.5375C68.0469 12.6312 68.6771 12.7406 69.3047 12.8656C69.9323 12.9906 70.5564 13.1304 71.1771 13.2858C71.7969 13.4411 72.4141 13.6121 73.026 13.7979C73.638 13.9828 74.2457 14.1833 74.8481 14.3995C75.4505 14.6147 76.0469 14.8448 76.638 15.0896C77.2292 15.3344 77.8134 15.593 78.3924 15.8665C78.9705 16.1399 79.5417 16.4281 80.1059 16.7293C80.6701 17.0305 81.2266 17.3456 81.7752 17.6746C82.3247 18.0036 82.8646 18.3456 83.3967 18.7007C83.9288 19.0557 84.4514 19.4246 84.9653 19.8048C85.4792 20.1859 85.9835 20.58 86.4783 20.9854C86.9722 21.3908 87.4566 21.8083 87.9306 22.238C88.4045 22.6677 88.8681 23.1087 89.3203 23.5609C89.7726 24.0132 90.2135 24.4759 90.6432 24.9498C91.0729 25.4238 91.4913 25.9081 91.8967 26.4021C92.303 26.8969 92.6962 27.4012 93.0773 27.9142C93.4583 28.4281 93.8264 28.9507 94.1823 29.4828C94.5373 30.0149 94.8793 30.5548 95.2083 31.1035C95.5373 31.6521 95.8524 32.2085 96.1545 32.7719C96.4557 33.3361 96.7439 33.9073 97.0174 34.4854C97.2908 35.0635 97.5495 35.6486 97.7943 36.2389C98.0391 36.83 98.27 37.4264 98.4852 38.0288C98.7005 38.6312 98.901 39.238 99.0868 39.85C99.2726 40.462 99.4436 41.0783 99.599 41.6989C99.7543 42.3187 99.8941 42.9429 100.019 43.5705C100.144 44.1972 100.253 44.8274 100.347 45.4602C100.441 46.0922 100.519 46.7276 100.582 47.3639C100.645 48.0002 100.692 48.6382 100.723 49.2762C100.754 49.9151 100.77 50.5548 100.77 51.1937Z" fill="white"/>
<g clip-path="url(#clip0_466_390)">
<mask id="mask0_466_390" style="mask-type:luminance" maskUnits="userSpaceOnUse" x="22" y="12" width="80" height="53">
<path d="M22.4066 12H101.26V64.5204H22.4066V12Z" fill="white"/>
</mask>
<g mask="url(#mask0_466_390)">
<path d="M24.6097 64.3844C23.2038 60.3349 22.4375 55.986 22.4375 51.4577C22.4375 29.7178 40.2148 11.996 61.9546 12.0617C83.6574 12.1269 101.229 29.7407 101.229 51.4577C101.229 55.5443 100.605 59.4846 99.4505 63.1911C99.2276 63.9037 98.5619 64.3844 97.8149 64.3844H24.6097Z" fill="#EEEEEE"/>
</g>
<path d="M89.6949 72.8484H31.1838C29.6169 72.8484 28.1773 71.9957 27.4133 70.6271C26.048 68.1817 24.9342 65.577 24.1113 62.8459H28.5928V42.8399C28.5928 41.9564 29.338 41.2461 30.2346 41.3044C31.0524 41.3575 31.6707 42.073 31.6707 42.8925V62.8459H34.7487V52.0731C34.7487 51.2234 35.4373 50.5342 36.2876 50.5342H37.8266V47.4568C37.8266 46.6065 38.5152 45.9179 39.3656 45.9179H40.904V39.498C39.1113 38.8648 37.8266 37.1555 37.8266 35.1451C37.8266 33.1352 39.1113 31.4259 40.904 30.7922C40.904 30.7922 42.4861 30.2633 43.9819 30.7922C45.7752 31.4259 47.0598 33.1352 47.0598 35.1451C47.0598 37.1555 45.7752 38.8648 43.9819 39.498V45.9179H47.0598V42.7588C47.0598 41.9084 47.749 41.2198 48.5988 41.2198H54.7547C55.6045 41.2198 56.2937 41.9084 56.2937 42.7588V62.8459H73.2212V32.0671C73.2212 31.1836 73.9664 30.4739 74.8624 30.5322C75.6808 30.5847 76.2991 31.3002 76.2991 32.1203V52.0731H88.6109C89.4606 52.0731 90.1493 52.7623 90.1493 53.6121V61.307H93.2272V35.2947C93.2272 34.4112 93.7373 33.7755 94.7501 33.7755C95.7629 33.7755 96.3051 34.4746 96.3051 35.2947V62.8459H99.5562C99.0562 64.5038 98.4493 66.1147 97.7441 67.6714C96.3154 70.8288 93.1598 72.8484 89.6949 72.8484Z" fill="#CFCFCF"/>
<path d="M68.6049 78.4256V41.3012C68.6049 40.4514 69.2935 39.7622 70.1438 39.7622H79.3771C80.2274 39.7622 80.916 40.4514 80.916 41.3012V44.3791H85.5329C86.3827 44.3791 87.0719 45.0677 87.0719 45.9181V78.4256H68.6049Z" fill="#A5A5A5"/>
<path d="M68.6049 78.4256V41.3012C68.6049 40.4514 69.2935 39.7622 70.1438 39.7622H73.2212C72.3714 39.7622 71.6828 40.4514 71.6828 41.3012V78.4256H68.6049Z" fill="#989B9D"/>
<path d="M77.8381 48.1999V70.5512C77.8381 71.3193 77.2677 71.9702 76.506 72.0639C76.4951 72.065 76.4854 72.0668 76.4745 72.0679C75.5648 72.1799 74.7601 71.4724 74.7601 70.5552V48.1999C74.7601 47.3581 75.4425 46.6758 76.2837 46.6758H76.3145C77.1557 46.6758 77.8381 47.3581 77.8381 48.1999ZM82.4704 46.6758H82.4395C81.5983 46.6758 80.916 47.3581 80.916 48.1999V70.5552C80.916 71.4724 81.7201 72.1799 82.6304 72.0679C82.6413 72.0668 82.651 72.065 82.6618 72.0639C83.4236 71.9702 83.9939 71.3193 83.9939 70.5512V48.1999C83.9939 47.3581 83.3116 46.6758 82.4704 46.6758Z" fill="#AFBBBE"/>
<path d="M50.1378 45.9179V79.4454C50.1378 80.4484 49.1926 81.1867 48.2211 80.9381C45.4489 80.2301 42.8007 79.3374 40.3045 78.2825C39.7353 78.0419 39.3656 77.483 39.3656 76.8641V45.9179C39.3656 45.0675 40.0542 44.3789 40.904 44.3789H48.5988C49.4486 44.3789 50.1378 45.0675 50.1378 45.9179Z" fill="#82879F"/>
<path d="M97.8378 67.4634C91.9785 80.625 79.1227 89.9805 63.9902 90.796V67.4634H97.8378ZM48.5988 44.3789H43.9819C43.1321 44.3789 42.4429 45.0675 42.4429 45.9179V76.8641C42.4429 77.4824 42.8127 78.0419 43.3819 78.2825C45.3974 79.134 47.513 79.878 49.7115 80.5067C49.9726 80.2324 50.1378 79.8626 50.1378 79.4454V45.9179C50.1378 45.0675 49.4486 44.3789 48.5988 44.3789Z" fill="#858CAC"/>
<path d="M65.5298 76.6959H92.0854C91.1865 77.7726 90.2304 78.7989 89.2241 79.7738H65.5298V76.6959ZM65.5298 70.54V73.618H94.4119C95.0891 72.6236 95.7217 71.5961 96.3074 70.54H65.5298ZM65.5298 85.9292H80.9183C82.5676 85.0142 84.1437 83.985 85.637 82.8512H65.5298V85.9292Z" fill="#82879F"/>
<path d="M76.6072 59.768V87.9901C72.0445 89.8376 67.0585 90.8537 61.8335 90.8537C56.6086 90.8537 51.6225 89.8376 47.0599 87.9901V59.768C47.0599 58.9177 47.7491 58.2291 48.5988 58.2291H53.2157V50.5342C53.2157 49.6845 53.9044 48.9953 54.7547 48.9953H60.2945V38.2231C60.2945 37.3733 60.9837 36.6841 61.8335 36.6841C62.6833 36.6841 63.3725 37.3733 63.3725 38.2231V48.9953H68.9123C69.7627 48.9953 70.4513 49.6845 70.4513 50.5342V58.2291H75.0682C75.918 58.2291 76.6072 58.9177 76.6072 59.768Z" fill="#AC9F92"/>
<path d="M54.7547 58.2289H53.2157V50.5341C53.2157 49.6843 53.9044 48.9951 54.7547 48.9951H57.8321C56.9823 48.9951 56.2937 49.6843 56.2937 50.5341V56.69C56.2937 57.5397 55.6045 58.2289 54.7547 58.2289ZM73.4572 70.5401C74.3258 70.5401 75.0299 69.8515 75.0299 69.0011C75.0299 68.1514 74.3258 67.4622 73.4572 67.4622H51.6768C50.8264 67.4622 50.1378 66.7735 50.1378 65.9232C50.1378 65.0734 50.8264 64.3842 51.6768 64.3842H73.4572C74.3258 64.3842 75.0299 63.6956 75.0299 62.8458C75.0299 61.9955 74.3258 61.3069 73.4572 61.3069H51.6768C50.8264 61.3069 50.1378 60.6177 50.1378 59.7679C50.1378 58.9175 50.8264 58.2289 51.6768 58.2289H48.5988C47.7491 58.2289 47.0599 58.9175 47.0599 59.7679V87.9871C51.6225 89.8341 56.6086 90.8536 61.8335 90.8536C62.3496 90.8536 62.8616 90.841 63.3725 90.8216C61.5146 90.7496 59.6905 90.549 57.9081 90.2295C57.1703 90.0964 57.2709 89.0072 58.0201 89.0072H73.4572C74.3258 89.0072 75.0299 88.318 75.0299 87.4682C75.0299 86.6184 74.3258 85.9292 73.4572 85.9292H51.6768C50.8264 85.9292 50.1378 85.2406 50.1378 84.3903C50.1378 83.5405 50.8264 82.8513 51.6768 82.8513H73.4572C74.3258 82.8513 75.0299 82.1627 75.0299 81.3123C75.0299 80.4625 74.3258 79.7739 73.4572 79.7739H51.6768C50.8264 79.7739 50.1378 79.0847 50.1378 78.2349C50.1378 77.3846 50.8264 76.696 51.6768 76.696H73.4572C74.3258 76.696 75.0299 76.0068 75.0299 75.157C75.0299 74.3067 74.3258 73.618 73.4572 73.618H51.6768C50.8264 73.618 50.1378 72.9289 50.1378 72.0791C50.1378 71.2293 50.8264 70.5401 51.6768 70.5401H73.4572Z" fill="#94887C"/>
<path d="M73.2212 62.8461C73.2212 63.6959 72.5326 64.3845 71.6828 64.3845H69.8358C68.986 64.3845 68.2968 63.6959 68.2968 62.8461C68.2968 61.9958 68.986 61.3071 69.8358 61.3071H71.6828C72.5326 61.3071 73.2212 61.9958 73.2212 62.8461ZM63.9879 67.4624H62.1415C61.2912 67.4624 60.6026 68.1516 60.6026 69.0014C60.6026 69.8517 61.2912 70.5404 62.1415 70.5404H63.9879C64.8377 70.5404 65.5269 69.8517 65.5269 69.0014C65.5269 68.1516 64.8377 67.4624 63.9879 67.4624ZM63.9879 73.6183H62.1415C61.2912 73.6183 60.6026 74.3069 60.6026 75.1573C60.6026 76.0071 61.2912 76.6962 62.1415 76.6962H63.9879C64.8377 76.6962 65.5269 76.0071 65.5269 75.1573C65.5269 74.3069 64.8377 73.6183 63.9879 73.6183ZM56.2937 85.9295H54.4467C53.5969 85.9295 52.9077 86.6187 52.9077 87.4685C52.9077 88.3182 53.5969 89.0074 54.4467 89.0074H56.2937C57.1434 89.0074 57.8321 88.3182 57.8321 87.4685C57.8321 86.6187 57.1434 85.9295 56.2937 85.9295Z" fill="#CDF2EC"/>
<path d="M65.5269 62.8461C65.5269 63.6959 64.8377 64.3845 63.9879 64.3845H62.1415C61.2912 64.3845 60.6026 63.6959 60.6026 62.8461C60.6026 61.9958 61.2912 61.3071 62.1415 61.3071H63.9879C64.8377 61.3071 65.5269 61.9958 65.5269 62.8461ZM56.2937 61.3071H54.4467C53.5969 61.3071 52.9077 61.9958 52.9077 62.8461C52.9077 63.6959 53.5969 64.3845 54.4467 64.3845H56.2937C57.1434 64.3845 57.8321 63.6959 57.8321 62.8461C57.8321 61.9958 57.1434 61.3071 56.2937 61.3071ZM56.2937 67.4624H54.4467C53.5969 67.4624 52.9077 68.1516 52.9077 69.0014C52.9077 69.8517 53.5969 70.5404 54.4467 70.5404H56.2937C57.1434 70.5404 57.8321 69.8517 57.8321 69.0014C57.8321 68.1516 57.1434 67.4624 56.2937 67.4624ZM69.8358 70.5404H71.6828C72.5326 70.5404 73.2212 69.8517 73.2212 69.0014C73.2212 68.1516 72.5326 67.4624 71.6828 67.4624H69.8358C68.986 67.4624 68.2968 68.1516 68.2968 69.0014C68.2968 69.8517 68.986 70.5404 69.8358 70.5404ZM56.2937 73.6183H54.4467C53.5969 73.6183 52.9077 74.3069 52.9077 75.1573C52.9077 76.0071 53.5969 76.6962 54.4467 76.6962H56.2937C57.1434 76.6962 57.8321 76.0071 57.8321 75.1573C57.8321 74.3069 57.1434 73.6183 56.2937 73.6183ZM71.6828 73.6183H69.8358C68.986 73.6183 68.2968 74.3069 68.2968 75.1573C68.2968 76.0071 68.986 76.6962 69.8358 76.6962H71.6828C72.5326 76.6962 73.2212 76.0071 73.2212 75.1573C73.2212 74.3069 72.5326 73.6183 71.6828 73.6183ZM63.9879 79.7742H62.1415C61.2912 79.7742 60.6026 80.4628 60.6026 81.3126C60.6026 82.1629 61.2912 82.8515 62.1415 82.8515H63.9879C64.8377 82.8515 65.5269 82.1629 65.5269 81.3126C65.5269 80.4628 64.8377 79.7742 63.9879 79.7742ZM56.2937 79.7742H54.4467C53.5969 79.7742 52.9077 80.4628 52.9077 81.3126C52.9077 82.1629 53.5969 82.8515 54.4467 82.8515H56.2937C57.1434 82.8515 57.8321 82.1629 57.8321 81.3126C57.8321 80.4628 57.1434 79.7742 56.2937 79.7742ZM71.6828 79.7742H69.8358C68.986 79.7742 68.2968 80.4628 68.2968 81.3126C68.2968 82.1629 68.986 82.8515 69.8358 82.8515H71.6828C72.5326 82.8515 73.2212 82.1629 73.2212 81.3126C73.2212 80.4628 72.5326 79.7742 71.6828 79.7742ZM63.9879 85.9295H62.1415C61.2912 85.9295 60.6026 86.6187 60.6026 87.4685C60.6026 88.3182 61.2912 89.0074 62.1415 89.0074H63.9879C64.8377 89.0074 65.5269 88.3182 65.5269 87.4685C65.5269 86.6187 64.8377 85.9295 63.9879 85.9295ZM71.6828 85.9295H69.8358C68.986 85.9295 68.2968 86.6187 68.2968 87.4685C68.2968 88.3182 68.986 89.0074 69.8358 89.0074H71.6828C72.5326 89.0074 73.2212 88.3182 73.2212 87.4685C73.2212 86.6187 72.5326 85.9295 71.6828 85.9295Z" fill="#BBCECB"/>
<path d="M30.13 64.3866C30.13 63.5363 30.8198 62.8477 31.669 62.8477H50.136C50.9858 62.8477 51.675 63.5363 51.675 64.3866V89.5307C42.9218 87.202 35.367 81.9353 30.13 74.8497V64.3866Z" fill="#A5A5A5"/>
<path d="M36.2877 67.4513V80.9694C36.2877 81.1237 36.2665 81.2677 36.2299 81.4009C35.1733 80.4962 34.1646 79.5367 33.2097 78.5264V67.4513C33.2097 66.6106 33.8921 65.9283 34.7338 65.9283H34.7635C35.6053 65.9277 36.2877 66.6106 36.2877 67.4513ZM40.9194 65.9277H40.8891C40.0479 65.9277 39.3656 66.6101 39.3656 67.4513V83.8222C40.3594 84.5136 41.3857 85.1617 42.443 85.7606V67.4513C42.443 66.6106 41.7606 65.9277 40.9194 65.9277ZM47.0747 65.9277H47.045C46.2032 65.9277 45.5209 66.6101 45.5209 67.4513V87.3287C46.5255 87.7853 47.5519 88.2019 48.5988 88.5757V67.4513C48.5988 66.6106 47.9165 65.9277 47.0747 65.9277Z" fill="#AFBBBE"/>
<path d="M27.3652 70.54H42.4429C43.2932 70.54 43.9819 71.2292 43.9819 72.079V86.5858C36.9699 83.0147 31.1741 77.4063 27.3652 70.54Z" fill="#909496"/>
<path d="M40.904 81.3124C40.904 82.1628 40.2153 82.8514 39.3656 82.8514H38.0335C36.7762 81.897 35.5784 80.869 34.4458 79.774H39.3656C40.2153 79.774 40.904 80.4627 40.904 81.3124ZM40.904 75.1571C40.904 74.3068 40.2153 73.6182 39.3656 73.6182H29.2585C29.9837 74.6828 30.7604 75.7097 31.5844 76.6961H39.3656C40.2153 76.6961 40.904 76.0069 40.904 75.1571Z" fill="#9CAAA8"/>
</g>
<defs>
<clipPath id="clip0_466_390">
<rect width="79" height="79" fill="white" transform="translate(22.3335 12)"/>
</clipPath>
</defs>
</svg>
