<svg width="370" height="165" viewBox="0 0 370 165" fill="none" xmlns="http://www.w3.org/2000/svg">
<path d="M139.078 10.5515C124.351 1.78106 107.063 -1.67494 90.0965 0.760011C73.1301 3.19496 57.5116 11.3736 45.8462 23.9317C34.1809 36.4898 27.1741 52.668 25.9946 69.7676C24.8151 86.8672 29.5343 103.854 39.3649 117.895C85.7555 123.415 85.7555 123.415 85.7555 123.415C130.085 123.415 130.085 123.415 130.085 123.415C166.788 110.296 166.788 110.296 166.788 110.296C174.88 95.1862 177.547 77.7587 174.343 60.9205L100.74 74.9234L139.078 10.5515Z" fill="#FFBE00"/>
<mask id="path-2-outside-1_370_547" maskUnits="userSpaceOnUse" x="0" y="69.0024" width="202" height="96" fill="black">
<rect fill="white" y="69.0024" width="202" height="96"/>
<path d="M17.5756 137.193C15.0781 137.193 13.3022 136.832 12.2477 136.111C11.1932 135.334 10.555 134.362 10.333 133.197C10.111 131.976 10 130.755 10 129.534V86.578C10 85.357 10.111 84.1638 10.333 82.9984C10.555 81.8329 11.1932 80.8894 12.2477 80.1679C13.3022 79.3909 15.1059 79.0024 17.6588 79.0024H34.2252C36.3341 79.0024 38.6096 79.4464 41.0515 80.3344C43.4934 81.1669 45.7966 82.4711 47.9611 84.2471C50.181 86.023 51.9847 88.243 53.3722 90.9069C54.7597 93.5708 55.4534 96.7343 55.4534 100.397C55.4534 104.005 54.7597 107.14 53.3722 109.804C51.9847 112.468 50.181 114.688 47.9611 116.464C45.7966 118.185 43.4934 119.489 41.0515 120.377C38.6096 121.209 36.3064 121.625 34.1419 121.625H25.2344V129.617C25.2344 130.838 25.1234 132.031 24.9014 133.197C24.6794 134.362 24.0412 135.334 22.9867 136.111C21.9322 136.832 20.1285 137.193 17.5756 137.193ZM25.2344 106.391H34.2252C34.9466 106.391 35.7791 106.225 36.7226 105.892C37.6661 105.503 38.4986 104.865 39.22 103.977C39.9415 103.089 40.3023 101.868 40.3023 100.314C40.3023 99.1485 40.0248 98.1217 39.4698 97.2338C38.9148 96.2903 38.1656 95.5688 37.2221 95.0693C36.3341 94.5143 35.3074 94.2368 34.1419 94.2368H25.2344V106.391Z"/>
<path d="M92.8922 137.11C90.3948 137.11 88.5356 136.693 87.3146 135.861C86.1491 135.028 85.5942 134.085 85.6496 133.03H86.8151C86.5376 133.419 85.9826 133.946 85.1502 134.612C84.3732 135.223 83.3187 135.805 81.9867 136.36C80.6548 136.86 79.0176 137.11 77.0751 137.11C74.5777 137.11 72.1635 136.555 69.8325 135.445C67.5571 134.279 65.5036 132.697 63.6722 130.699C61.8962 128.702 60.481 126.454 59.4265 123.956C58.3721 121.403 57.8448 118.74 57.8448 115.965C57.8448 113.245 58.3721 110.637 59.4265 108.139C60.481 105.642 61.924 103.422 63.7554 101.479C65.5869 99.4815 67.6403 97.9275 69.9158 96.8175C72.1912 95.652 74.5777 95.0693 77.0751 95.0693C78.9621 95.0693 80.5438 95.3468 81.8202 95.9018C83.1522 96.4568 84.2067 97.0673 84.9837 97.7333C85.8161 98.3992 86.3711 98.9542 86.6486 99.3982H85.7329C85.6774 98.0107 86.2324 96.9285 87.3979 96.1515C88.6188 95.3746 90.478 94.9861 92.9755 94.9861C95.4729 94.9861 97.2211 95.3746 98.2201 96.1515C99.2746 96.873 99.9128 97.8165 100.135 98.982C100.357 100.147 100.468 101.341 100.468 102.562V129.617C100.468 130.838 100.357 132.031 100.135 133.197C99.9128 134.362 99.2746 135.306 98.2201 136.027C97.2211 136.749 95.4452 137.11 92.8922 137.11Z"/>
<path d="M127.91 136.277C125.19 136.277 122.832 135.722 120.834 134.612C118.836 133.502 117.198 132.004 115.922 130.117C114.646 128.174 113.702 125.982 113.092 123.54C112.481 121.098 112.204 118.518 112.259 115.798C112.315 113.134 112.648 110.553 113.258 108.056C113.924 105.559 114.895 103.339 116.172 101.396C117.448 99.4537 119.058 97.9275 121 96.8175C122.943 95.652 125.246 95.0693 127.91 95.0693C130.352 95.0693 132.71 95.652 134.986 96.8175C137.317 97.983 139.398 99.5647 141.229 101.563C143.061 103.505 144.504 105.725 145.558 108.223C146.613 110.72 147.14 113.301 147.14 115.965C147.14 118.74 146.613 121.376 145.558 123.873C144.504 126.315 143.061 128.48 141.229 130.366C139.453 132.198 137.4 133.641 135.069 134.695C132.794 135.75 130.407 136.277 127.91 136.277ZM112.509 154.925C110.067 154.925 108.319 154.564 107.264 153.842C106.21 153.121 105.571 152.205 105.35 151.095C105.183 149.985 105.1 148.82 105.1 147.599V102.395C105.1 101.174 105.183 100.009 105.35 98.8987C105.571 97.7887 106.182 96.873 107.181 96.1515C108.235 95.3746 109.984 94.9861 112.426 94.9861C114.368 94.9861 115.977 95.2636 117.254 95.8185C118.53 96.318 119.446 97.1228 120.001 98.2327V147.516C120.112 148.737 120.029 149.902 119.751 151.012C119.529 152.177 118.891 153.121 117.837 153.842C116.782 154.564 115.006 154.925 112.509 154.925ZM125.912 122.125C127.022 122.125 128.021 121.847 128.909 121.292C129.852 120.737 130.601 120.016 131.156 119.128C131.711 118.185 131.989 117.186 131.989 116.131C131.989 115.021 131.711 114.022 131.156 113.134C130.657 112.191 129.935 111.469 128.992 110.97C128.104 110.415 127.105 110.137 125.995 110.137C124.885 110.137 123.858 110.415 122.915 110.97C122.027 111.525 121.305 112.246 120.75 113.134C120.251 114.022 120.001 115.021 120.001 116.131C120.001 117.186 120.279 118.185 120.834 119.128C121.389 120.016 122.11 120.737 122.998 121.292C123.886 121.847 124.857 122.125 125.912 122.125Z"/>
<path d="M184.27 137.11C181.772 137.11 179.913 136.693 178.692 135.861C177.527 135.028 176.972 134.085 177.027 133.03H178.193C177.915 133.419 177.36 133.946 176.528 134.612C175.751 135.223 174.696 135.805 173.364 136.36C172.032 136.86 170.395 137.11 168.453 137.11C165.955 137.11 163.541 136.555 161.21 135.445C158.935 134.279 156.881 132.697 155.05 130.699C153.274 128.702 151.859 126.454 150.804 123.956C149.75 121.403 149.222 118.74 149.222 115.965C149.222 113.245 149.75 110.637 150.804 108.139C151.859 105.642 153.302 103.422 155.133 101.479C156.965 99.4815 159.018 97.9275 161.293 96.8175C163.569 95.652 165.955 95.0693 168.453 95.0693C170.34 95.0693 171.921 95.3468 173.198 95.9018C174.53 96.4568 175.584 97.0673 176.361 97.7333C177.194 98.3992 177.749 98.9542 178.026 99.3982H177.111C177.055 98.0107 177.61 96.9285 178.776 96.1515C179.996 95.3746 181.856 94.9861 184.353 94.9861C186.851 94.9861 188.599 95.3746 189.598 96.1515C190.652 96.873 191.29 97.8165 191.512 98.982C191.734 100.147 191.845 101.341 191.845 102.562V129.617C191.845 130.838 191.734 132.031 191.512 133.197C191.29 134.362 190.652 135.306 189.598 136.027C188.599 136.749 186.823 137.11 184.27 137.11Z"/>
</mask>
<path d="M17.5756 137.193C15.0781 137.193 13.3022 136.832 12.2477 136.111C11.1932 135.334 10.555 134.362 10.333 133.197C10.111 131.976 10 130.755 10 129.534V86.578C10 85.357 10.111 84.1638 10.333 82.9984C10.555 81.8329 11.1932 80.8894 12.2477 80.1679C13.3022 79.3909 15.1059 79.0024 17.6588 79.0024H34.2252C36.3341 79.0024 38.6096 79.4464 41.0515 80.3344C43.4934 81.1669 45.7966 82.4711 47.9611 84.2471C50.181 86.023 51.9847 88.243 53.3722 90.9069C54.7597 93.5708 55.4534 96.7343 55.4534 100.397C55.4534 104.005 54.7597 107.14 53.3722 109.804C51.9847 112.468 50.181 114.688 47.9611 116.464C45.7966 118.185 43.4934 119.489 41.0515 120.377C38.6096 121.209 36.3064 121.625 34.1419 121.625H25.2344V129.617C25.2344 130.838 25.1234 132.031 24.9014 133.197C24.6794 134.362 24.0412 135.334 22.9867 136.111C21.9322 136.832 20.1285 137.193 17.5756 137.193ZM25.2344 106.391H34.2252C34.9466 106.391 35.7791 106.225 36.7226 105.892C37.6661 105.503 38.4986 104.865 39.22 103.977C39.9415 103.089 40.3023 101.868 40.3023 100.314C40.3023 99.1485 40.0248 98.1217 39.4698 97.2338C38.9148 96.2903 38.1656 95.5688 37.2221 95.0693C36.3341 94.5143 35.3074 94.2368 34.1419 94.2368H25.2344V106.391Z" fill="#F0ECE0"/>
<path d="M92.8922 137.11C90.3948 137.11 88.5356 136.693 87.3146 135.861C86.1491 135.028 85.5942 134.085 85.6496 133.03H86.8151C86.5376 133.419 85.9826 133.946 85.1502 134.612C84.3732 135.223 83.3187 135.805 81.9867 136.36C80.6548 136.86 79.0176 137.11 77.0751 137.11C74.5777 137.11 72.1635 136.555 69.8325 135.445C67.5571 134.279 65.5036 132.697 63.6722 130.699C61.8962 128.702 60.481 126.454 59.4265 123.956C58.3721 121.403 57.8448 118.74 57.8448 115.965C57.8448 113.245 58.3721 110.637 59.4265 108.139C60.481 105.642 61.924 103.422 63.7554 101.479C65.5869 99.4815 67.6403 97.9275 69.9158 96.8175C72.1912 95.652 74.5777 95.0693 77.0751 95.0693C78.9621 95.0693 80.5438 95.3468 81.8202 95.9018C83.1522 96.4568 84.2067 97.0673 84.9837 97.7333C85.8161 98.3992 86.3711 98.9542 86.6486 99.3982H85.7329C85.6774 98.0107 86.2324 96.9285 87.3979 96.1515C88.6188 95.3746 90.478 94.9861 92.9755 94.9861C95.4729 94.9861 97.2211 95.3746 98.2201 96.1515C99.2746 96.873 99.9128 97.8165 100.135 98.982C100.357 100.147 100.468 101.341 100.468 102.562V129.617C100.468 130.838 100.357 132.031 100.135 133.197C99.9128 134.362 99.2746 135.306 98.2201 136.027C97.2211 136.749 95.4452 137.11 92.8922 137.11Z" fill="#F0ECE0"/>
<path d="M127.91 136.277C125.19 136.277 122.832 135.722 120.834 134.612C118.836 133.502 117.198 132.004 115.922 130.117C114.646 128.174 113.702 125.982 113.092 123.54C112.481 121.098 112.204 118.518 112.259 115.798C112.315 113.134 112.648 110.553 113.258 108.056C113.924 105.559 114.895 103.339 116.172 101.396C117.448 99.4537 119.058 97.9275 121 96.8175C122.943 95.652 125.246 95.0693 127.91 95.0693C130.352 95.0693 132.71 95.652 134.986 96.8175C137.317 97.983 139.398 99.5647 141.229 101.563C143.061 103.505 144.504 105.725 145.558 108.223C146.613 110.72 147.14 113.301 147.14 115.965C147.14 118.74 146.613 121.376 145.558 123.873C144.504 126.315 143.061 128.48 141.229 130.366C139.453 132.198 137.4 133.641 135.069 134.695C132.794 135.75 130.407 136.277 127.91 136.277ZM112.509 154.925C110.067 154.925 108.319 154.564 107.264 153.842C106.21 153.121 105.571 152.205 105.35 151.095C105.183 149.985 105.1 148.82 105.1 147.599V102.395C105.1 101.174 105.183 100.009 105.35 98.8987C105.571 97.7887 106.182 96.873 107.181 96.1515C108.235 95.3746 109.984 94.9861 112.426 94.9861C114.368 94.9861 115.977 95.2636 117.254 95.8185C118.53 96.318 119.446 97.1228 120.001 98.2327V147.516C120.112 148.737 120.029 149.902 119.751 151.012C119.529 152.177 118.891 153.121 117.837 153.842C116.782 154.564 115.006 154.925 112.509 154.925ZM125.912 122.125C127.022 122.125 128.021 121.847 128.909 121.292C129.852 120.737 130.601 120.016 131.156 119.128C131.711 118.185 131.989 117.186 131.989 116.131C131.989 115.021 131.711 114.022 131.156 113.134C130.657 112.191 129.935 111.469 128.992 110.97C128.104 110.415 127.105 110.137 125.995 110.137C124.885 110.137 123.858 110.415 122.915 110.97C122.027 111.525 121.305 112.246 120.75 113.134C120.251 114.022 120.001 115.021 120.001 116.131C120.001 117.186 120.279 118.185 120.834 119.128C121.389 120.016 122.11 120.737 122.998 121.292C123.886 121.847 124.857 122.125 125.912 122.125Z" fill="#F0ECE0"/>
<path d="M184.27 137.11C181.772 137.11 179.913 136.693 178.692 135.861C177.527 135.028 176.972 134.085 177.027 133.03H178.193C177.915 133.419 177.36 133.946 176.528 134.612C175.751 135.223 174.696 135.805 173.364 136.36C172.032 136.86 170.395 137.11 168.453 137.11C165.955 137.11 163.541 136.555 161.21 135.445C158.935 134.279 156.881 132.697 155.05 130.699C153.274 128.702 151.859 126.454 150.804 123.956C149.75 121.403 149.222 118.74 149.222 115.965C149.222 113.245 149.75 110.637 150.804 108.139C151.859 105.642 153.302 103.422 155.133 101.479C156.965 99.4815 159.018 97.9275 161.293 96.8175C163.569 95.652 165.955 95.0693 168.453 95.0693C170.34 95.0693 171.921 95.3468 173.198 95.9018C174.53 96.4568 175.584 97.0673 176.361 97.7333C177.194 98.3992 177.749 98.9542 178.026 99.3982H177.111C177.055 98.0107 177.61 96.9285 178.776 96.1515C179.996 95.3746 181.856 94.9861 184.353 94.9861C186.851 94.9861 188.599 95.3746 189.598 96.1515C190.652 96.873 191.29 97.8165 191.512 98.982C191.734 100.147 191.845 101.341 191.845 102.562V129.617C191.845 130.838 191.734 132.031 191.512 133.197C191.29 134.362 190.652 135.306 189.598 136.027C188.599 136.749 186.823 137.11 184.27 137.11Z" fill="#F0ECE0"/>
<path d="M17.5756 137.193C15.0781 137.193 13.3022 136.832 12.2477 136.111C11.1932 135.334 10.555 134.362 10.333 133.197C10.111 131.976 10 130.755 10 129.534V86.578C10 85.357 10.111 84.1638 10.333 82.9984C10.555 81.8329 11.1932 80.8894 12.2477 80.1679C13.3022 79.3909 15.1059 79.0024 17.6588 79.0024H34.2252C36.3341 79.0024 38.6096 79.4464 41.0515 80.3344C43.4934 81.1669 45.7966 82.4711 47.9611 84.2471C50.181 86.023 51.9847 88.243 53.3722 90.9069C54.7597 93.5708 55.4534 96.7343 55.4534 100.397C55.4534 104.005 54.7597 107.14 53.3722 109.804C51.9847 112.468 50.181 114.688 47.9611 116.464C45.7966 118.185 43.4934 119.489 41.0515 120.377C38.6096 121.209 36.3064 121.625 34.1419 121.625H25.2344V129.617C25.2344 130.838 25.1234 132.031 24.9014 133.197C24.6794 134.362 24.0412 135.334 22.9867 136.111C21.9322 136.832 20.1285 137.193 17.5756 137.193ZM25.2344 106.391H34.2252C34.9466 106.391 35.7791 106.225 36.7226 105.892C37.6661 105.503 38.4986 104.865 39.22 103.977C39.9415 103.089 40.3023 101.868 40.3023 100.314C40.3023 99.1485 40.0248 98.1217 39.4698 97.2338C38.9148 96.2903 38.1656 95.5688 37.2221 95.0693C36.3341 94.5143 35.3074 94.2368 34.1419 94.2368H25.2344V106.391Z" stroke="#F0ECE0" stroke-width="20" mask="url(#path-2-outside-1_370_547)"/>
<path d="M92.8922 137.11C90.3948 137.11 88.5356 136.693 87.3146 135.861C86.1491 135.028 85.5942 134.085 85.6496 133.03H86.8151C86.5376 133.419 85.9826 133.946 85.1502 134.612C84.3732 135.223 83.3187 135.805 81.9867 136.36C80.6548 136.86 79.0176 137.11 77.0751 137.11C74.5777 137.11 72.1635 136.555 69.8325 135.445C67.5571 134.279 65.5036 132.697 63.6722 130.699C61.8962 128.702 60.481 126.454 59.4265 123.956C58.3721 121.403 57.8448 118.74 57.8448 115.965C57.8448 113.245 58.3721 110.637 59.4265 108.139C60.481 105.642 61.924 103.422 63.7554 101.479C65.5869 99.4815 67.6403 97.9275 69.9158 96.8175C72.1912 95.652 74.5777 95.0693 77.0751 95.0693C78.9621 95.0693 80.5438 95.3468 81.8202 95.9018C83.1522 96.4568 84.2067 97.0673 84.9837 97.7333C85.8161 98.3992 86.3711 98.9542 86.6486 99.3982H85.7329C85.6774 98.0107 86.2324 96.9285 87.3979 96.1515C88.6188 95.3746 90.478 94.9861 92.9755 94.9861C95.4729 94.9861 97.2211 95.3746 98.2201 96.1515C99.2746 96.873 99.9128 97.8165 100.135 98.982C100.357 100.147 100.468 101.341 100.468 102.562V129.617C100.468 130.838 100.357 132.031 100.135 133.197C99.9128 134.362 99.2746 135.306 98.2201 136.027C97.2211 136.749 95.4452 137.11 92.8922 137.11Z" stroke="#F0ECE0" stroke-width="20" mask="url(#path-2-outside-1_370_547)"/>
<path d="M127.91 136.277C125.19 136.277 122.832 135.722 120.834 134.612C118.836 133.502 117.198 132.004 115.922 130.117C114.646 128.174 113.702 125.982 113.092 123.54C112.481 121.098 112.204 118.518 112.259 115.798C112.315 113.134 112.648 110.553 113.258 108.056C113.924 105.559 114.895 103.339 116.172 101.396C117.448 99.4537 119.058 97.9275 121 96.8175C122.943 95.652 125.246 95.0693 127.91 95.0693C130.352 95.0693 132.71 95.652 134.986 96.8175C137.317 97.983 139.398 99.5647 141.229 101.563C143.061 103.505 144.504 105.725 145.558 108.223C146.613 110.72 147.14 113.301 147.14 115.965C147.14 118.74 146.613 121.376 145.558 123.873C144.504 126.315 143.061 128.48 141.229 130.366C139.453 132.198 137.4 133.641 135.069 134.695C132.794 135.75 130.407 136.277 127.91 136.277ZM112.509 154.925C110.067 154.925 108.319 154.564 107.264 153.842C106.21 153.121 105.571 152.205 105.35 151.095C105.183 149.985 105.1 148.82 105.1 147.599V102.395C105.1 101.174 105.183 100.009 105.35 98.8987C105.571 97.7887 106.182 96.873 107.181 96.1515C108.235 95.3746 109.984 94.9861 112.426 94.9861C114.368 94.9861 115.977 95.2636 117.254 95.8185C118.53 96.318 119.446 97.1228 120.001 98.2327V147.516C120.112 148.737 120.029 149.902 119.751 151.012C119.529 152.177 118.891 153.121 117.837 153.842C116.782 154.564 115.006 154.925 112.509 154.925ZM125.912 122.125C127.022 122.125 128.021 121.847 128.909 121.292C129.852 120.737 130.601 120.016 131.156 119.128C131.711 118.185 131.989 117.186 131.989 116.131C131.989 115.021 131.711 114.022 131.156 113.134C130.657 112.191 129.935 111.469 128.992 110.97C128.104 110.415 127.105 110.137 125.995 110.137C124.885 110.137 123.858 110.415 122.915 110.97C122.027 111.525 121.305 112.246 120.75 113.134C120.251 114.022 120.001 115.021 120.001 116.131C120.001 117.186 120.279 118.185 120.834 119.128C121.389 120.016 122.11 120.737 122.998 121.292C123.886 121.847 124.857 122.125 125.912 122.125Z" stroke="#F0ECE0" stroke-width="20" mask="url(#path-2-outside-1_370_547)"/>
<path d="M184.27 137.11C181.772 137.11 179.913 136.693 178.692 135.861C177.527 135.028 176.972 134.085 177.027 133.03H178.193C177.915 133.419 177.36 133.946 176.528 134.612C175.751 135.223 174.696 135.805 173.364 136.36C172.032 136.86 170.395 137.11 168.453 137.11C165.955 137.11 163.541 136.555 161.21 135.445C158.935 134.279 156.881 132.697 155.05 130.699C153.274 128.702 151.859 126.454 150.804 123.956C149.75 121.403 149.222 118.74 149.222 115.965C149.222 113.245 149.75 110.637 150.804 108.139C151.859 105.642 153.302 103.422 155.133 101.479C156.965 99.4815 159.018 97.9275 161.293 96.8175C163.569 95.652 165.955 95.0693 168.453 95.0693C170.34 95.0693 171.921 95.3468 173.198 95.9018C174.53 96.4568 175.584 97.0673 176.361 97.7333C177.194 98.3992 177.749 98.9542 178.026 99.3982H177.111C177.055 98.0107 177.61 96.9285 178.776 96.1515C179.996 95.3746 181.856 94.9861 184.353 94.9861C186.851 94.9861 188.599 95.3746 189.598 96.1515C190.652 96.873 191.29 97.8165 191.512 98.982C191.734 100.147 191.845 101.341 191.845 102.562V129.617C191.845 130.838 191.734 132.031 191.512 133.197C191.29 134.362 190.652 135.306 189.598 136.027C188.599 136.749 186.823 137.11 184.27 137.11Z" stroke="#F0ECE0" stroke-width="20" mask="url(#path-2-outside-1_370_547)"/>
<path d="M17.5756 137.11C15.0781 137.11 13.3022 136.749 12.2477 136.027C11.1932 135.25 10.555 134.279 10.333 133.114C10.111 131.893 10 130.672 10 129.451V86.4948C10 85.2739 10.111 84.0806 10.333 82.9152C10.555 81.7497 11.1932 80.8062 12.2477 80.0847C13.3022 79.3078 15.1059 78.9193 17.6588 78.9193H34.2252C36.3341 78.9193 38.6096 79.3633 41.0515 80.2512C43.4934 81.0837 45.7966 82.3879 47.9611 84.1639C50.181 85.9399 51.9847 88.1598 53.3722 90.8237C54.7597 93.4877 55.4534 96.6511 55.4534 100.314C55.4534 103.921 54.7597 107.057 53.3722 109.721C51.9847 112.385 50.181 114.605 47.9611 116.381C45.7966 118.101 43.4934 119.406 41.0515 120.294C38.6096 121.126 36.3064 121.542 34.1419 121.542H25.2344V129.534C25.2344 130.755 25.1234 131.948 24.9014 133.114C24.6794 134.279 24.0412 135.25 22.9867 136.027C21.9322 136.749 20.1285 137.11 17.5756 137.11ZM25.2344 106.308H34.2252C34.9466 106.308 35.7791 106.141 36.7226 105.808C37.6661 105.42 38.4986 104.782 39.22 103.894C39.9415 103.006 40.3023 101.785 40.3023 100.231C40.3023 99.0653 40.0248 98.0386 39.4698 97.1506C38.9148 96.2071 38.1656 95.4856 37.2221 94.9861C36.3341 94.4312 35.3074 94.1537 34.1419 94.1537H25.2344V106.308Z" fill="#64B445"/>
<path d="M92.8922 137.026C90.3948 137.026 88.5356 136.61 87.3146 135.778C86.1491 134.945 85.5941 134.002 85.6496 132.947H86.8151C86.5376 133.336 85.9826 133.863 85.1502 134.529C84.3732 135.139 83.3187 135.722 81.9867 136.277C80.6548 136.777 79.0176 137.026 77.0751 137.026C74.5777 137.026 72.1635 136.471 69.8325 135.361C67.5571 134.196 65.5036 132.614 63.6722 130.616C61.8962 128.618 60.481 126.371 59.4265 123.873C58.3721 121.32 57.8448 118.656 57.8448 115.881C57.8448 113.162 58.3721 110.554 59.4265 108.056C60.481 105.559 61.924 103.339 63.7554 101.396C65.5869 99.3983 67.6403 97.8443 69.9158 96.7344C72.1912 95.5689 74.5777 94.9861 77.0751 94.9861C78.9621 94.9861 80.5438 95.2636 81.8202 95.8186C83.1522 96.3736 84.2067 96.9841 84.9837 97.6501C85.8161 98.3161 86.3711 98.8711 86.6486 99.315H85.7329C85.6774 97.9276 86.2324 96.8453 87.3979 96.0684C88.6188 95.2914 90.478 94.9029 92.9755 94.9029C95.4729 94.9029 97.2211 95.2914 98.2201 96.0684C99.2746 96.7898 99.9128 97.7333 100.135 98.8988C100.357 100.064 100.468 101.257 100.468 102.478V129.534C100.468 130.755 100.357 131.948 100.135 133.114C99.9128 134.279 99.2746 135.223 98.2201 135.944C97.2211 136.666 95.4452 137.026 92.8922 137.026ZM79.1563 121.959C80.2108 121.959 81.1543 121.681 81.9867 121.126C82.8747 120.571 83.5684 119.85 84.0679 118.962C84.6229 118.018 84.9004 117.019 84.9004 115.965C84.9004 114.855 84.6229 113.856 84.0679 112.968C83.5684 112.08 82.8747 111.358 81.9867 110.803C81.0988 110.248 80.0998 109.971 78.9898 109.971C77.8798 109.971 76.8531 110.248 75.9096 110.803C75.0217 111.358 74.3002 112.107 73.7452 113.051C73.1902 113.939 72.9127 114.938 72.9127 116.048C72.9127 117.102 73.1902 118.074 73.7452 118.962C74.3557 119.85 75.1327 120.571 76.0761 121.126C77.0196 121.681 78.0463 121.959 79.1563 121.959Z" fill="#64B445"/>
<path d="M127.91 136.194C125.19 136.194 122.832 135.639 120.834 134.529C118.836 133.419 117.198 131.921 115.922 130.034C114.646 128.091 113.702 125.899 113.092 123.457C112.481 121.015 112.204 118.434 112.259 115.715C112.315 113.051 112.648 110.47 113.258 107.973C113.924 105.475 114.895 103.255 116.172 101.313C117.448 99.3705 119.058 97.8443 121 96.7344C122.943 95.5689 125.246 94.9861 127.91 94.9861C130.352 94.9861 132.71 95.5689 134.986 96.7344C137.317 97.8998 139.398 99.4815 141.229 101.479C143.061 103.422 144.504 105.642 145.558 108.139C146.613 110.637 147.14 113.217 147.14 115.881C147.14 118.656 146.613 121.293 145.558 123.79C144.504 126.232 143.061 128.396 141.229 130.283C139.453 132.115 137.4 133.558 135.069 134.612C132.794 135.667 130.407 136.194 127.91 136.194ZM112.509 154.841C110.067 154.841 108.319 154.481 107.264 153.759C106.21 153.038 105.571 152.122 105.349 151.012C105.183 149.902 105.1 148.737 105.1 147.516V102.312C105.1 101.091 105.183 99.9255 105.349 98.8156C105.571 97.7056 106.182 96.7898 107.181 96.0684C108.235 95.2914 109.984 94.9029 112.426 94.9029C114.368 94.9029 115.977 95.1804 117.254 95.7354C118.53 96.2349 119.446 97.0396 120.001 98.1496V147.432C120.112 148.653 120.029 149.819 119.751 150.929C119.529 152.094 118.891 153.038 117.837 153.759C116.782 154.481 115.006 154.841 112.509 154.841ZM125.912 122.042C127.022 122.042 128.021 121.764 128.909 121.209C129.852 120.654 130.601 119.933 131.156 119.045C131.711 118.101 131.989 117.102 131.989 116.048C131.989 114.938 131.711 113.939 131.156 113.051C130.657 112.107 129.935 111.386 128.992 110.887C128.104 110.332 127.105 110.054 125.995 110.054C124.885 110.054 123.858 110.332 122.915 110.887C122.027 111.442 121.305 112.163 120.75 113.051C120.251 113.939 120.001 114.938 120.001 116.048C120.001 117.102 120.279 118.101 120.834 119.045C121.389 119.933 122.11 120.654 122.998 121.209C123.886 121.764 124.857 122.042 125.912 122.042Z" fill="#64B445"/>
<path d="M184.27 137.026C181.772 137.026 179.913 136.61 178.692 135.778C177.527 134.945 176.972 134.002 177.027 132.947H178.193C177.915 133.336 177.36 133.863 176.528 134.529C175.751 135.139 174.696 135.722 173.364 136.277C172.032 136.777 170.395 137.026 168.453 137.026C165.955 137.026 163.541 136.471 161.21 135.361C158.935 134.196 156.881 132.614 155.05 130.616C153.274 128.618 151.859 126.371 150.804 123.873C149.75 121.32 149.222 118.656 149.222 115.881C149.222 113.162 149.75 110.554 150.804 108.056C151.859 105.559 153.302 103.339 155.133 101.396C156.965 99.3983 159.018 97.8443 161.293 96.7344C163.569 95.5689 165.955 94.9861 168.453 94.9861C170.34 94.9861 171.921 95.2636 173.198 95.8186C174.53 96.3736 175.584 96.9841 176.361 97.6501C177.194 98.3161 177.749 98.8711 178.026 99.315H177.111C177.055 97.9276 177.61 96.8453 178.776 96.0684C179.996 95.2914 181.856 94.9029 184.353 94.9029C186.851 94.9029 188.599 95.2914 189.598 96.0684C190.652 96.7898 191.29 97.7333 191.512 98.8988C191.734 100.064 191.845 101.257 191.845 102.478V129.534C191.845 130.755 191.734 131.948 191.512 133.114C191.29 134.279 190.652 135.223 189.598 135.944C188.599 136.666 186.823 137.026 184.27 137.026ZM170.534 121.959C171.588 121.959 172.532 121.681 173.364 121.126C174.252 120.571 174.946 119.85 175.446 118.962C176.001 118.018 176.278 117.019 176.278 115.965C176.278 114.855 176.001 113.856 175.446 112.968C174.946 112.08 174.252 111.358 173.364 110.803C172.476 110.248 171.477 109.971 170.367 109.971C169.257 109.971 168.231 110.248 167.287 110.803C166.399 111.358 165.678 112.107 165.123 113.051C164.568 113.939 164.29 114.938 164.29 116.048C164.29 117.102 164.568 118.074 165.123 118.962C165.733 119.85 166.51 120.571 167.454 121.126C168.397 121.681 169.424 121.959 170.534 121.959Z" fill="#64B445"/>
<path d="M224.698 138.109C220.647 138.109 216.845 137.359 213.294 135.861C209.797 134.307 206.717 132.17 204.053 129.451C201.389 126.731 199.28 123.596 197.726 120.044C196.228 116.436 195.478 112.607 195.478 108.556C195.478 104.338 196.2 100.397 197.643 96.7344C199.141 93.0714 201.195 89.8525 203.803 87.0776C206.412 84.3026 209.436 82.1382 212.877 80.5842C216.374 79.0303 220.092 78.2533 224.032 78.2533C228.084 78.2533 231.858 79.0303 235.354 80.5842C238.906 82.0827 242.014 84.1916 244.678 86.9111C247.342 89.6305 249.423 92.8217 250.922 96.4846C252.42 100.092 253.169 104.005 253.169 108.223C253.169 112.329 252.42 116.187 250.922 119.794C249.479 123.401 247.425 126.593 244.761 129.368C242.153 132.087 239.128 134.224 235.687 135.778C232.302 137.332 228.639 138.109 224.698 138.109ZM224.282 122.874C226.169 122.874 227.945 122.513 229.61 121.792C231.275 121.015 232.718 119.988 233.939 118.712C235.215 117.38 236.187 115.826 236.853 114.05C237.574 112.218 237.935 110.276 237.935 108.223C237.935 106.169 237.574 104.254 236.853 102.478C236.131 100.703 235.132 99.1485 233.856 97.8166C232.635 96.4291 231.192 95.3746 229.527 94.6532C227.917 93.8762 226.197 93.4877 224.365 93.4877C222.479 93.4877 220.703 93.8762 219.038 94.6532C217.428 95.3746 215.985 96.4291 214.709 97.8166C213.488 99.1485 212.517 100.703 211.795 102.478C211.074 104.254 210.713 106.169 210.713 108.223C210.713 110.221 211.074 112.107 211.795 113.883C212.517 115.659 213.488 117.241 214.709 118.629C215.985 119.961 217.428 121.015 219.038 121.792C220.703 122.513 222.451 122.874 224.282 122.874ZM217.373 77.3376C216.374 77.3376 215.513 76.9213 214.792 76.0888C214.07 75.2564 213.432 73.9799 212.877 72.2594C212.156 69.9285 212.017 68.208 212.461 67.098C212.905 65.9326 214.126 65.0446 216.124 64.4341L231.442 59.9387C232.441 59.9387 233.301 60.355 234.022 61.1874C234.744 62.0199 235.354 63.2964 235.854 65.0168C236.631 67.2368 236.769 68.9295 236.27 70.095C235.77 71.2605 234.577 72.1484 232.69 72.7589L217.373 77.3376Z" fill="#FFBE00"/>
<path d="M274.456 137.193C271.903 137.193 269.655 137.082 267.713 136.86C265.826 136.638 264.217 136.194 262.885 135.528C261.553 134.862 260.47 133.918 259.638 132.698C258.805 131.421 258.195 129.784 257.806 127.786C257.418 125.732 257.224 123.179 257.224 120.127V83.2482C257.224 81.9717 257.335 80.7785 257.557 79.6685C257.779 78.503 258.417 77.5596 259.471 76.8381C260.526 76.0611 262.302 75.6726 264.799 75.6726C267.297 75.6726 269.045 76.0611 270.044 76.8381C271.098 77.5596 271.737 78.503 271.959 79.6685C272.181 80.834 272.292 82.0549 272.292 83.3314V119.211C272.292 120.044 272.292 120.71 272.292 121.209C272.347 121.653 272.43 121.986 272.541 122.208C272.708 122.43 272.93 122.569 273.207 122.624C273.54 122.624 273.984 122.624 274.539 122.624C275.261 122.624 276.01 122.735 276.787 122.957C277.619 123.124 278.313 123.707 278.868 124.706C279.479 125.649 279.784 127.314 279.784 129.701C279.784 132.198 279.479 133.974 278.868 135.028C278.313 136.083 277.619 136.693 276.787 136.86C275.955 137.082 275.178 137.193 274.456 137.193Z" fill="#FFBE00"/>
<path d="M304.138 138.109C299.975 138.109 296.451 137.443 293.565 136.111C290.679 134.723 288.348 132.947 286.573 130.783C284.797 128.563 283.492 126.176 282.66 123.623C281.827 121.071 281.411 118.601 281.411 116.214C281.411 111.83 282.382 107.973 284.325 104.643C286.267 101.313 288.959 98.7046 292.4 96.8176C295.841 94.9306 299.781 93.9872 304.221 93.9872C307.662 93.9872 310.603 94.5422 313.045 95.6521C315.487 96.7621 317.458 98.1773 318.956 99.8978C320.51 101.618 321.648 103.45 322.369 105.392C323.091 107.335 323.451 109.138 323.451 110.803C323.451 113.967 322.674 116.381 321.12 118.046C319.566 119.711 317.569 120.543 315.127 120.543H297.395C297.617 121.431 298.061 122.208 298.727 122.874C299.448 123.485 300.336 123.984 301.391 124.373C302.445 124.706 303.583 124.872 304.804 124.872C306.025 124.872 307.107 124.817 308.051 124.706C308.994 124.539 309.799 124.345 310.465 124.123C311.186 123.901 311.824 123.679 312.379 123.457C312.99 123.235 313.517 123.068 313.961 122.957C314.461 122.791 314.932 122.708 315.376 122.708C316.375 122.708 317.291 123.041 318.124 123.707C318.956 124.373 319.705 125.372 320.371 126.704C320.76 127.425 321.037 128.119 321.204 128.785C321.37 129.395 321.453 129.978 321.453 130.533C321.453 132.198 320.76 133.585 319.372 134.695C318.04 135.805 316.098 136.638 313.545 137.193C310.992 137.803 307.856 138.109 304.138 138.109ZM297.395 112.718H306.719C307.496 112.718 308.05 112.551 308.383 112.218C308.772 111.885 308.966 111.386 308.966 110.72C308.966 109.999 308.744 109.388 308.3 108.889C307.912 108.389 307.357 108.028 306.635 107.806C305.914 107.529 305.054 107.39 304.055 107.39C302.723 107.39 301.557 107.668 300.558 108.223C299.559 108.722 298.782 109.388 298.227 110.221C297.728 110.998 297.45 111.83 297.395 112.718Z" fill="#FFBE00"/>
<path d="M348.023 137.942C345.47 137.942 342.889 137.443 340.28 136.444C337.672 135.389 335.258 133.918 333.038 132.032C330.873 130.089 329.125 127.786 327.793 125.122C326.517 122.402 325.879 119.378 325.879 116.048C325.879 112.995 326.461 110.137 327.627 107.473C328.792 104.809 330.374 102.478 332.372 100.481C334.425 98.4271 336.756 96.8176 339.365 95.6521C342.029 94.4867 344.859 93.9039 347.856 93.9039C351.963 93.9039 355.681 94.9029 359.011 96.9008C362.341 98.8433 365.005 101.479 367.003 104.809C369.001 108.139 370 111.858 370 115.965C370 119.461 369.334 122.569 368.002 125.288C366.67 128.008 364.922 130.311 362.757 132.198C360.593 134.085 358.207 135.5 355.598 136.444C353.045 137.443 350.52 137.942 348.023 137.942ZM347.856 122.708C348.689 122.708 349.632 122.513 350.686 122.125C351.796 121.681 352.74 120.96 353.517 119.961C354.349 118.962 354.766 117.602 354.766 115.881C354.766 114.494 354.46 113.301 353.85 112.302C353.295 111.303 352.49 110.526 351.436 109.971C350.381 109.416 349.16 109.138 347.773 109.138C346.552 109.138 345.442 109.444 344.443 110.054C343.444 110.609 342.639 111.414 342.029 112.468C341.418 113.467 341.113 114.633 341.113 115.965C341.113 117.63 341.501 118.962 342.278 119.961C343.055 120.96 343.971 121.681 345.026 122.125C346.08 122.513 347.024 122.708 347.856 122.708Z" fill="#FFBE00"/>
</svg>
