<svg width="120" height="120" viewBox="0 0 120 120" fill="none" xmlns="http://www.w3.org/2000/svg">
<rect width="120" height="120" rx="60" fill="#25D366"/>
<path d="M60 25C79.3296 25 95 40.6703 95 60C95 79.3296 79.3296 95 60 95C53.9042 95 48.174 93.4409 43.1826 90.7012L25 95L29.6611 77.4619C26.6968 72.3228 25 66.3593 25 60C25 40.6703 40.6703 25 60 25ZM60 31.2676C44.1324 31.2676 31.2686 44.1314 31.2686 59.999C31.2686 66.1172 33.1816 71.7884 36.4414 76.4482L33.4277 86.7158L44.1699 83.9795C48.7092 86.9827 54.1502 88.7314 60 88.7314V88.7305C75.8675 88.7304 88.7314 75.8666 88.7314 59.999C88.7314 44.1314 75.8676 31.2676 60 31.2676ZM50.3809 42.7275C50.8095 42.6926 51.2029 42.9414 51.3857 43.3301L55.3789 51.7979C55.5675 52.1984 55.4849 52.6752 55.1719 52.9883L52.1963 55.9639C51.5528 56.6074 51.3635 57.61 51.8066 58.4053C52.8926 60.3526 54.3533 62.2284 56.0449 63.9541C57.7706 65.6457 59.6464 67.1064 61.5938 68.1914C62.389 68.6346 63.3896 68.4462 64.0342 67.8027L67.0107 64.8271C67.3237 64.5142 67.7997 64.4307 68.2002 64.6201L76.6689 68.6123C77.0576 68.7952 77.3065 69.1896 77.2715 69.6172C77.1801 70.7314 76.7322 72.9641 74.7305 74.9658C69.0811 80.6151 58.9377 74.2261 58.5205 73.9766C56.0249 72.6359 53.653 70.8424 51.4043 68.5947C49.1565 66.347 47.3622 63.9742 46.0215 61.4785C45.7734 61.066 39.3799 50.919 45.0312 45.2676C47.0331 43.2658 49.2667 42.8189 50.3809 42.7275Z" fill="#F7FBF6"/>
</svg>
