<svg width="120" height="120" viewBox="0 0 120 120" fill="none" xmlns="http://www.w3.org/2000/svg">
<g clip-path="url(#clip0_375_370)">
<mask id="mask0_375_370" style="mask-type:luminance" maskUnits="userSpaceOnUse" x="0" y="0" width="120" height="120">
<path d="M0.111084 0H119.889V119.778H0.111084V0Z" fill="white"/>
</mask>
<g mask="url(#mask0_375_370)">
<mask id="mask1_375_370" style="mask-type:luminance" maskUnits="userSpaceOnUse" x="0" y="0" width="120" height="120">
<path d="M60 0C26.9245 0 0.111084 26.8134 0.111084 59.8889C0.111084 92.9653 26.9245 119.778 60 119.778C93.0755 119.778 119.889 92.9653 119.889 59.8889C119.889 26.8134 93.0755 0 60 0Z" fill="white"/>
</mask>
<g mask="url(#mask1_375_370)">
<mask id="mask2_375_370" style="mask-type:luminance" maskUnits="userSpaceOnUse" x="0" y="0" width="120" height="120">
<path d="M120 0H0V119.778H120V0Z" fill="white"/>
</mask>
<g mask="url(#mask2_375_370)">
<mask id="mask3_375_370" style="mask-type:luminance" maskUnits="userSpaceOnUse" x="0" y="0" width="120" height="120">
<path d="M0.111084 0H119.889V119.778H0.111084V0Z" fill="white"/>
</mask>
<g mask="url(#mask3_375_370)">
<mask id="mask4_375_370" style="mask-type:luminance" maskUnits="userSpaceOnUse" x="0" y="0" width="120" height="120">
<path d="M60 0C26.9245 0 0.111084 26.8134 0.111084 59.8889C0.111084 92.9653 26.9245 119.778 60 119.778C93.0755 119.778 119.889 92.9653 119.889 59.8889C119.889 26.8134 93.0755 0 60 0Z" fill="white"/>
</mask>
<g mask="url(#mask4_375_370)">
<path d="M0.111084 0H119.889V119.778H0.111084V0Z" fill="#86AD36"/>
</g>
</g>
</g>
</g>
</g>
<mask id="mask5_375_370" style="mask-type:luminance" maskUnits="userSpaceOnUse" x="23" y="88" width="74" height="7">
<path d="M23.6162 88.2222H96.3141V94.348H23.6162V88.2222Z" fill="white"/>
</mask>
<g mask="url(#mask5_375_370)">
<path d="M95.9444 88.2822H24.0095C23.7821 88.2822 23.5972 88.4671 23.5972 88.6946V93.8647C23.5972 94.093 23.7821 94.277 24.0095 94.277H95.9444C96.1727 94.277 96.3567 94.093 96.3567 93.8647V88.6946C96.3524 88.4671 96.1675 88.2822 95.9444 88.2822Z" fill="white"/>
</g>
<path d="M53.9504 41.6658V83.9991C53.9504 84.2274 54.1353 84.4114 54.3628 84.4114H66.164C66.3914 84.4114 66.5763 84.2274 66.5763 83.9991V77.539C66.5763 76.2439 67.0997 75.0703 67.9487 74.2213C68.8072 73.3628 70.0051 72.8342 71.3194 72.8489C73.9001 72.8776 75.9565 75.0217 75.9565 77.5972V83.9948C75.9565 84.2222 76.1405 84.4071 76.3688 84.4071H88.1692C88.3975 84.4071 88.5815 84.2222 88.5815 83.9948V41.6658C88.5815 40.9383 87.9904 40.3472 87.2629 40.3472H55.2751C54.5425 40.342 53.9504 40.934 53.9504 41.6658ZM78.0468 45.4878H83.4261V51.5069H78.0468V45.4878ZM78.0468 55.3099H83.4261V61.329H78.0468V55.3099ZM78.0468 65.1319H83.4261V71.151H78.0468V65.1319ZM68.5746 45.4878H73.953V51.5069H68.5746V45.4878ZM68.5746 55.3099H73.953V61.329H68.5746V55.3099ZM59.1015 45.4878H64.4808V51.5069H59.1015V45.4878ZM59.1015 55.3099H64.4808V61.329H59.1015V55.3099ZM59.1015 65.1319H64.4808V71.151H59.1015V65.1319Z" fill="white"/>
<mask id="mask6_375_370" style="mask-type:luminance" maskUnits="userSpaceOnUse" x="31" y="25" width="42" height="60">
<path d="M31.3333 25.4756H72.6666V84.4443H31.3333V25.4756Z" fill="white"/>
</mask>
<g mask="url(#mask6_375_370)">
<path d="M31.7846 84.4071H49.7265C49.9539 84.4071 50.1379 84.2222 50.1379 83.9947V41.6657C50.1379 38.8289 52.4374 36.5347 55.2699 36.5347H72.4695V34.4296C72.4695 33.789 72.0182 33.2361 71.3871 33.105L33.2447 25.4565C32.2117 25.4565 31.3723 26.2951 31.3723 27.3289V83.9991C31.3775 84.2222 31.5616 84.4071 31.7846 84.4071ZM42.2708 33.6874H47.2334V38.6493H42.2708V33.6874ZM42.2708 43.776H47.2334V48.7378H42.2708V43.776ZM42.2708 53.8593H47.2334V58.8211H42.2708V53.8593ZM42.2708 63.9487H47.2334V68.9105H42.2708V63.9487ZM42.2708 73.6927H47.2334V78.6545H42.2708V73.6927ZM34.2829 33.6874H39.2447V38.6493H34.2829V33.6874ZM34.2829 43.776H39.2447V48.7378H34.2829V43.776ZM34.2829 53.8593H39.2447V58.8211H34.2829V53.8593ZM34.2829 63.9487H39.2447V68.9105H34.2829V63.9487ZM34.2829 73.6927H39.2447V78.6545H34.2829V73.6927Z" fill="white"/>
</g>
</g>
<defs>
<clipPath id="clip0_375_370">
<rect width="120" height="120" fill="white"/>
</clipPath>
</defs>
</svg>
