<svg width="120" height="120" viewBox="0 0 120 120" fill="none" xmlns="http://www.w3.org/2000/svg">
<g clip-path="url(#clip0_375_404)">
<mask id="mask0_375_404" style="mask-type:luminance" maskUnits="userSpaceOnUse" x="0" y="0" width="120" height="120">
<path d="M0.111084 0H119.889V119.778H0.111084V0Z" fill="white"/>
</mask>
<g mask="url(#mask0_375_404)">
<path fill-rule="evenodd" clip-rule="evenodd" d="M60 0C93.0755 0 119.888 26.8134 119.888 59.8889C119.888 92.9644 93.0755 119.777 60 119.777C26.9245 119.777 0.111084 92.9644 0.111084 59.8889C0.111084 26.8142 26.9245 0 60 0Z" fill="#86AD36"/>
</g>
<path fill-rule="evenodd" clip-rule="evenodd" d="M87.3517 55.8586C79.961 50.2197 73.6572 45.5695 66.2814 39.941C61.9472 36.6225 59.2058 36.1624 54.1242 39.6754C47.0183 45.0964 39.8777 50.3421 32.7388 55.7891C32.04 56.2952 31.5913 57.0652 31.5913 57.9237C31.5913 69.1546 31.5913 80.3863 31.5913 91.6172C31.5913 93.1303 32.9845 94.3681 34.6876 94.3681C39.0357 94.3681 41.7128 94.3681 46.0609 94.3681C49.7449 94.3681 50.2753 94.0278 50.2753 90.7553C50.2753 82.2475 50.2753 74.481 50.2753 65.9723C50.2753 64.6528 51.3543 63.5738 52.6737 63.5738C57.5574 63.5738 62.4402 63.5738 67.3239 63.5738C68.6433 63.5738 69.7206 64.6537 69.7223 65.9723C69.7293 74.5391 69.7961 82.3091 69.7414 91.0652C69.7241 94.066 70.4263 94.3672 73.2909 94.3672C77.7301 94.3672 80.8699 94.3672 85.3091 94.3672C87.0131 94.3672 88.4064 93.1294 88.4064 91.6164C88.4064 80.3855 88.4064 69.1546 88.4064 57.9228C88.4072 57.1034 87.9984 56.3638 87.3517 55.8586ZM22.6989 52.2188C21.3977 53.2127 21.1485 55.073 22.1416 56.3733C23.1355 57.6745 24.9949 57.9237 26.2952 56.9297C30.9602 53.3716 35.5687 49.9757 40.1711 46.5851C44.7848 43.1867 49.3933 39.7917 54.0687 36.224C54.0756 36.2197 54.0808 36.2153 54.0869 36.211C54.0878 36.2119 54.0904 36.2145 54.0913 36.2162C54.113 36.1988 54.1355 36.1806 54.1581 36.1632C56.83 34.3403 58.7883 33.5435 60.4949 33.6259C62.2267 33.711 64.0713 34.7414 66.4463 36.5591C71.1815 40.1728 75.6381 43.4662 80.0982 46.7596C84.4229 49.9549 88.751 53.1511 93.7032 56.9306C95.0036 57.9245 96.8638 57.6745 97.8577 56.3733C98.8508 55.073 98.6017 53.2127 97.3013 52.2188C92.5531 48.5964 88.0895 45.2987 83.626 42.0027C82.2979 41.0591 82.3768 40.2735 82.3768 37.8534C82.3768 34.1606 82.3768 30.4671 82.3768 26.7744C82.3768 26.0235 81.764 25.4106 81.0131 25.4106C78.2371 25.4106 75.461 25.4106 72.6841 25.4106C71.935 25.4106 71.3204 26.0235 71.3204 26.7744C71.3204 28.066 71.3204 29.3577 71.3204 30.6502C71.3204 32.6936 71.1182 32.5417 70.0435 31.8481C66.7293 29.3117 63.9298 27.862 60.7735 27.7084C57.6867 27.5582 54.6173 28.6806 50.8109 31.2778C50.6989 31.3421 50.5913 31.4132 50.4862 31.4931C51.0869 32.2804 51.6876 33.0678 52.2892 33.8542C51.6893 33.0695 51.0895 32.2848 50.4914 31.4983C45.8551 35.0365 41.2631 38.4185 36.6676 41.8047C32.0418 45.2127 27.4098 48.6242 22.6989 52.2188Z" fill="white"/>
</g>
<defs>
<clipPath id="clip0_375_404">
<rect width="120" height="120" fill="white"/>
</clipPath>
</defs>
</svg>
