<svg width="240" height="240" viewBox="0 0 240 240" fill="none" xmlns="http://www.w3.org/2000/svg">
<path d="M177.893 228.769C177.893 228.769 136.251 238.289 65.1539 228.769C23.1179 223.14 4.14682 164.073 7.76873 127.947C12.2009 83.7392 4.37559 36.5835 50.4267 15.874C96.1919 -4.70697 121.645 12.0774 147.931 50.0587C163.176 72.0864 209.378 110.206 209.378 110.206C209.378 110.206 243.665 160.301 230.2 187.661C216.996 214.49 177.893 228.769 177.893 228.769Z" fill="#F0ECE0"/>
<path d="M52.4498 131.147C52.2555 131.304 52.0665 131.471 51.8885 131.649C51.9642 131.579 52.1585 131.401 52.4498 131.147Z" fill="#02C7DD"/>
<path d="M99.8775 66.4028H79.7711V47.8992H99.8775V66.4028Z" fill="#00366D"/>
<path d="M99.8775 66.4028H88.4644V47.8992H99.8775V66.4028Z" fill="#015A9A"/>
<path d="M110.887 77.7729H68.7615C67.1504 77.7729 65.8326 76.4548 65.8326 74.8438V61.9504C65.8326 60.339 67.1504 59.0208 68.7615 59.0208H110.887C112.498 59.0208 113.816 60.339 113.816 61.9504V74.8438C113.816 76.4548 112.498 77.7729 110.887 77.7729Z" fill="#015A9A"/>
<path d="M102.513 51.25H77.1352C76.3677 51.25 75.7401 50.622 75.7401 49.8545V40.7288C75.7401 39.9613 76.3677 39.3333 77.1352 39.3333H102.513C103.28 39.3333 103.908 39.9613 103.908 40.7288V49.8545C103.908 50.622 103.28 51.25 102.513 51.25Z" fill="#015A9A"/>
<path d="M102.513 51.25H87.884C87.1165 51.25 86.4885 50.622 86.4885 49.8545V40.7288C86.4885 39.9613 87.1165 39.3333 87.884 39.3333H102.513C103.28 39.3333 103.908 39.9613 103.908 40.7288V49.8545C103.908 50.622 103.28 51.25 102.513 51.25Z" fill="#0078C8"/>
<path d="M129.649 134.725V239.854H50V134.725C50 133.035 50.7074 131.497 51.8565 130.371C51.8565 130.371 51.8664 130.362 51.8897 130.338C51.8997 130.328 51.9163 130.318 51.9329 130.298C51.9594 130.279 51.986 130.252 52.0225 130.219C52.0458 130.205 52.0657 130.182 52.089 130.162C52.1587 130.099 52.245 130.029 52.348 129.946C52.3812 129.92 52.4111 129.887 52.451 129.857C53.4904 128.97 55.8052 127.08 58.5484 125.367C60.5278 124.131 60.302 122.172 59.6477 120.604C55.6923 117.838 53.1085 113.348 53.1085 108.31V97.0977H126.541V108.31C126.541 113.607 123.685 118.296 119.381 121.016C118.862 122.504 118.829 124.234 120.636 125.367C121.921 126.17 123.113 127.011 124.123 127.771C124.711 128.213 125.239 128.625 125.687 128.99H125.694C128.012 129.94 129.649 132.155 129.649 134.725Z" fill="#E5B14B"/>
<path d="M129.649 134.725V239.854H59.2491V134.725C59.2491 133.035 59.9565 131.497 61.1056 130.371L61.1388 130.338C61.2119 130.272 61.4078 130.099 61.7001 129.857C62.7396 128.97 65.0544 127.08 67.7976 125.367C69.7769 124.131 69.5511 122.172 68.8969 120.604C64.9415 117.838 62.3577 113.348 62.3577 108.31V97.0977H126.541V108.31C126.541 113.607 123.685 118.296 119.38 121.016C118.862 122.504 118.829 124.234 120.636 125.367C121.921 126.17 123.113 127.011 124.123 127.771C124.711 128.213 125.239 128.625 125.687 128.99H125.694C128.012 129.94 129.649 132.155 129.649 134.725Z" fill="#F7C35F"/>
<path d="M66.166 226.283H62.3584C60.9393 226.283 59.7779 225.122 59.7779 223.702V147.855C59.7779 146.435 60.9393 145.274 62.3584 145.274H66.166C67.5854 145.274 68.7465 146.435 68.7465 147.855V223.702C68.7465 225.122 67.5854 226.283 66.166 226.283Z" fill="#E5B14B"/>
<path d="M83.0671 226.283H79.2595C77.8401 226.283 76.679 225.122 76.679 223.702V147.855C76.679 146.435 77.8401 145.274 79.2595 145.274H83.0671C84.4862 145.274 85.6476 146.435 85.6476 147.855V223.702C85.6476 225.122 84.4862 226.283 83.0671 226.283Z" fill="#E5B14B"/>
<path d="M99.968 226.283H96.1604C94.741 226.283 93.58 225.122 93.58 223.702V147.855C93.58 146.435 94.741 145.274 96.1604 145.274H99.968C101.387 145.274 102.549 146.435 102.549 147.855V223.702C102.549 225.122 101.387 226.283 99.968 226.283Z" fill="#E5B14B"/>
<path d="M116.869 226.283H113.061C111.642 226.283 110.481 225.122 110.481 223.702V147.855C110.481 146.435 111.642 145.274 113.061 145.274H116.869C118.288 145.274 119.45 146.435 119.45 147.855V223.702C119.45 225.122 118.288 226.283 116.869 226.283Z" fill="#E5B14B"/>
<path d="M78.1576 73.7851C69.4696 73.7851 62.3572 80.8972 62.3572 89.5854V97.0967H53.108V89.5854C53.108 80.8972 60.2204 73.7851 68.9084 73.7851H78.1576Z" fill="#E5B14B"/>
<path d="M126.54 89.5851V97.0967H62.3571V89.5851C62.3571 80.8971 69.4695 73.7847 78.1574 73.7847H110.74C119.428 73.7847 126.54 80.8971 126.54 89.5851Z" fill="#F7C35F"/>
<path d="M169.279 103.221H142.859V90.8801H169.279V103.221Z" fill="#00B3CE"/>
<path d="M190 140.353V141.778H121.619V140.224C121.619 132.48 124.376 125.346 128.952 119.761H182.596C187.216 125.378 190 132.561 190 140.353Z" fill="#F7C35F"/>
<path d="M121.619 176.551H121.769L121.619 176.702V176.551Z" fill="#7BACDF"/>
<path d="M190 141.777V176.551H121.77L156.543 141.777H190Z" fill="#7BACDF"/>
<path d="M190 192.61V202.582C190 203.537 189.763 204.444 189.347 205.237C188.381 207.077 186.449 208.346 184.237 208.346H127.382C125.17 208.346 123.238 207.077 122.272 205.237C121.856 204.444 121.619 203.537 121.619 202.582V192.61C121.619 191.655 121.856 190.748 122.272 189.955C122.336 189.831 122.407 189.707 122.482 189.588C122.558 189.464 122.639 189.346 122.725 189.232C122.795 189.135 122.866 189.043 122.947 188.951C122.995 188.887 123.049 188.827 123.103 188.768C123.151 188.709 123.205 188.655 123.265 188.601C123.308 188.547 123.351 188.504 123.4 188.466C123.486 188.374 123.583 188.288 123.68 188.207C123.793 188.11 123.912 188.018 124.036 187.926H124.042C124.166 187.834 124.296 187.753 124.425 187.673C124.425 187.673 124.43 187.673 124.43 187.667C124.56 187.592 124.695 187.522 124.83 187.452C124.964 187.381 125.105 187.322 125.25 187.263C125.315 187.236 125.375 187.214 125.439 187.192C125.515 187.16 125.59 187.133 125.671 187.111C125.698 187.1 125.725 187.09 125.758 187.085C125.823 187.063 125.887 187.047 125.952 187.03C126.152 186.977 126.357 186.933 126.567 186.906C126.702 186.885 126.837 186.874 126.972 186.863C127.107 186.852 127.242 186.847 127.382 186.847H184.237C186.449 186.847 188.381 188.115 189.347 189.955C189.763 190.748 190 191.655 190 192.61Z" fill="#F7C35F"/>
<path d="M190 214.109V224.081C190 224.864 189.844 225.603 189.558 226.283C188.689 228.366 186.627 229.844 184.237 229.844H127.382C124.991 229.844 122.93 228.366 122.061 226.283C121.775 225.603 121.619 224.864 121.619 224.081V214.109C121.619 213.154 121.856 212.247 122.272 211.454C123.238 209.614 125.17 208.346 127.382 208.346H184.237C186.449 208.346 188.381 209.614 189.347 211.454C189.763 212.247 190 213.154 190 214.109Z" fill="#F7C35F"/>
<path d="M190 235.606V239.854H121.619V235.606C121.619 235.523 121.622 235.44 121.626 235.357C121.626 235.304 121.629 235.254 121.636 235.201C121.639 235.141 121.642 235.078 121.649 235.019C121.659 234.922 121.672 234.826 121.685 234.73C121.695 234.673 121.705 234.617 121.715 234.56C121.725 234.504 121.735 234.447 121.749 234.391C121.752 234.381 121.752 234.368 121.755 234.358C121.788 234.208 121.828 234.059 121.875 233.913C121.888 233.863 121.905 233.816 121.921 233.766C121.968 233.63 122.018 233.497 122.074 233.368C122.107 233.288 122.14 233.212 122.18 233.135C122.204 233.086 122.227 233.039 122.253 232.989C122.277 232.94 122.303 232.89 122.33 232.843C122.393 232.727 122.463 232.611 122.536 232.498C122.536 232.495 122.536 232.495 122.539 232.495C122.602 232.395 122.668 232.299 122.738 232.206C122.801 232.116 122.871 232.03 122.941 231.947C122.944 231.94 122.951 231.93 122.961 231.923L122.971 231.913C123.04 231.827 123.117 231.744 123.193 231.661C123.273 231.575 123.356 231.492 123.442 231.412C123.529 231.332 123.618 231.252 123.708 231.176C123.891 231.027 124.083 230.887 124.283 230.758C124.478 230.631 124.681 230.518 124.89 230.416C124.9 230.409 124.91 230.402 124.923 230.399C125.023 230.352 125.126 230.306 125.232 230.266C125.332 230.223 125.435 230.186 125.538 230.15C125.545 230.15 125.554 230.147 125.561 230.143C125.564 230.14 125.568 230.137 125.574 230.14C125.588 230.133 125.604 230.13 125.618 230.123C125.684 230.103 125.75 230.083 125.817 230.063C125.827 230.06 125.833 230.06 125.843 230.057C125.88 230.044 125.913 230.034 125.95 230.027C125.96 230.024 125.97 230.02 125.98 230.02C126.076 229.994 126.172 229.974 126.272 229.954C126.375 229.931 126.481 229.914 126.587 229.901C126.597 229.901 126.611 229.897 126.621 229.897C126.631 229.894 126.64 229.891 126.65 229.894C126.667 229.891 126.684 229.891 126.7 229.887C126.8 229.874 126.903 229.864 127.006 229.858C127.129 229.848 127.255 229.844 127.381 229.844H184.238C186.26 229.844 188.05 230.907 189.083 232.498C189.664 233.395 190 234.464 190 235.606Z" fill="#F7C35F"/>
<path d="M189.083 232.499H122.536C123.567 230.907 125.358 229.844 127.382 229.844C124.992 229.844 122.93 228.366 122.061 226.283H189.558C188.689 228.366 186.627 229.844 184.237 229.844C186.26 229.844 188.052 230.907 189.083 232.499Z" fill="#F7C35F"/>
<path d="M189.347 211.454H122.272C123.238 209.613 125.17 208.345 127.382 208.345C125.17 208.345 123.238 207.077 122.272 205.237H189.347C188.381 207.077 186.449 208.345 184.237 208.345C186.449 208.345 188.381 209.613 189.347 211.454Z" fill="#F7C35F"/>
<path d="M189.05 183.738C187.906 185.6 185.856 186.847 183.524 186.847H128.094C127.949 186.847 127.803 186.841 127.663 186.83C127.517 186.825 127.377 186.809 127.236 186.787C127.074 186.766 126.923 186.744 126.767 186.707C126.648 186.685 126.529 186.652 126.411 186.62C126.276 186.588 126.141 186.544 126.011 186.501C125.882 186.453 125.752 186.404 125.623 186.35C125.358 186.242 125.099 186.118 124.857 185.967C124.77 185.918 124.684 185.87 124.603 185.816C124.392 185.681 124.193 185.536 124.004 185.373C123.902 185.293 123.804 185.212 123.713 185.12C123.669 185.088 123.626 185.05 123.588 185.006C123.464 184.888 123.351 184.769 123.238 184.639C123.135 184.521 123.033 184.402 122.935 184.273C122.898 184.224 122.86 184.176 122.827 184.122C122.736 183.998 122.649 183.868 122.568 183.738H189.05Z" fill="#F7C35F"/>
<path d="M189.347 189.955H122.272C122.336 189.831 122.407 189.707 122.482 189.588C122.558 189.464 122.639 189.345 122.725 189.232C122.795 189.135 122.866 189.043 122.947 188.951C122.995 188.887 123.049 188.827 123.103 188.768C123.151 188.708 123.206 188.655 123.265 188.601C123.308 188.547 123.351 188.503 123.4 188.466C123.486 188.374 123.583 188.288 123.68 188.207C123.793 188.11 123.912 188.018 124.036 187.926H124.042C124.166 187.834 124.296 187.753 124.425 187.673C124.425 187.673 124.43 187.673 124.43 187.667C124.56 187.591 124.695 187.521 124.83 187.451C124.964 187.381 125.105 187.322 125.25 187.262C125.315 187.235 125.375 187.214 125.439 187.192C125.515 187.16 125.59 187.133 125.671 187.111C125.698 187.1 125.725 187.09 125.758 187.084C125.823 187.063 125.887 187.046 125.952 187.03C126.152 186.976 126.357 186.933 126.567 186.906C126.702 186.885 126.837 186.874 126.972 186.863C127.107 186.852 127.242 186.847 127.382 186.847H184.237C186.449 186.847 188.381 188.115 189.347 189.955Z" fill="#F7C35F"/>
<path d="M156.543 141.777L121.77 176.551H121.619V141.777H156.543Z" fill="white"/>
<path d="M190 141.777V176.551H121.77L156.543 141.777H190Z" fill="#015A9A"/>
<path d="M190 176.551V180.372C190 181.602 189.649 182.757 189.051 183.739H122.569C121.97 182.757 121.619 181.602 121.619 180.372V176.702L121.77 176.551H190Z" fill="#F7C35F"/>
<path d="M125.25 187.263L122.703 189.81L122.482 189.588C122.558 189.464 122.639 189.346 122.725 189.232C122.795 189.135 122.865 189.043 122.946 188.952C122.995 188.887 123.049 188.828 123.103 188.768C123.151 188.709 123.205 188.655 123.265 188.601C123.308 188.547 123.351 188.504 123.4 188.466C123.486 188.374 123.583 188.288 123.68 188.207C123.793 188.11 123.912 188.018 124.036 187.927H124.042C124.166 187.835 124.295 187.754 124.425 187.673C124.425 187.673 124.43 187.673 124.43 187.667C124.56 187.592 124.694 187.522 124.83 187.452C124.964 187.381 125.105 187.322 125.25 187.263Z" fill="#6BD9E7"/>
<path d="M170.735 141.777L135.962 176.551H121.77L156.543 141.777H170.735Z" fill="#015A9A"/>
<path d="M182.596 119.761H128.952C132.589 115.319 137.386 111.855 142.858 109.832V103.221H169.278V110.074C174.507 112.12 179.083 115.487 182.596 119.761Z" fill="#A7E8F1"/>
<path d="M173.552 82.0895V98.8988C173.552 101.262 171.637 103.194 169.278 103.221H142.713C140.333 103.221 138.39 101.279 138.39 98.8988V82.0895C138.39 79.7153 140.333 77.7725 142.713 77.7725H169.23C171.61 77.7725 173.552 79.7153 173.552 82.0895Z" fill="#0078C8"/>
<path d="M154.385 103.222V109.831C150.031 111.441 146.112 113.959 142.857 117.16C142.02 117.984 141.227 118.851 140.483 119.761C135.9 125.347 133.146 132.477 133.146 140.222V180.37C133.146 181.602 133.495 182.755 134.096 183.738C135.239 185.601 137.291 186.846 139.619 186.846H138.909C136.693 186.846 134.764 188.112 133.801 189.955C133.382 190.752 133.146 191.655 133.146 192.612V202.582C133.146 203.538 133.382 204.441 133.801 205.238C134.764 207.082 136.693 208.347 138.909 208.347C136.693 208.347 134.761 209.612 133.801 211.456C133.382 212.249 133.146 213.153 133.146 214.109V224.082C133.146 224.859 133.303 225.603 133.588 226.284C134.455 228.366 136.517 229.844 138.909 229.844C136.883 229.844 135.093 230.904 134.066 232.498C133.485 233.398 133.146 234.464 133.146 235.606V239.854H121.619V235.606C121.619 235.523 121.622 235.44 121.626 235.357C121.626 235.304 121.629 235.254 121.636 235.201C121.639 235.141 121.642 235.078 121.649 235.019C121.659 234.922 121.672 234.826 121.685 234.73C121.695 234.673 121.705 234.617 121.715 234.56C121.725 234.504 121.735 234.447 121.749 234.391C121.752 234.381 121.752 234.368 121.755 234.358C121.788 234.208 121.828 234.059 121.875 233.913C121.888 233.863 121.905 233.816 121.921 233.766C121.968 233.63 122.018 233.497 122.074 233.368C122.107 233.288 122.14 233.212 122.18 233.135C122.204 233.086 122.227 233.039 122.253 232.989C122.277 232.94 122.303 232.89 122.33 232.843C122.393 232.727 122.463 232.611 122.536 232.498C122.536 232.495 122.536 232.495 122.539 232.495C122.602 232.395 122.668 232.299 122.738 232.206C122.801 232.116 122.871 232.03 122.941 231.947C122.944 231.94 122.951 231.93 122.961 231.923L122.971 231.913C123.04 231.827 123.117 231.744 123.193 231.661C123.273 231.575 123.356 231.492 123.442 231.412C123.529 231.332 123.618 231.252 123.708 231.176C123.891 231.023 124.083 230.884 124.283 230.758C124.475 230.628 124.678 230.515 124.89 230.416C124.9 230.409 124.91 230.402 124.923 230.399C125.023 230.352 125.126 230.306 125.232 230.266C125.332 230.223 125.435 230.186 125.538 230.15C125.545 230.15 125.554 230.147 125.561 230.143C125.564 230.14 125.568 230.137 125.574 230.14C125.588 230.133 125.604 230.13 125.618 230.123C125.684 230.103 125.75 230.083 125.817 230.063C125.827 230.06 125.833 230.06 125.843 230.057C125.88 230.044 125.913 230.034 125.95 230.027C125.96 230.024 125.97 230.02 125.98 230.02C126.076 229.994 126.172 229.974 126.272 229.954C126.375 229.931 126.481 229.914 126.587 229.901C126.597 229.901 126.611 229.897 126.621 229.897C126.631 229.894 126.64 229.891 126.65 229.894C126.667 229.891 126.684 229.891 126.7 229.887C126.8 229.874 126.903 229.864 127.006 229.858C127.129 229.848 127.255 229.844 127.381 229.844C127.275 229.844 127.169 229.841 127.062 229.834H127.032L126.793 229.814C126.697 229.804 126.601 229.791 126.508 229.778C126.435 229.765 126.362 229.755 126.288 229.738C126.239 229.731 126.192 229.721 126.142 229.708C126.093 229.698 126.039 229.688 125.993 229.675C125.98 229.672 125.97 229.668 125.956 229.665C125.757 229.615 125.564 229.552 125.375 229.479C125.305 229.456 125.239 229.429 125.169 229.399C125.09 229.363 125.007 229.33 124.927 229.29C124.844 229.25 124.764 229.21 124.688 229.17C124.628 229.137 124.565 229.104 124.505 229.067C124.449 229.034 124.392 229.001 124.336 228.968C124.213 228.891 124.093 228.808 123.98 228.722C123.924 228.682 123.867 228.639 123.814 228.596C123.758 228.552 123.705 228.509 123.652 228.463C123.545 228.373 123.446 228.277 123.346 228.18C123.296 228.131 123.246 228.081 123.2 228.031C123.157 227.984 123.114 227.941 123.07 227.895C122.974 227.785 122.881 227.669 122.795 227.553C122.708 227.443 122.629 227.327 122.552 227.211C122.516 227.154 122.476 227.094 122.443 227.035C122.297 226.796 122.17 226.546 122.061 226.284C122.024 226.201 121.991 226.115 121.961 226.025C121.928 225.939 121.898 225.852 121.871 225.763C121.805 225.55 121.752 225.331 121.712 225.108C121.692 225.005 121.679 224.903 121.666 224.796C121.636 224.564 121.619 224.325 121.619 224.082V214.109C121.619 214.009 121.622 213.913 121.626 213.817C121.629 213.764 121.636 213.711 121.639 213.657C121.642 213.591 121.649 213.525 121.656 213.461C121.656 213.455 121.659 213.448 121.659 213.442C121.659 213.425 121.662 213.408 121.666 213.392C121.669 213.368 121.669 213.349 121.675 213.325C121.682 213.259 121.692 213.189 121.705 213.123C121.709 213.089 121.715 213.056 121.722 213.023C121.735 212.953 121.752 212.88 121.768 212.811C121.778 212.764 121.788 212.718 121.802 212.674C121.832 212.558 121.865 212.445 121.901 212.332C121.901 212.329 121.901 212.329 121.905 212.326C121.938 212.223 121.974 212.123 122.014 212.023C122.014 212.017 122.018 212.01 122.021 212.003C122.047 211.93 122.077 211.861 122.107 211.794C122.117 211.771 122.13 211.744 122.144 211.721C122.184 211.632 122.227 211.542 122.273 211.456C122.393 211.223 122.526 211.004 122.678 210.791C122.755 210.685 122.831 210.582 122.914 210.482C122.921 210.472 122.931 210.459 122.941 210.449C123.014 210.36 123.09 210.273 123.167 210.19C123.253 210.097 123.346 210.004 123.439 209.918C123.532 209.831 123.625 209.748 123.721 209.665C123.725 209.662 123.728 209.662 123.728 209.662C123.828 209.579 123.93 209.499 124.037 209.426C124.14 209.35 124.249 209.277 124.359 209.21C124.409 209.181 124.455 209.151 124.505 209.121C124.734 208.988 124.977 208.868 125.226 208.769C125.276 208.749 125.322 208.729 125.372 208.712C125.445 208.682 125.521 208.656 125.598 208.633C125.644 208.616 125.694 208.599 125.744 208.586C125.81 208.566 125.877 208.546 125.946 208.53C125.99 208.516 126.036 208.506 126.079 208.496C126.099 208.49 126.116 208.486 126.136 208.483C126.149 208.48 126.159 208.476 126.172 208.476C126.219 208.467 126.269 208.457 126.318 208.447C126.381 208.433 126.445 208.423 126.508 208.413C126.594 208.4 126.68 208.39 126.767 208.38C126.79 208.377 126.81 208.377 126.83 208.374H126.85C126.916 208.367 126.986 208.36 127.052 208.357C127.162 208.35 127.271 208.347 127.381 208.347C127.271 208.347 127.162 208.344 127.052 208.337C126.986 208.334 126.916 208.327 126.85 208.32H126.83C126.81 208.32 126.79 208.317 126.767 208.314C126.7 208.307 126.634 208.297 126.567 208.287C126.528 208.284 126.488 208.277 126.448 208.271C126.438 208.267 126.428 208.267 126.418 208.264C126.352 208.254 126.288 208.241 126.225 208.227C126.142 208.211 126.063 208.194 125.986 208.174C125.96 208.168 125.933 208.161 125.907 208.151C125.827 208.131 125.75 208.111 125.674 208.085C125.618 208.068 125.561 208.051 125.505 208.028C125.422 208.002 125.342 207.972 125.262 207.938C125.156 207.895 125.05 207.852 124.947 207.802C124.837 207.753 124.731 207.696 124.628 207.64C124.621 207.636 124.611 207.63 124.605 207.626C124.535 207.586 124.469 207.55 124.399 207.507C124.356 207.484 124.312 207.457 124.273 207.424C124.209 207.387 124.146 207.344 124.087 207.301C124.057 207.284 124.03 207.264 124.007 207.244C123.93 207.191 123.857 207.135 123.784 207.075C123.738 207.038 123.691 206.999 123.645 206.959C123.608 206.929 123.568 206.896 123.532 206.859C123.485 206.816 123.439 206.773 123.392 206.726C123.379 206.713 123.366 206.703 123.353 206.69C123.29 206.63 123.226 206.567 123.167 206.5C123.09 206.417 123.014 206.331 122.941 206.241C122.931 206.231 122.921 206.218 122.914 206.208C122.831 206.109 122.755 206.006 122.678 205.899C122.605 205.796 122.532 205.687 122.466 205.577C122.463 205.574 122.459 205.567 122.456 205.564C122.403 205.471 122.35 205.381 122.3 205.285C122.293 205.272 122.287 205.262 122.28 205.248C122.277 205.245 122.273 205.242 122.273 205.238C122.267 205.228 122.263 205.219 122.26 205.209C122.223 205.145 122.194 205.079 122.16 205.013C122.137 204.963 122.114 204.91 122.091 204.86C122.074 204.823 122.061 204.787 122.047 204.75C122.018 204.687 121.994 204.624 121.971 204.558C121.905 204.382 121.848 204.202 121.802 204.016C121.788 203.966 121.775 203.913 121.765 203.86C121.749 203.8 121.735 203.737 121.725 203.678C121.715 203.638 121.709 203.598 121.702 203.558C121.692 203.495 121.682 203.428 121.675 203.365C121.666 203.322 121.662 203.276 121.656 203.229C121.649 203.166 121.642 203.1 121.639 203.033C121.636 202.98 121.629 202.927 121.626 202.874C121.622 202.778 121.619 202.681 121.619 202.582V192.612C121.619 192.512 121.622 192.416 121.626 192.319C121.629 192.266 121.636 192.213 121.639 192.16C121.642 192.094 121.649 192.027 121.656 191.961C121.659 191.921 121.666 191.878 121.672 191.838C121.682 191.762 121.692 191.688 121.709 191.612C121.712 191.586 121.715 191.556 121.722 191.529V191.522C121.739 191.446 121.755 191.37 121.772 191.293C121.782 191.25 121.792 191.207 121.805 191.167C121.822 191.101 121.838 191.034 121.861 190.968C121.875 190.918 121.891 190.865 121.908 190.815C121.961 190.652 122.024 190.49 122.091 190.333C122.114 190.284 122.134 190.231 122.16 190.181C122.197 190.104 122.233 190.028 122.273 189.955C122.3 189.902 122.33 189.845 122.36 189.792C122.37 189.776 122.376 189.759 122.386 189.746C122.416 189.693 122.449 189.639 122.482 189.59C122.519 189.526 122.559 189.467 122.599 189.407C122.639 189.347 122.682 189.291 122.725 189.231C122.758 189.184 122.795 189.138 122.831 189.091C122.868 189.045 122.904 188.998 122.947 188.952C122.994 188.885 123.05 188.829 123.104 188.769C123.127 188.739 123.153 188.713 123.18 188.683C123.29 188.56 123.409 188.44 123.535 188.334C123.582 188.288 123.632 188.248 123.681 188.208C123.738 188.158 123.794 188.112 123.854 188.065C123.914 188.019 123.97 187.976 124.03 187.932C124.033 187.926 124.033 187.926 124.037 187.926C124.163 187.833 124.292 187.75 124.425 187.673C124.429 187.67 124.429 187.667 124.432 187.667C124.561 187.587 124.694 187.514 124.83 187.451C124.897 187.414 124.967 187.381 125.036 187.351C125.106 187.321 125.176 187.291 125.249 187.261C125.342 187.222 125.432 187.185 125.528 187.155C125.545 187.149 125.561 187.142 125.578 187.139C125.621 187.122 125.664 187.109 125.711 187.095C125.757 187.082 125.804 187.066 125.853 187.056C125.887 187.046 125.92 187.036 125.953 187.029C126.053 187.002 126.152 186.979 126.255 186.959C126.358 186.936 126.464 186.919 126.567 186.906C126.7 186.886 126.836 186.87 126.973 186.863C127.029 186.86 127.086 186.856 127.145 186.853C127.185 186.85 127.225 186.846 127.262 186.85C127.301 186.846 127.341 186.846 127.381 186.846H128.095C127.989 186.846 127.883 186.843 127.776 186.836C127.74 186.836 127.7 186.833 127.663 186.83C127.587 186.826 127.511 186.82 127.434 186.813C127.414 186.81 127.398 186.81 127.378 186.806C127.285 186.797 127.185 186.783 127.092 186.767C127.009 186.757 126.929 186.74 126.85 186.723C126.813 186.717 126.78 186.71 126.743 186.7C126.69 186.69 126.64 186.68 126.591 186.667C126.378 186.621 126.172 186.557 125.97 186.484C125.853 186.445 125.74 186.398 125.624 186.352C125.511 186.305 125.402 186.259 125.292 186.202C125.209 186.162 125.126 186.122 125.043 186.076C124.907 186.003 124.771 185.926 124.641 185.84C124.611 185.823 124.581 185.804 124.552 185.78C124.542 185.774 124.528 185.767 124.518 185.757C124.442 185.711 124.369 185.657 124.296 185.604C124.196 185.531 124.1 185.455 124.004 185.375C123.954 185.335 123.907 185.295 123.861 185.259C123.854 185.256 123.851 185.252 123.847 185.246L123.837 185.236C123.778 185.189 123.728 185.139 123.671 185.086L123.668 185.083C123.535 184.963 123.412 184.837 123.293 184.701C123.226 184.631 123.163 184.558 123.104 184.482C123.077 184.449 123.05 184.419 123.024 184.385C122.984 184.339 122.947 184.289 122.911 184.239C122.788 184.08 122.675 183.911 122.569 183.738C122.566 183.735 122.562 183.728 122.559 183.721C122.492 183.612 122.429 183.499 122.366 183.382C122.353 183.359 122.343 183.336 122.333 183.313C122.29 183.23 122.247 183.147 122.21 183.06C122.187 183.014 122.164 182.967 122.144 182.918C122.104 182.825 122.067 182.732 122.031 182.635C122.004 182.569 121.981 182.502 121.961 182.436C121.938 182.37 121.915 182.303 121.898 182.237C121.881 182.197 121.868 182.154 121.858 182.11C121.845 182.067 121.835 182.024 121.825 181.984C121.802 181.895 121.778 181.808 121.762 181.719C121.755 181.689 121.749 181.662 121.745 181.632C121.725 181.539 121.709 181.446 121.695 181.353C121.682 181.28 121.672 181.21 121.666 181.141C121.662 181.117 121.659 181.091 121.656 181.068C121.652 181.031 121.649 180.995 121.646 180.958C121.639 180.872 121.632 180.789 121.629 180.702C121.622 180.593 121.619 180.483 121.619 180.37V140.222C121.619 140.006 121.622 139.787 121.626 139.571C121.629 139.431 121.632 139.289 121.639 139.149C121.642 139.026 121.646 138.903 121.652 138.78C121.662 138.541 121.675 138.302 121.692 138.063C121.702 137.884 121.715 137.701 121.732 137.522C121.732 137.508 121.735 137.495 121.735 137.482C121.745 137.389 121.752 137.293 121.762 137.2V137.19C121.778 137.007 121.798 136.824 121.818 136.642C121.842 136.409 121.871 136.173 121.905 135.941C121.928 135.745 121.958 135.556 121.988 135.363C122.004 135.244 122.024 135.121 122.044 135.001C122.077 134.795 122.114 134.593 122.15 134.387C122.22 134.008 122.297 133.629 122.38 133.258C122.399 133.171 122.419 133.081 122.439 132.992C122.459 132.905 122.479 132.819 122.499 132.729C122.509 132.693 122.519 132.653 122.529 132.613C122.559 132.49 122.589 132.367 122.622 132.245C122.682 132.002 122.748 131.763 122.815 131.524C122.825 131.491 122.831 131.457 122.844 131.424C122.908 131.188 122.981 130.953 123.054 130.717C123.09 130.591 123.13 130.468 123.17 130.345C123.223 130.172 123.28 130.003 123.339 129.833C123.402 129.644 123.469 129.455 123.539 129.266C123.628 129.013 123.725 128.761 123.821 128.515C123.921 128.263 124.02 128.017 124.123 127.771C124.283 127.393 124.449 127.021 124.621 126.649C124.718 126.439 124.814 126.237 124.917 126.031C124.997 125.865 125.08 125.699 125.166 125.536C125.226 125.416 125.289 125.297 125.355 125.177C125.415 125.058 125.478 124.938 125.545 124.819C125.651 124.619 125.764 124.42 125.877 124.224C125.966 124.065 126.059 123.905 126.156 123.749C126.222 123.636 126.292 123.523 126.362 123.411C126.435 123.288 126.511 123.165 126.587 123.045C126.803 122.7 127.026 122.361 127.255 122.026C127.371 121.86 127.487 121.694 127.604 121.527C127.72 121.361 127.839 121.199 127.962 121.036C128.082 120.873 128.205 120.71 128.328 120.551C128.45 120.388 128.577 120.229 128.703 120.073C128.786 119.967 128.869 119.864 128.955 119.761C128.992 119.717 129.025 119.674 129.062 119.631C129.218 119.439 129.377 119.253 129.54 119.067C129.653 118.937 129.766 118.808 129.879 118.681C129.995 118.552 130.108 118.426 130.224 118.303C130.241 118.283 130.26 118.263 130.277 118.243C130.31 118.206 130.34 118.173 130.37 118.143C130.616 117.881 130.865 117.622 131.117 117.37C131.297 117.19 131.479 117.011 131.665 116.835C131.848 116.659 132.034 116.486 132.223 116.317C132.413 116.144 132.602 115.975 132.794 115.809C132.987 115.643 133.18 115.476 133.376 115.314C133.512 115.201 133.648 115.088 133.784 114.978C133.95 114.845 134.116 114.713 134.286 114.583C134.452 114.457 134.618 114.331 134.784 114.208C134.797 114.198 134.81 114.188 134.824 114.178C134.986 114.058 135.149 113.939 135.315 113.823C135.488 113.7 135.664 113.577 135.84 113.457C135.989 113.354 136.142 113.251 136.295 113.152C136.468 113.039 136.644 112.926 136.82 112.813C136.992 112.707 137.165 112.597 137.338 112.494C137.54 112.371 137.74 112.255 137.942 112.135C138.271 111.95 138.6 111.767 138.932 111.591C139.294 111.402 139.659 111.216 140.028 111.036C140.396 110.86 140.768 110.691 141.144 110.525C141.705 110.282 142.279 110.05 142.857 109.837V103.222H142.711C142.615 103.222 142.522 103.218 142.426 103.212C142.396 103.212 142.362 103.208 142.333 103.202C142.24 103.198 142.147 103.185 142.054 103.172C141.911 103.149 141.775 103.119 141.635 103.086C141.565 103.066 141.496 103.046 141.429 103.026C141.33 102.996 141.23 102.959 141.13 102.919C141.034 102.88 140.938 102.836 140.845 102.793H140.841C140.732 102.74 140.622 102.68 140.519 102.617C140.413 102.558 140.313 102.491 140.214 102.418C140.114 102.348 140.021 102.275 139.928 102.199C139.928 102.196 139.925 102.196 139.921 102.192C139.832 102.116 139.742 102.033 139.659 101.95C139.53 101.82 139.41 101.684 139.3 101.541C139.261 101.495 139.224 101.445 139.191 101.395C139.121 101.296 139.055 101.196 138.992 101.09C138.928 100.987 138.872 100.877 138.819 100.767C138.789 100.704 138.759 100.641 138.733 100.575C138.676 100.445 138.63 100.316 138.586 100.18C138.553 100.08 138.527 99.9737 138.503 99.8708C138.477 99.7678 138.457 99.6615 138.44 99.5553C138.427 99.4623 138.417 99.3693 138.41 99.2763C138.404 99.2431 138.4 99.2132 138.4 99.1833C138.394 99.087 138.39 98.994 138.39 98.8977V82.0897C138.39 81.9967 138.394 81.9004 138.4 81.8074C138.4 81.7742 138.404 81.741 138.41 81.7078C138.417 81.6181 138.427 81.5251 138.44 81.4355C138.457 81.3292 138.477 81.2229 138.503 81.12C138.527 81.0137 138.553 80.9108 138.586 80.8111C138.63 80.675 138.676 80.5421 138.733 80.4126C138.759 80.3495 138.789 80.2864 138.819 80.2233C138.982 79.8912 139.181 79.5856 139.417 79.3067C139.496 79.217 139.576 79.1273 139.662 79.041C139.908 78.7952 140.181 78.5794 140.479 78.4C140.596 78.3303 140.719 78.2639 140.841 78.2008C140.904 78.1709 140.971 78.141 141.037 78.1144C141.164 78.0613 141.296 78.0114 141.429 77.9683C141.834 77.8421 142.266 77.7723 142.711 77.7723H154.235C151.861 77.7723 149.918 79.7152 149.918 82.0897V98.8977C149.918 101.279 151.861 103.222 154.235 103.222H154.385Z" fill="#1D1E1E" fill-opacity="0.15"/>
</svg>
