<svg width="48" height="48" viewBox="0 0 48 48" fill="none" xmlns="http://www.w3.org/2000/svg">
<path d="M24 0C37.2547 0 48 10.7453 48 24C48 37.2547 37.2547 48 24 48C19.82 48 15.8904 46.9314 12.4678 45.0527L0 48L3.19629 35.9736C1.16368 32.4497 0 28.3606 0 24C6.76533e-07 10.7453 10.7453 6.76489e-07 24 0ZM24 4.29785C13.1194 4.29785 4.299 13.1185 4.29883 23.999C4.29883 28.1943 5.6104 32.083 7.8457 35.2783L5.7793 42.3193L13.1455 40.4434C16.2581 42.5026 19.9887 43.7012 24 43.7012V43.7002C34.8807 43.7002 43.7012 34.8797 43.7012 23.999C43.701 13.1185 34.8806 4.29785 24 4.29785ZM17.4043 12.1562C17.6982 12.1324 17.9685 12.3028 18.0938 12.5693L20.8311 18.376C20.9604 18.6506 20.9041 18.9777 20.6895 19.1924L18.6484 21.2324C18.2072 21.6737 18.0781 22.361 18.3818 22.9062C19.1265 24.2415 20.1281 25.5276 21.2881 26.7109C22.4714 27.8709 23.7574 28.8732 25.0928 29.6172C25.6381 29.9212 26.3246 29.7919 26.7666 29.3506L28.8076 27.3096C29.0222 27.0953 29.3486 27.0382 29.623 27.168L35.4297 29.9053C35.6964 30.0306 35.8678 30.3014 35.8438 30.5947C35.7811 31.3587 35.4741 32.8901 34.1016 34.2627C30.227 38.1372 23.2692 33.7536 22.9854 33.584C21.2741 32.6647 19.6483 31.4347 18.1064 29.8936C16.5651 28.3522 15.3344 26.725 14.415 25.0137C14.2445 24.7301 9.86133 17.7735 13.7363 13.8984C15.109 12.5258 16.6403 12.2189 17.4043 12.1562Z" fill="#716F6A"/>
</svg>
